<svg viewBox="403.9625000000001 123.42168674698792 1116.8374999999999 1471.566265060241" fill="none" xmlns="http://www.w3.org/2000/svg" xmlns:xlink="http://www.w3.org/1999/xlink" overflow="visible" width="1116.8374999999999px" height="1471.566265060241px"><g id="Master/Compositions/Socializing"><path id="Floor (Stroke)" fill-rule="evenodd" clip-rule="evenodd" d="M1427 1450H603V1446H1427V1450Z" fill="black"/><g id="Background"><g id="Group 3"><path id="Fill 1" fill-rule="evenodd" clip-rule="evenodd" d="M472.588 1245.09C464.286 1202.57 470.181 1159.65 489.634 1120.98L490.142 1119.97L489.11 1119.51C448.591 1101.25 419.332 1064.39 410.844 1020.91C404.281 987.293 410.502 952.716 428.36 923.551C446.101 894.568 473.776 873.373 506.278 863.86L507.167 863.6L507.047 862.682C494.052 763.17 519.224 663.382 577.914 581.684C636.863 499.639 724.023 443.868 823.339 424.646L822.924 422.52C723.064 441.847 635.425 497.923 576.153 580.42C517.31 662.302 491.987 762.289 504.78 862.044C472.145 871.833 444.376 893.227 426.511 922.419C408.369 952.047 402.05 987.172 408.717 1021.32C417.268 1065.12 446.569 1102.31 487.195 1121.02C467.924 1159.85 462.138 1202.87 470.461 1245.51L472.588 1245.09Z" fill="black"/></g><g id="Group 6"><path id="Fill 4" fill-rule="evenodd" clip-rule="evenodd" d="M1246.1 627.656C1190.15 542.893 1104.9 483.493 1006.06 460.396C907.645 437.4 805.265 452.492 717.781 502.892L718.856 504.768C805.862 454.645 907.684 439.635 1005.56 462.507C1103.87 485.477 1188.65 544.553 1244.29 628.854L1246.1 627.656Z" fill="black"/></g><path id="Fill 7" fill-rule="evenodd" clip-rule="evenodd" d="M690.359 1339.46L689.605 1337.43C657.873 1349.16 623.015 1348.66 591.453 1336.01C559.688 1323.28 534.007 1299.28 519.14 1268.45C499.912 1228.56 501.286 1181.61 522.816 1142.85L520.923 1141.8C499.053 1181.17 497.657 1228.86 517.19 1269.38C532.293 1300.71 558.381 1325.09 590.65 1338.02C622.711 1350.87 658.123 1351.38 690.359 1339.46" fill="black"/></g><g id="Cel"><path id="Fill 1_2" fill-rule="evenodd" clip-rule="evenodd" d="M1125.19 1487.5L716.515 1355.15C665.677 1338.69 638.075 1285.57 654.864 1236.5L915.838 473.794C932.626 424.727 987.45 398.298 1038.29 414.76L1446.96 547.105C1497.8 563.568 1525.4 616.689 1508.61 665.755L1247.64 1428.46C1230.85 1477.53 1176.02 1503.96 1125.19 1487.5" fill="white"/><path id="Stroke 3 (Stroke)" fill-rule="evenodd" clip-rule="evenodd" d="M1039.53 418.797C989.677 402.654 936.005 428.594 919.588 476.575L917.696 475.928L919.588 476.575L658.614 1239.28C642.205 1287.24 669.158 1339.25 718.989 1355.38L1127.66 1487.73C1177.51 1503.87 1231.18 1477.93 1247.6 1429.95L1508.57 667.242C1524.98 619.288 1498.03 567.278 1448.2 551.142L1039.53 418.797ZM1040.76 414.992L1040.14 416.892L1040.76 414.992L1449.43 547.336C1501.28 564.125 1529.53 618.359 1512.36 668.537L1251.38 1431.24C1234.22 1481.4 1178.25 1508.32 1126.43 1491.53L717.756 1359.19C665.911 1342.4 637.66 1288.16 654.829 1237.99L915.804 475.28C932.963 425.129 988.938 398.21 1040.76 414.992Z" fill="black"/><path id="Fill 5 (Stroke)" fill-rule="evenodd" clip-rule="evenodd" d="M987.447 484.004C987.447 484.005 987.447 484.004 987.447 484.004L741.533 1203.08C740.459 1206.22 742.209 1209.7 745.57 1210.79L1192.69 1355.66C1196.06 1356.75 1199.64 1354.98 1200.73 1351.81L1446.64 632.736C1447.71 629.591 1445.96 626.12 1442.6 625.031L995.486 480.16C992.108 479.066 988.53 480.839 987.447 484.004ZM996.411 477.306L1443.53 622.177C1448.4 623.756 1451.12 628.896 1449.48 633.707L1203.56 1352.78C1201.93 1357.57 1196.62 1360.08 1191.76 1358.51L744.645 1213.64C739.771 1212.06 737.051 1206.92 738.694 1202.11L984.608 483.033C986.248 478.243 991.552 475.732 996.411 477.306Z" fill="black"/><path id="Fill 7_2" fill-rule="evenodd" clip-rule="evenodd" d="M973.028 1318.05C985.738 1334.01 982.789 1356.93 966.442 1369.25C950.092 1381.56 926.536 1378.61 913.826 1362.64C901.116 1346.68 904.065 1323.76 920.412 1311.44C936.762 1299.13 960.318 1302.09 973.028 1318.05" fill="black"/></g><g id="Element 2"><path id="Fill 37" fill-rule="evenodd" clip-rule="evenodd" d="M695.671 999.318C666.285 1024.86 621.756 1021.75 596.211 992.363C570.667 962.977 573.781 918.448 603.166 892.903C632.552 867.359 677.081 870.473 702.626 899.858C728.169 929.244 725.056 973.773 695.671 999.318" fill="white"/><path id="Fill 37 Copy" fill-rule="evenodd" clip-rule="evenodd" d="M595.078 993.347C621.167 1023.36 666.643 1026.54 696.654 1000.45L697.546 999.661C726.725 973.454 729.583 928.585 703.757 898.874C677.669 868.863 632.192 865.683 602.181 891.771C572.17 917.859 568.99 963.336 595.078 993.347ZM701.493 900.842C726.243 929.315 723.504 972.314 695.541 997.43L694.686 998.186L693.819 998.927C665.056 1023.12 622.094 1019.85 597.343 991.379C572.341 962.618 575.389 919.037 604.149 894.035C632.91 869.034 676.492 872.082 701.493 900.842Z" fill="black"/><path id="Fill 95" fill-rule="evenodd" clip-rule="evenodd" d="M675.24 966.553C676.38 965.352 678.279 965.301 679.481 966.441C680.683 967.582 680.733 969.481 679.593 970.683C678.453 971.884 676.554 971.935 675.352 970.795C674.15 969.654 674.1 967.755 675.24 966.553" fill="black"/><path id="Fill 97" fill-rule="evenodd" clip-rule="evenodd" d="M640.017 997.171C641.158 995.969 643.056 995.919 644.258 997.059C645.46 998.2 645.51 1000.1 644.37 1001.3C643.23 1002.5 641.331 1002.55 640.129 1001.41C638.927 1000.27 638.877 998.373 640.017 997.171" fill="black"/><path id="Fill 99" fill-rule="evenodd" clip-rule="evenodd" d="M638.818 956.989C639.958 955.787 641.857 955.738 643.059 956.877C644.261 958.018 644.311 959.917 643.171 961.118C642.03 962.321 640.132 962.371 638.93 961.23C637.728 960.09 637.677 958.191 638.818 956.989" fill="black"/><path id="Fill 101" fill-rule="evenodd" clip-rule="evenodd" d="M603.595 987.607C604.736 986.405 606.634 986.355 607.837 987.495C609.039 988.635 609.088 990.535 607.948 991.737C606.808 992.938 604.91 992.988 603.707 991.849C602.505 990.708 602.455 988.809 603.595 987.607" fill="black"/><path id="Fill 103" fill-rule="evenodd" clip-rule="evenodd" d="M600.191 950.279C601.331 949.077 603.231 949.027 604.432 950.167C605.634 951.308 605.684 953.206 604.544 954.408C603.404 955.61 601.505 955.66 600.303 954.52C599.101 953.379 599.051 951.481 600.191 950.279" fill="black"/><path id="Fill 105" fill-rule="evenodd" clip-rule="evenodd" d="M597.994 910.027C599.134 908.826 601.033 908.775 602.235 909.915C603.437 911.056 603.487 912.955 602.347 914.157C601.206 915.359 599.307 915.409 598.105 914.269C596.904 913.128 596.853 911.229 597.994 910.027" fill="black"/></g><g id="Element 1"><path id="Fill 37_2" fill-rule="evenodd" clip-rule="evenodd" d="M1349.92 341.954C1334.91 354.997 1312.17 353.407 1299.13 338.402C1286.09 323.397 1287.68 300.658 1302.68 287.614C1317.69 274.57 1340.43 276.16 1353.47 291.166C1366.51 306.171 1364.92 328.91 1349.92 341.954" fill="white"/><path id="Fill 37 Copy 2" fill-rule="evenodd" clip-rule="evenodd" d="M1298 339.386C1311.58 355.017 1335.27 356.673 1350.9 343.086L1351.37 342.675C1366.56 329.025 1368.05 305.656 1354.6 290.182C1341.01 274.551 1317.33 272.895 1301.7 286.482C1286.07 300.07 1284.41 323.756 1298 339.386ZM1352.34 292.15C1364.71 306.386 1363.34 327.886 1349.36 340.444L1348.93 340.821L1348.5 341.192C1334.12 353.29 1312.64 351.654 1300.26 337.418C1287.76 323.038 1289.28 301.247 1303.66 288.746C1318.04 276.246 1339.84 277.77 1352.34 292.15Z" fill="black"/><path id="Fill 95_2" fill-rule="evenodd" clip-rule="evenodd" d="M1339.94 325.307C1340.51 324.706 1341.46 324.681 1342.06 325.251C1342.66 325.822 1342.69 326.771 1342.12 327.372C1341.55 327.973 1340.6 327.998 1340 327.428C1339.4 326.857 1339.37 325.908 1339.94 325.307" fill="black"/><path id="Fill 97_2" fill-rule="evenodd" clip-rule="evenodd" d="M1321.8 341.08C1322.37 340.479 1323.32 340.454 1323.92 341.024C1324.52 341.594 1324.54 342.543 1323.97 343.144C1323.4 343.746 1322.45 343.77 1321.85 343.2C1321.25 342.63 1321.23 341.681 1321.8 341.08" fill="black"/><path id="Fill 99_2" fill-rule="evenodd" clip-rule="evenodd" d="M1321.27 319.991C1321.84 319.39 1322.79 319.366 1323.39 319.935C1323.99 320.506 1324.01 321.455 1323.44 322.056C1322.87 322.657 1321.92 322.682 1321.32 322.112C1320.72 321.542 1320.7 320.592 1321.27 319.991" fill="black"/><path id="Fill 101_2" fill-rule="evenodd" clip-rule="evenodd" d="M1303.12 335.764C1303.69 335.163 1304.64 335.138 1305.24 335.708C1305.84 336.278 1305.87 337.228 1305.3 337.829C1304.73 338.43 1303.78 338.455 1303.18 337.885C1302.58 337.315 1302.55 336.365 1303.12 335.764" fill="black"/><path id="Fill 103_2" fill-rule="evenodd" clip-rule="evenodd" d="M1301.45 316.601C1302.02 316 1302.97 315.975 1303.57 316.545C1304.18 317.116 1304.2 318.065 1303.63 318.666C1303.06 319.267 1302.11 319.292 1301.51 318.722C1300.91 318.151 1300.88 317.202 1301.45 316.601" fill="black"/><path id="Fill 105_2" fill-rule="evenodd" clip-rule="evenodd" d="M1299.86 296.441C1300.43 295.84 1301.38 295.815 1301.98 296.385C1302.58 296.955 1302.6 297.904 1302.03 298.505C1301.46 299.106 1300.51 299.131 1299.91 298.561C1299.31 297.991 1299.29 297.042 1299.86 296.441" fill="black"/></g><g id="Character"><g id="Blue"><path id="Path 4 (Stroke)" fill-rule="evenodd" clip-rule="evenodd" d="M951.476 1025.66L969.333 1285.62L879.529 1256.82L864.863 1059.4L951.476 1025.66ZM868.019 1061.39L882.371 1254.58L966.037 1281.41L948.762 1029.93L868.019 1061.39Z" fill="black"/><g id="Group 5"><path id="Fill 16" fill-rule="evenodd" clip-rule="evenodd" d="M815.246 1065.83L991.615 1046.94C989.957 1039.42 988.364 1031.89 986.654 1024.39L981.53 1001.92L978.969 990.687L976.321 979.484L971.022 957.098C963.804 927.292 956.445 897.588 948.705 867.966C947.295 858.423 944.024 849.616 939.336 841.88C934.607 834.134 928.516 827.49 921.362 822.213C907.114 811.707 888.842 806.744 870.155 809.964V809.964C851.457 813.192 835.79 823.428 825.435 837.513C820.278 844.527 816.402 852.54 814.216 861.058C811.994 869.597 811.42 878.684 812.787 887.935C813.799 917.631 814.431 947.353 814.909 977.011L815.153 999.252L815.27 1010.36L815.3 1021.47L815.359 1043.67C815.378 1051.06 815.28 1058.45 815.246 1065.83" fill="#2945ff"/><g id="Group 4"><path id="Fill 18" fill-rule="evenodd" clip-rule="evenodd" d="M894.314 853.388C896.892 853.248 898.882 851.027 898.729 848.428C898.577 845.828 896.36 843.838 893.779 843.985C891.198 844.131 889.228 846.354 889.379 848.946C889.536 851.539 891.73 853.528 894.314 853.388" fill="black"/><path id="Fill 20" fill-rule="evenodd" clip-rule="evenodd" d="M830.669 863.071C833.247 862.929 835.241 860.732 835.094 858.176C834.948 855.619 832.738 853.667 830.157 853.818C827.576 853.97 825.601 856.16 825.746 858.709C825.896 861.257 828.086 863.215 830.669 863.071" fill="black"/><path id="Fill 22" fill-rule="evenodd" clip-rule="evenodd" d="M929.686 891.993C932.269 891.879 934.261 889.669 934.134 887.053C934.007 884.438 931.811 882.415 929.227 882.535C926.644 882.654 924.654 884.867 924.779 887.476C924.905 890.086 927.102 892.107 929.686 891.993" fill="black"/><path id="Fill 24" fill-rule="evenodd" clip-rule="evenodd" d="M865.95 901.065C868.533 900.948 870.529 898.762 870.407 896.183C870.284 893.604 868.093 891.612 865.51 891.735C862.928 891.858 860.933 894.044 861.053 896.618C861.175 899.191 863.366 901.182 865.95 901.065" fill="black"/><path id="Fill 26" fill-rule="evenodd" clip-rule="evenodd" d="M906.478 938.925C909.061 938.833 911.081 936.652 910.989 934.05C910.897 931.451 908.73 929.421 906.147 929.519C903.564 929.616 901.544 931.8 901.635 934.394C901.726 936.989 903.894 939.017 906.478 938.925" fill="black"/><path id="Fill 28" fill-rule="evenodd" clip-rule="evenodd" d="M842.664 947.421C845.248 947.326 847.27 945.169 847.183 942.603C847.097 940.036 844.932 938.037 842.349 938.138C839.767 938.239 837.744 940.397 837.83 942.958C837.917 945.519 840.08 947.516 842.664 947.421" fill="black"/><path id="Fill 30" fill-rule="evenodd" clip-rule="evenodd" d="M941.13 978.159C943.715 978.092 945.751 975.917 945.676 973.3C945.6 970.683 943.444 968.62 940.86 968.692C938.276 968.765 936.241 970.941 936.315 973.552C936.39 976.164 938.545 978.225 941.13 978.159" fill="black"/><path id="Fill 32" fill-rule="evenodd" clip-rule="evenodd" d="M877.24 986.072C879.824 986.001 881.862 983.853 881.791 981.271C881.721 978.689 879.57 976.657 876.985 976.733C874.402 976.809 872.364 978.96 872.434 981.536C872.503 984.111 874.655 986.142 877.24 986.072" fill="black"/><path id="Fill 34" fill-rule="evenodd" clip-rule="evenodd" d="M917.086 1024.67C919.672 1024.63 921.726 1022.48 921.674 1019.88C921.622 1017.28 919.485 1015.21 916.9 1015.26C914.315 1015.31 912.26 1017.45 912.312 1020.05C912.363 1022.65 914.501 1024.71 917.086 1024.67" fill="black"/><path id="Fill 36" fill-rule="evenodd" clip-rule="evenodd" d="M853.123 1031.97C855.709 1031.93 857.766 1029.81 857.718 1027.25C857.671 1024.68 855.537 1022.65 852.952 1022.7C850.368 1022.75 848.31 1024.87 848.358 1027.43C848.405 1029.99 850.538 1032.02 853.123 1031.97" fill="black"/></g></g></g><g id="Black"><g id="Group 2"><path id="Fill 40" fill-rule="evenodd" clip-rule="evenodd" d="M1164.76 1501.29L1141.79 1428.52L1013.72 1022.62L1097.35 996.231L1225.43 1402.13L1248.39 1474.9L1164.76 1501.29Z" fill="white"/><path id="Fill 42" fill-rule="evenodd" clip-rule="evenodd" d="M1098.68 993.795L1227.33 1401.53L1250.9 1476.2L1163.45 1503.8L1139.89 1429.12L1011.23 1021.39L1098.68 993.795ZM1096.02 998.666L1016.2 1023.85L1143.7 1427.92L1166.06 1498.78L1245.88 1473.59L1223.52 1402.73L1096.02 998.666Z" fill="black"/><path id="Fill 46" fill-rule="evenodd" clip-rule="evenodd" d="M1245.91 1571.87C1245.82 1571.48 1245.71 1571.09 1245.58 1570.71C1242.62 1561.31 1232.56 1556.07 1223.16 1559.04C1213.76 1562 1208.53 1572.06 1211.49 1581.46C1211.61 1581.85 1211.75 1582.23 1211.9 1582.61L1192.36 1588.77L1141.79 1428.52L1130.31 1392.13L1213.98 1365.72L1225.46 1402.12L1261.77 1517.17C1261.93 1517.68 1262.29 1518.1 1262.76 1518.35C1263.23 1518.59 1263.77 1518.63 1264.28 1518.47C1264.29 1518.47 1264.44 1518.42 1264.44 1518.42C1265.77 1518 1277.82 1514.38 1291.19 1516.55C1307.77 1519.25 1319.22 1529.43 1325.27 1546.83L1245.91 1571.87Z" fill="white"/><path id="Fill 48" fill-rule="evenodd" clip-rule="evenodd" d="M1215.31 1363.29L1227.37 1401.52L1263.67 1516.56C1263.67 1516.56 1263.73 1516.55 1263.84 1516.51C1266.96 1515.52 1313.19 1501.81 1327.8 1548.13L1278.54 1563.68L1253.45 1571.59L1244.33 1574.47C1244.22 1573.42 1244.01 1572.36 1243.68 1571.31C1241.04 1562.95 1232.12 1558.31 1223.76 1560.95C1215.4 1563.58 1210.76 1572.5 1213.4 1580.86C1213.73 1581.91 1214.16 1582.9 1214.68 1583.83L1191.05 1591.28L1139.89 1429.12L1127.82 1390.89L1215.31 1363.29ZM1212.65 1368.16L1132.8 1393.36L1143.7 1427.92L1193.67 1586.26L1209.36 1581.31C1206.57 1571.08 1212.36 1560.35 1222.56 1557.13C1232.76 1553.91 1243.66 1559.38 1247.24 1569.36L1252.25 1567.78L1277.33 1559.86L1322.67 1545.56C1316.72 1530.08 1306.04 1520.99 1290.87 1518.53C1277.95 1516.43 1266.32 1519.92 1265.04 1520.33L1264.93 1520.36L1264.88 1520.38C1263.88 1520.69 1262.79 1520.6 1261.85 1520.12C1260.9 1519.64 1260.18 1518.79 1259.86 1517.77L1223.55 1402.72L1212.65 1368.16V1368.16Z" fill="black"/><path id="Stroke 50 (Stroke)" fill-rule="evenodd" clip-rule="evenodd" d="M1313.7 1528.9L1184.84 1569.57L1186.05 1573.38L1314.91 1532.72L1313.7 1528.9Z" fill="black"/><path id="Stroke 52 (Stroke)" fill-rule="evenodd" clip-rule="evenodd" d="M1242.13 1452.77C1232.05 1455.95 1226.47 1466.69 1229.64 1476.76C1232.82 1486.84 1243.56 1492.42 1253.64 1489.25L1252.43 1485.43C1244.47 1487.94 1235.97 1483.52 1233.46 1475.56L1233.46 1475.56C1230.95 1467.6 1235.37 1459.1 1243.33 1456.59L1242.13 1452.77Z" fill="black"/></g><g id="Group 3_2"><path id="Fill 38" fill-rule="evenodd" clip-rule="evenodd" d="M1076.31 865.806C1079.59 803.309 1022.78 749.53 949.42 745.685C876.064 741.841 813.942 789.387 810.666 851.884C807.391 914.381 864.203 968.161 937.559 972.006C1010.92 975.85 1073.04 928.303 1076.31 865.806" fill="black"/><path id="Fill 44" fill-rule="evenodd" clip-rule="evenodd" d="M1156.34 1018.96L987.18 1072.34L954.288 901.635C943.313 866.853 963.744 829.403 999.921 817.987C1036.1 806.571 1074.32 825.514 1085.3 860.296L1156.34 1018.96Z" fill="black"/></g></g><g id="Upper Body" transform="matrix(-0.99863 -0.052336 -0.052336 0.99863 1636.84 217.938) scale(1 1)"><g id="Upper Body/Saying Hi"><g id="left"><g id="Group"><path id="Fill 1" fill-rule="evenodd" clip-rule="evenodd" d="M1068.55 26.1068L969.744 22.9368C959.165 22.6188 950.303 28.9318 949.975 37.0428C945.63 121.194 937.804 205.564 903.778 281.582C886.315 319.992 854.956 358.504 809.139 355.266C787.473 354.788 766.777 342.042 745.222 355.502C709.23 372.919 688.02 419.886 722.503 450.496C744.67 468.868 776.077 470.748 804.868 473.225C857.803 475.831 911.626 455.37 949.801 418.632C1050.4 316.987 1061.39 160.775 1068.55 26.1068" fill="white"/><path id="Fill 3" fill-rule="evenodd" clip-rule="evenodd" d="M767.194 351.342C760.225 351.342 753.307 352.811 746.282 357.198C746.22 357.236 746.158 357.271 746.093 357.302C725.427 367.303 710.264 386.823 707.465 407.032C705.922 418.18 707.507 434.51 723.832 449C744.46 466.096 773.259 468.537 801.11 470.898L805.041 471.232C856.946 473.784 910.594 453.588 948.415 417.191C993.151 371.991 1023.86 312.154 1042.27 234.293C1057.85 168.369 1062.64 99.1159 1066.44 28.0399L969.68 24.9359C960.195 24.6559 952.256 30.1179 951.973 37.1229C947.972 114.621 940.761 203.854 905.604 282.399C895.593 304.418 882.738 322.788 868.422 335.536C850.523 351.473 830.529 358.783 808.999 357.261C801.96 357.108 794.921 355.653 788.114 354.246C780.995 352.774 774.069 351.342 767.194 351.342M813.816 475.444C810.796 475.444 807.784 475.371 804.77 475.223L800.773 474.883C772.307 472.471 742.873 469.976 721.227 452.036C703.529 436.327 701.826 418.598 703.504 406.483C706.476 385.018 722.467 364.33 744.255 353.748C759.541 344.254 774.479 347.342 788.923 350.328C795.555 351.699 802.413 353.117 809.183 353.266C829.707 354.715 848.699 347.742 865.761 332.549C879.665 320.169 892.181 302.259 901.959 280.754C936.829 202.849 943.997 114.053 947.978 36.9399C948.349 27.7759 958.116 20.5829 969.805 20.9379L1068.61 24.1079C1069.15 24.1249 1069.66 24.3579 1070.02 24.7539C1070.38 25.1509 1070.57 25.6759 1070.55 26.2129C1066.72 98.1909 1061.97 168.337 1046.16 235.214C1027.58 313.811 996.526 374.268 951.223 420.039C914.782 455.109 864.008 475.444 813.816 475.444" fill="black"/></g><g id="Group 2"><path id="Fill 5" fill-rule="evenodd" clip-rule="evenodd" d="M997.537 29.5232C998.051 15.6322 998.4 -0.470846 998.486 -14.3988C998.566 -32.8088 975.135 -32.8278 974.881 -14.6118C974.778 2.53415 974.304 21.2692 973.547 38.4272" fill="white"/><path id="Fill 7" fill-rule="evenodd" clip-rule="evenodd" d="M973.549 40.4271C973.519 40.4271 973.489 40.4261 973.459 40.4251C972.356 40.3761 971.5 39.4421 971.549 38.3391C972.307 21.1671 972.779 2.35806 972.881 -14.6239C973.026 -24.9649 980.06 -30.2859 986.875 -30.2399C995.856 -30.1579 1000.52 -22.2039 1000.49 -14.3899C1000.4 -0.443938 1000.05 15.5881 999.536 29.5971C999.495 30.7001 998.618 31.5591 997.463 31.5221C996.36 31.4811 995.498 30.5531 995.538 29.4491C996.055 15.4791 996.401 -0.507938 996.486 -14.4119C996.511 -20.0639 993.502 -26.1789 986.838 -26.2399C986.811 -26.2399 986.783 -26.2399 986.755 -26.2399C982.062 -26.2399 976.992 -22.6069 976.881 -14.5839C976.779 2.43106 976.305 21.2951 975.545 38.5151C975.498 39.5891 974.612 40.4271 973.549 40.4271" fill="black"/><path id="Fill 9" fill-rule="evenodd" clip-rule="evenodd" d="M997.539 29.5234C997.962 19.4844 998.146 6.67737 998.404 -3.40963C997.887 -13.0206 998.18 -28.3176 1010.4 -28.4736C1022.69 -28.2856 1022.66 -12.6826 1022.01 -3.04963C1021.74 7.20037 1021.57 20.1694 1021.13 30.3714" fill="white"/><g id="Group 13"><path id="Fill 11" fill-rule="evenodd" clip-rule="evenodd" d="M1021.13 32.3714C1021.1 32.3714 1021.07 32.3714 1021.04 32.3694C1019.94 32.3224 1019.08 31.3894 1019.13 30.2854C1019.43 23.4524 1019.6 15.4344 1019.76 7.68137C1019.84 3.92337 1019.92 0.264367 1020.01 -3.10163C1020.27 -7.08563 1021.07 -18.9576 1016.46 -23.9666C1014.95 -25.6146 1012.95 -26.4346 1010.37 -26.4736C1007.81 -26.4406 1005.79 -25.6166 1004.23 -23.9536C999.57 -18.9686 1000.2 -7.33863 1000.4 -3.51663C1000.4 -3.46363 1000.4 -3.41063 1000.4 -3.35863C1000.32 -0.265633 1000.25 3.08137 1000.18 6.52737C1000.01 14.4434 999.831 22.6284 999.537 29.6074C999.492 30.7114 998.574 31.5744 997.455 31.5214C996.352 31.4754 995.494 30.5424 995.541 29.4394C995.833 22.5004 996.009 14.3364 996.179 6.44137C996.253 3.01937 996.324 -0.305634 996.404 -3.38163C996.012 -10.7406 996.107 -21.1226 1001.31 -26.6866C1003.62 -29.1516 1006.67 -30.4266 1010.38 -30.4736C1014.12 -30.4176 1017.14 -29.1396 1019.41 -26.6766C1024.58 -21.0536 1024.51 -10.4226 1024 -2.91463C1023.92 0.363367 1023.84 4.01537 1023.76 7.76637C1023.6 15.5414 1023.42 23.5804 1023.13 30.4574C1023.08 31.5314 1022.2 32.3714 1021.13 32.3714" fill="black"/></g><path id="Fill 14" fill-rule="evenodd" clip-rule="evenodd" d="M1021.13 30.3712C1021.56 20.1832 1021.75 7.18725 1022.01 -3.04975C1021.5 -12.7058 1021.76 -28.2928 1034.01 -28.4478C1046.32 -28.2598 1046.25 -12.3678 1045.61 -2.68975C1045.34 7.71025 1045.16 20.8682 1044.72 31.2202" fill="white"/><path id="Fill 16" fill-rule="evenodd" clip-rule="evenodd" d="M1044.72 33.2197C1044.69 33.2197 1044.66 33.2197 1044.63 33.2177C1043.53 33.1707 1042.67 32.2377 1042.72 31.1337C1043.02 24.1787 1043.19 16.0187 1043.36 8.12774C1043.44 4.33974 1043.52 0.651734 1043.61 -2.74227C1044.07 -9.72027 1044.2 -19.4153 1040.02 -23.9523C1038.51 -25.5933 1036.53 -26.4093 1033.98 -26.4483C1031.45 -26.4153 1029.44 -25.5953 1027.89 -23.9413C1023.17 -18.9043 1023.8 -7.05027 1024 -3.15527C1024.01 -3.10327 1024.01 -3.05127 1024 -2.99927C1023.93 0.0977342 1023.85 3.44773 1023.78 6.89573C1023.61 14.9757 1023.43 23.3307 1023.13 30.4547C1023.08 31.5587 1022.16 32.4227 1021.04 32.3697C1019.94 32.3227 1019.08 31.3907 1019.13 30.2867C1019.43 23.2037 1019.61 14.8697 1019.78 6.80973C1019.85 3.38573 1019.93 0.0577335 1020 -3.02227C1019.61 -10.5093 1019.72 -21.0653 1024.97 -26.6763C1027.27 -29.1323 1030.3 -30.4013 1033.98 -30.4473C1037.7 -30.3923 1040.7 -29.1183 1042.96 -26.6633C1048.18 -20.9933 1048.11 -10.1903 1047.6 -2.55727C1047.52 0.750734 1047.44 4.43173 1047.36 8.21273C1047.19 16.1257 1047.02 24.3067 1046.72 31.3057C1046.67 32.3797 1045.79 33.2197 1044.72 33.2197" fill="black"/><path id="Fill 18" fill-rule="evenodd" clip-rule="evenodd" d="M972.903 52.489C972.924 43.615 974.922 32.191 973.235 23.438C968.794 9.22603 950.302 14.09 950.349 28.001C949.705 44.984 948.83 62.954 947.477 79.82" fill="white"/><path id="Fill 20" fill-rule="evenodd" clip-rule="evenodd" d="M947.478 81.8203C947.424 81.8203 947.371 81.8183 947.316 81.8143C946.215 81.7253 945.394 80.7613 945.483 79.6603C946.653 65.0653 947.564 48.6263 948.349 27.9253C948.319 19.4303 954.5 13.9853 960.623 13.0403C967.259 12.0133 972.961 15.8633 975.143 22.8413C975.165 22.9133 975.183 22.9863 975.198 23.0593C976.362 29.0993 975.863 36.1223 975.38 42.9153C975.137 46.3273 974.909 49.5493 974.902 52.4943C974.899 53.5973 974.004 54.4893 972.902 54.4893H972.897C971.792 54.4873 970.899 53.5893 970.902 52.4843C970.909 49.4033 971.143 46.1143 971.39 42.6313C971.851 36.1413 972.328 29.4313 971.291 23.9283C969.381 17.9693 964.861 16.4333 961.232 16.9933C956.938 17.6563 952.326 21.3823 952.348 27.9943C951.559 48.8353 950.645 65.3283 949.469 79.9803C949.386 81.0273 948.51 81.8203 947.478 81.8203" fill="black"/><path id="Fill 22" fill-rule="evenodd" clip-rule="evenodd" d="M1044.72 31.2198C1047.44 17.7208 1038.58 -16.7942 1057.54 -18.1582C1076.73 -16.5052 1066.8 18.4808 1068.31 32.0678" fill="white"/><g id="Group 26"><path id="Fill 24" fill-rule="evenodd" clip-rule="evenodd" d="M1068.31 34.0682C1067.3 34.0682 1066.44 33.3122 1066.32 32.2892C1065.9 28.4472 1066.33 23.0722 1066.79 17.3822C1068.27 -0.950779 1068.53 -15.0708 1057.52 -16.1508C1046.97 -15.2608 1046.56 -1.89678 1047.12 15.4692C1047.32 21.6462 1047.51 27.4802 1046.68 31.6142C1046.46 32.6972 1045.41 33.3982 1044.33 33.1802C1043.24 32.9632 1042.54 31.9082 1042.76 30.8262C1043.5 27.1472 1043.32 21.5372 1043.12 15.5992C1042.62 0.16422 1042 -19.0458 1057.39 -20.1528C1057.49 -20.1608 1057.6 -20.1598 1057.7 -20.1508C1073.72 -18.7718 1072.02 2.31022 1070.78 17.7042C1070.33 23.1982 1069.91 28.3872 1070.3 31.8472C1070.42 32.9442 1069.63 33.9332 1068.53 34.0562C1068.46 34.0642 1068.38 34.0682 1068.31 34.0682" fill="black"/></g></g></g><g id="torso"><path id="Fill 27" fill-rule="evenodd" clip-rule="evenodd" d="M828.396 669.994C829.416 680.917 820.822 690.351 809.851 690.351H514.112C504.449 690.351 496.277 683.197 495 673.618L510.308 405.873C506.031 373.792 530.99 345.285 563.355 345.285H756.78C798.71 345.597 831.762 383.122 828.305 424.846L828.396 669.994" fill="#2945ff"/><g id="Group 7"><path id="Fill 29" fill-rule="evenodd" clip-rule="evenodd" d="M595.544 375.377C589.47 375.446 589.5 365.905 595.574 366.014C601.648 365.945 601.618 375.486 595.544 375.377" fill="black"/><path id="Fill 31" fill-rule="evenodd" clip-rule="evenodd" d="M631.767 461.296C625.693 461.366 625.723 451.825 631.797 451.933C637.871 451.864 637.84 461.405 631.767 461.296" fill="black"/><path id="Fill 33" fill-rule="evenodd" clip-rule="evenodd" d="M598.271 501.148C592.197 501.217 592.227 491.676 598.301 491.785C604.375 491.716 604.344 501.257 598.271 501.148" fill="black"/><path id="Fill 35" fill-rule="evenodd" clip-rule="evenodd" d="M559.181 540.442C553.107 540.511 553.137 530.97 559.211 531.079C565.285 531.01 565.254 540.551 559.181 540.442" fill="black"/><path id="Fill 37" fill-rule="evenodd" clip-rule="evenodd" d="M623.24 546.827C617.166 546.897 617.196 537.356 623.27 537.464C629.344 537.395 629.313 546.936 623.24 546.827" fill="black"/><path id="Fill 41" fill-rule="evenodd" clip-rule="evenodd" d="M589.744 586.679C583.67 586.748 583.7 577.207 589.774 577.316C595.848 577.247 595.817 586.788 589.744 586.679" fill="black"/><path id="Fill 45" fill-rule="evenodd" clip-rule="evenodd" d="M614.716 632.359C608.642 632.428 608.672 622.888 614.746 622.996C620.82 622.927 620.79 632.468 614.716 632.359" fill="black"/><path id="Fill 49" fill-rule="evenodd" clip-rule="evenodd" d="M581.22 672.211C575.146 672.28 575.176 662.739 581.25 662.848C587.324 662.779 587.293 672.32 581.22 672.211" fill="black"/><path id="Fill 51" fill-rule="evenodd" clip-rule="evenodd" d="M765.857 375.763C759.783 375.833 759.813 366.292 765.887 366.4C771.961 366.331 771.931 375.872 765.857 375.763" fill="black"/><path id="Fill 53" fill-rule="evenodd" clip-rule="evenodd" d="M668.302 409.231C662.228 409.3 662.258 399.759 668.332 399.868C674.406 399.799 674.375 409.34 668.302 409.231" fill="black"/><path id="Fill 55" fill-rule="evenodd" clip-rule="evenodd" d="M732.361 415.616C726.287 415.685 726.317 406.144 732.391 406.253C738.465 406.184 738.435 415.725 732.361 415.616" fill="black"/><path id="Fill 57" fill-rule="evenodd" clip-rule="evenodd" d="M693.275 454.91C687.201 454.979 687.231 445.438 693.305 445.547C699.379 445.478 699.348 455.019 693.275 454.91" fill="black"/><path id="Fill 59" fill-rule="evenodd" clip-rule="evenodd" d="M757.333 461.296C751.259 461.366 751.289 451.825 757.363 451.933C763.437 451.864 763.407 461.405 757.333 461.296" fill="black"/><path id="Fill 61" fill-rule="evenodd" clip-rule="evenodd" d="M659.779 494.762C653.705 494.831 653.735 485.29 659.809 485.399C665.883 485.33 665.852 494.871 659.779 494.762" fill="black"/><path id="Fill 63" fill-rule="evenodd" clip-rule="evenodd" d="M723.837 501.148C717.763 501.217 717.793 491.676 723.867 491.785C729.941 491.716 729.911 501.257 723.837 501.148" fill="black"/><path id="Fill 65" fill-rule="evenodd" clip-rule="evenodd" d="M684.748 540.442C678.674 540.511 678.704 530.97 684.778 531.079C690.852 531.01 690.822 540.551 684.748 540.442" fill="black"/><path id="Fill 67" fill-rule="evenodd" clip-rule="evenodd" d="M748.806 546.827C742.732 546.897 742.762 537.356 748.835 537.464C754.91 537.395 754.879 546.936 748.806 546.827" fill="black"/><path id="Fill 69" fill-rule="evenodd" clip-rule="evenodd" d="M651.251 580.294C645.177 580.364 645.207 570.823 651.281 570.931C657.355 570.862 657.324 580.403 651.251 580.294" fill="black"/><path id="Fill 71" fill-rule="evenodd" clip-rule="evenodd" d="M715.313 586.679C709.24 586.748 709.27 577.207 715.343 577.316C721.417 577.247 721.387 586.788 715.313 586.679" fill="black"/><path id="Fill 73" fill-rule="evenodd" clip-rule="evenodd" d="M676.22 625.974C670.146 626.043 670.176 616.502 676.25 616.611C682.324 616.542 682.294 626.083 676.22 625.974" fill="black"/><path id="Fill 75" fill-rule="evenodd" clip-rule="evenodd" d="M740.283 632.359C734.209 632.428 734.239 622.888 740.313 622.996C746.387 622.927 746.356 632.468 740.283 632.359" fill="black"/><path id="Fill 77" fill-rule="evenodd" clip-rule="evenodd" d="M642.728 665.826C636.654 665.896 636.684 656.355 642.758 656.463C648.832 656.394 648.802 665.935 642.728 665.826" fill="black"/><path id="Fill 79" fill-rule="evenodd" clip-rule="evenodd" d="M706.787 672.211C700.713 672.28 700.743 662.739 706.817 662.848C712.891 662.779 712.86 672.32 706.787 672.211" fill="black"/><path id="Fill 81" fill-rule="evenodd" clip-rule="evenodd" d="M793.869 409.231C787.795 409.3 787.825 399.759 793.899 399.868C799.973 399.799 799.943 409.34 793.869 409.231" fill="black"/><path id="Fill 83" fill-rule="evenodd" clip-rule="evenodd" d="M818.841 454.91C812.768 454.979 812.798 445.438 818.871 445.547C824.945 445.478 824.915 455.019 818.841 454.91" fill="black"/><path id="Fill 85" fill-rule="evenodd" clip-rule="evenodd" d="M785.345 494.762C779.271 494.831 779.302 485.29 785.375 485.399C791.449 485.33 791.419 494.871 785.345 494.762" fill="black"/><path id="Fill 87" fill-rule="evenodd" clip-rule="evenodd" d="M810.314 540.442C804.24 540.511 804.27 530.97 810.344 531.079C816.418 531.01 816.387 540.551 810.314 540.442" fill="black"/><path id="Fill 89" fill-rule="evenodd" clip-rule="evenodd" d="M776.822 580.294C770.748 580.364 770.778 570.823 776.852 570.931C782.926 570.862 782.895 580.403 776.822 580.294" fill="black"/><path id="Fill 91" fill-rule="evenodd" clip-rule="evenodd" d="M801.791 625.974C795.717 626.043 795.747 616.502 801.821 616.611C807.895 616.542 807.864 626.083 801.791 625.974" fill="black"/><path id="Fill 93" fill-rule="evenodd" clip-rule="evenodd" d="M768.294 665.826C762.22 665.896 762.25 656.355 768.324 656.463C774.398 656.394 774.367 665.935 768.294 665.826" fill="black"/></g><g id="Group 8"><path id="Fill 95" fill-rule="evenodd" clip-rule="evenodd" d="M736.265 341.038C738.795 405.771 621.929 395.008 620.047 341.035C620.158 281.651 736.167 281.657 736.265 341.038" fill="white"/><path id="Fill 97" fill-rule="evenodd" clip-rule="evenodd" d="M678.154 298C639.312 298 621.584 320.308 621.546 341.038C622.03 354.914 630.703 367.041 645.965 375.129C668.236 386.932 698.873 387.13 717.233 375.587C729.288 368.008 735.35 356.082 734.764 341.097L734.763 341.041C734.729 320.314 717.004 298.004 678.165 298H678.154ZM683.582 387.08C670.181 387.08 656.251 383.976 644.559 377.78C628.309 369.168 619.071 356.137 618.547 341.088C618.572 326.754 625.091 314.775 637.395 306.392C648.176 299.046 662.653 295 678.156 295H678.165C693.67 295.002 708.145 299.049 718.925 306.398C731.217 314.776 737.731 326.744 737.763 341.008C738.385 357.114 731.839 369.948 718.83 378.127C709.331 384.099 696.711 387.08 683.582 387.08V387.08Z" fill="black"/></g></g><g id="right"><g id="arm"><path id="Fill 99" fill-rule="evenodd" clip-rule="evenodd" d="M416 932.667L514.835 934.517C524.117 934.794 533.861 929.305 534.357 919.969C537.048 825.38 544.976 730.177 559.207 636.521C569.765 568.178 587.669 497.653 617.269 435.448C628.276 413.279 617.302 386.489 600.64 369.809C575.434 340.564 527.182 348.73 511.008 384.062C489.23 429.537 473.939 475.77 461.577 523.794C449.99 569.454 441.89 618.226 435.952 664.956C424.627 753.702 417.779 843.175 416 932.667" fill="white"/><path id="Fill 101" fill-rule="evenodd" clip-rule="evenodd" d="M418.04 930.705L514.872 932.517C523.155 932.767 531.923 928.098 532.36 919.863C535.144 821.937 543.513 726.489 557.229 636.221C569.259 558.351 588.852 490.514 615.463 434.588C623.247 418.91 621.235 393.257 599.225 371.222C599.19 371.188 599.156 371.152 599.125 371.115C588.057 358.274 571.126 352.074 553.835 354.53C535.681 357.107 520.351 368.458 512.826 384.895C493.011 426.273 477.347 470.558 463.514 524.293C453.174 565.041 444.807 611.137 437.936 665.208C426.534 754.56 419.841 843.873 418.04 930.705M515.505 936.527C515.262 936.527 515.019 936.523 514.775 936.516L415.963 934.667C415.432 934.657 414.927 934.436 414.559 934.054C414.19 933.671 413.99 933.158 414 932.627C415.742 845.024 422.46 754.882 433.968 664.703C440.859 610.47 449.256 564.217 459.639 523.302C473.539 469.303 489.288 424.786 509.204 383.198C517.283 365.549 533.763 353.339 553.272 350.569C571.893 347.924 590.144 354.608 602.106 368.447C611.054 377.421 617.85 388.623 621.247 399.998C625.143 413.044 624.387 425.61 619.06 436.337C592.63 491.881 573.152 559.346 561.184 636.827C547.492 726.929 539.139 822.213 536.356 920.027C535.801 930.497 525.45 936.527 515.505 936.527" fill="black"/><path id="Fill 103" fill-rule="evenodd" clip-rule="evenodd" d="M486.914 928.29C486.633 942.948 486.408 957.617 486.478 972.237C485.794 983.285 499.233 991.13 506.707 981.889C508.814 979.392 510.107 975.941 510.086 972.144C510.045 954.525 510.266 936.745 510.766 918.968" fill="white"/><path id="Fill 105" fill-rule="evenodd" clip-rule="evenodd" d="M498.689 987.987C497.154 987.987 495.578 987.688 494.005 987.076C488.02 984.748 484.112 978.631 484.481 972.183C484.41 957.253 484.648 942.245 484.917 928.252C484.938 927.16 485.829 926.29 486.916 926.29C486.929 926.29 486.942 926.29 486.955 926.29C488.059 926.311 488.937 927.224 488.917 928.328C488.648 942.318 488.41 957.318 488.481 972.228C488.481 972.272 488.48 972.317 488.477 972.361C488.133 977.911 491.853 981.947 495.456 983.348C499.082 984.76 502.618 983.768 505.155 980.631C507.074 978.356 508.107 975.357 508.088 972.156C508.047 954.351 508.276 936.439 508.769 918.912C508.799 917.827 509.689 916.968 510.767 916.968C510.786 916.968 510.805 916.968 510.825 916.969C511.928 917 512.798 917.92 512.767 919.024C512.276 936.511 512.047 954.382 512.088 972.14C512.112 976.286 510.745 980.209 508.238 983.179C505.694 986.325 502.307 987.987 498.689 987.987" fill="black"/><path id="Fill 107" fill-rule="evenodd" clip-rule="evenodd" d="M486.915 928.29C486.634 942.948 486.409 957.617 486.479 972.237C486.513 979.985 481.335 986.32 474.821 986.466C468.3 986.612 462.907 980.248 462.873 972.33C462.802 957.448 463.028 942.617 463.313 927.781" fill="white"/><path id="Fill 109" fill-rule="evenodd" clip-rule="evenodd" d="M474.605 988.468C471.419 988.468 468.327 987.161 465.87 984.769C462.715 981.697 460.893 977.166 460.873 972.339C460.799 957.099 461.042 941.898 461.313 927.742C461.334 926.651 462.226 925.78 463.312 925.78C463.326 925.78 463.338 925.78 463.351 925.781C464.456 925.802 465.334 926.715 465.313 927.819C465.042 941.95 464.799 957.122 464.873 972.321C464.889 976.082 466.269 979.574 468.661 981.903C470.434 983.63 472.545 984.504 474.776 984.466C480.155 984.346 484.507 978.864 484.479 972.246C484.407 957.295 484.646 942.266 484.915 928.251C484.936 927.16 485.827 926.29 486.914 926.29C486.927 926.29 486.94 926.29 486.953 926.29C488.057 926.311 488.935 927.224 488.915 928.328C488.646 942.317 488.408 957.318 488.479 972.228C488.517 981.161 482.538 988.293 474.866 988.465C474.779 988.467 474.692 988.468 474.605 988.468" fill="black"/><path id="Fill 111" fill-rule="evenodd" clip-rule="evenodd" d="M463.314 927.78C463.029 942.617 462.802 957.448 462.874 972.33C462.932 979.446 458.433 986.623 451.219 986.915C443.907 986.912 439.273 979.621 439.267 972.423C439.195 957.279 439.424 942.286 439.712 927.271" fill="white"/><path id="Fill 113" fill-rule="evenodd" clip-rule="evenodd" d="M451.3 988.913C444.367 988.912 437.276 982.743 437.267 972.424C437.193 956.968 437.438 941.569 437.712 927.233C437.734 926.141 438.624 925.271 439.711 925.271C439.725 925.271 439.737 925.271 439.75 925.271C440.855 925.292 441.733 926.205 441.712 927.309C441.437 941.621 441.194 956.991 441.267 972.413C441.272 978.428 445.078 984.913 451.22 984.915C457.295 984.668 460.923 978.33 460.873 972.346C460.8 957.099 461.042 941.898 461.314 927.742C461.335 926.651 462.227 925.78 463.313 925.78C463.326 925.78 463.339 925.78 463.352 925.781C464.456 925.802 465.334 926.714 465.314 927.819C465.042 941.95 464.8 957.121 464.873 972.32C464.938 980.201 459.879 988.567 451.3 988.913" fill="black"/><path id="Fill 115" fill-rule="evenodd" clip-rule="evenodd" d="M511.189 904.774C510.873 912.73 510.749 920.672 510.522 928.621C510.238 946.791 533.668 947.186 534.124 929.131C534.522 912.103 535.121 893.421 535.944 876.334" fill="white"/><path id="Fill 117" fill-rule="evenodd" clip-rule="evenodd" d="M522.258 944.462C522.168 944.462 522.079 944.461 521.99 944.459C512.988 944.275 508.401 936.337 508.522 928.589C508.601 925.803 508.667 923.043 508.734 920.283C508.857 915.178 508.984 909.9 509.191 904.694C509.234 903.591 510.168 902.736 511.268 902.775C512.372 902.819 513.231 903.75 513.187 904.853C512.982 910.027 512.855 915.29 512.733 920.379C512.666 923.145 512.6 925.911 512.521 928.678C512.397 936.628 517.385 940.364 522.071 940.46C526.77 940.555 531.923 937.036 532.124 929.081C532.571 909.969 533.201 891.695 533.946 876.238C533.999 875.134 534.933 874.275 536.04 874.337C537.143 874.389 537.994 875.327 537.942 876.43C537.198 891.856 536.57 910.095 536.122 929.178C535.868 939.262 529 944.462 522.258 944.462" fill="black"/><path id="Fill 119" fill-rule="evenodd" clip-rule="evenodd" d="M439.712 927.271L439.41 944.702C438.924 954.813 442.474 976.083 427.491 976.822C412.273 976.25 416.066 954.536 415.806 944.397C415.805 944.398 416.11 926.761 416.11 926.761" fill="white"/><path id="Fill 121" fill-rule="evenodd" clip-rule="evenodd" d="M427.492 978.822C427.467 978.822 427.442 978.822 427.417 978.821C412.742 978.269 413.323 961.384 413.707 950.211C413.78 948.086 413.849 946.078 413.807 944.449L413.846 944.448C413.815 943.848 413.831 942.965 413.854 941.607L414.111 926.727C414.131 925.623 415.025 924.741 416.145 924.762C417.25 924.781 418.13 925.692 418.111 926.796C418.111 926.796 417.821 943.486 417.806 944.387C417.849 946.128 417.779 948.178 417.705 950.348C417.253 963.48 417.679 974.388 427.48 974.82C437.047 974.285 437.636 963.659 437.405 950.876C437.364 948.592 437.325 946.435 437.413 944.606L437.713 927.237C437.732 926.132 438.667 925.245 439.747 925.271C440.851 925.291 441.731 926.201 441.713 927.306L441.411 944.737C441.327 946.495 441.365 948.588 441.405 950.804C441.6 961.679 441.897 978.114 427.591 978.82C427.557 978.821 427.525 978.822 427.492 978.822" fill="black"/></g></g></g></g><g id="Hairstyle" transform="matrix(-0.99863 -0.052336 -0.052336 0.99863 1008.05 331.185) scale(1 1)"><g id="Hairstyle/Bob"><g id="hair"><g id="Group"><path id="Hair" fill-rule="evenodd" clip-rule="evenodd" d="M128.731 85.0769C128.731 117.704 98.57 144.154 61.365 144.154C24.16 144.154 -6 117.704 -6 85.0769C-6 52.4499 24.16 25.9999 61.365 25.9999C98.57 25.9999 128.731 52.4499 128.731 85.0769" fill="black"/><path id="Hair_2" fill-rule="evenodd" clip-rule="evenodd" d="M128.731 165.669H34.704C12.224 165.669 -6 147.445 -6 124.964V85.0765H128.731V165.669Z" fill="black"/></g></g><g id="head"><path id="Fill 6" fill-rule="evenodd" clip-rule="evenodd" d="M65.4174 206.168V206.168C46.4604 206.168 28.9834 191.63 28.9834 174.273L45.0934 114.61C45.0934 97.253 40.4604 83.182 59.4174 83.182H79.4174C98.3744 83.182 93.7414 97.253 93.7414 114.61V174.74C93.7414 192.097 84.3744 206.168 65.4174 206.168" fill="white"/><path id="Fill 8" fill-rule="evenodd" clip-rule="evenodd" d="M30.9854 174.533C31.1584 190.35 47.1744 204.168 65.4184 204.168C84.8274 204.168 91.7424 188.967 91.7424 174.74V114.61C91.7424 111.562 91.8804 108.666 92.0144 105.865C92.3814 98.158 92.6994 91.503 89.5194 88.168C87.6034 86.159 84.2994 85.182 79.4184 85.182H59.4184C54.5374 85.182 51.2324 86.159 49.3174 88.168C46.1374 91.503 46.4544 98.158 46.8224 105.865C46.9554 108.666 47.0944 111.562 47.0944 114.61V114.876L30.9854 174.533ZM65.4184 208.168C44.9434 208.168 26.9844 192.329 26.9844 174.273V174.008L43.0934 114.346C43.0864 111.488 42.9544 108.727 42.8264 106.055C42.4154 97.431 42.0604 89.983 46.4224 85.408C49.1334 82.564 53.3844 81.182 59.4184 81.182H79.4184C85.4524 81.182 89.7034 82.564 92.4144 85.408C96.7764 89.983 96.4214 97.431 96.0094 106.055C95.8784 108.81 95.7424 111.658 95.7424 114.61V174.74C95.7424 195.047 83.8394 208.168 65.4184 208.168V208.168Z" fill="black"/><path id="Fill 10" fill-rule="evenodd" clip-rule="evenodd" d="M131.754 106.673C131.754 115.086 124.934 121.906 116.521 121.906C108.108 121.906 101.288 115.086 101.288 106.673C101.288 98.2599 108.108 91.4399 116.521 91.4399C124.934 91.4399 131.754 98.2599 131.754 106.673" fill="white"/><g id="Group 14"><path id="Fill 12" fill-rule="evenodd" clip-rule="evenodd" d="M116.521 93.44C109.224 93.44 103.288 99.376 103.288 106.673C103.288 113.97 109.224 119.906 116.521 119.906C123.818 119.906 129.754 113.97 129.754 106.673C129.754 99.376 123.818 93.44 116.521 93.44M116.521 123.906C107.019 123.906 99.2881 116.175 99.2881 106.673C99.2881 97.171 107.019 89.44 116.521 89.44C126.023 89.44 133.754 97.171 133.754 106.673C133.754 116.175 126.023 123.906 116.521 123.906" fill="black"/></g><path id="Fill 15" fill-rule="evenodd" clip-rule="evenodd" d="M77.0175 154.1C59.5495 154.1 43.7875 143.741 36.8605 127.708L36.2105 126.203C26.6485 104.072 36.8745 78.2879 59.0055 68.7259C64.5305 66.3399 70.3575 65.1299 76.3265 65.1299C93.7935 65.1299 109.557 75.4899 116.483 91.5219L117.133 93.0269C121.765 103.748 121.945 115.631 117.64 126.486C113.334 137.342 105.059 145.872 94.3375 150.504C88.8135 152.89 82.9865 154.1 77.0175 154.1" fill="white"/><path id="Fill 17" fill-rule="evenodd" clip-rule="evenodd" d="M76.327 63.1299H76.326C70.082 63.1299 63.988 64.3959 58.212 66.8909C47.001 71.7339 38.348 80.6539 33.845 92.0059C29.343 103.359 29.53 115.785 34.374 126.996L35.024 128.501C42.268 145.267 58.751 156.1 77.017 156.1C83.26 156.1 89.354 154.835 95.13 152.339C106.341 147.496 114.995 138.576 119.497 127.224C124 115.871 123.812 103.445 118.968 92.2339L118.318 90.7289C111.075 73.9629 94.592 63.1299 76.327 63.1299M76.326 67.1299C92.469 67.1299 107.837 76.5539 114.646 92.3159L115.296 93.8199C124.435 114.973 114.696 139.529 93.544 148.668H93.543C88.152 150.997 82.539 152.1 77.017 152.1C60.874 152.1 45.506 142.676 38.696 126.915L38.046 125.41C28.907 104.257 38.646 79.7009 59.799 70.5629V70.5629C65.19 68.2329 70.804 67.1299 76.326 67.1299" fill="black"/><path id="Fill 19" fill-rule="evenodd" clip-rule="evenodd" d="M36.065 121.906C27.652 121.906 20.832 115.086 20.832 106.673C20.832 98.2598 27.652 91.4398 36.065 91.4398C37.117 91.4398 38.143 91.5468 39.135 91.7498" fill="white"/><path id="Fill 21" fill-rule="evenodd" clip-rule="evenodd" d="M36.065 123.906C26.563 123.906 18.832 116.175 18.832 106.673C18.832 97.1708 26.563 89.4398 36.065 89.4398C37.232 89.4398 38.4 89.5578 39.536 89.7898C40.618 90.0118 41.316 91.0678 41.094 92.1508C40.873 93.2328 39.816 93.9298 38.734 93.7088C37.862 93.5308 36.964 93.4398 36.065 93.4398C28.768 93.4398 22.832 99.3758 22.832 106.673C22.832 113.97 28.768 119.906 36.065 119.906C37.17 119.906 38.065 120.802 38.065 121.906C38.065 123.01 37.17 123.906 36.065 123.906" fill="black"/></g><circle id="Oval" cx="52" cy="65.5" r="31" fill="black"/><path id="Path 3" fill-rule="evenodd" clip-rule="evenodd" d="M80.7627 63.1299C80.7627 63.1299 94.2476 93.44 118.728 93.44C143.209 93.44 80.7627 63.1299 80.7627 63.1299Z" fill="black"/><path id="Fill 9" fill-rule="evenodd" clip-rule="evenodd" d="M83.1474 123.992H90.7084C92.7934 123.992 94.3374 120.961 93.8714 117.782L90.6874 96.0426C89.9484 90.9976 85.4234 90.7156 84.4294 95.6516L80.0524 117.391C79.3944 120.662 80.9554 123.992 83.1474 123.992" fill="#2945ff"/></g></g><g id="Face" transform="matrix(-0.99863 -0.052336 -0.052336 0.99863 983.371 420.015) scale(122 129)"><g id="Face/None" stroke="none" stroke-width="1" fill="none" fill-rule="evenodd" fill-opacity="0"/></g><g id="Expression" transform="matrix(-0.99863 -0.052336 -0.052336 0.99863 955.881 409.562) scale(1 1)"><g id="Expression/Excited"><path id="Fill 1" fill-rule="evenodd" clip-rule="evenodd" d="M38.5958 62.6487C34.2848 63.0647 30.4528 59.9066 30.0368 55.5956C29.6208 51.2846 32.7788 47.4527 37.0898 47.0367C41.4008 46.6217 45.2328 49.7787 45.6488 54.0897C46.0648 58.4007 42.9068 62.2327 38.5958 62.6487" fill="black"/><path id="Fill 6" fill-rule="evenodd" clip-rule="evenodd" d="M30.965 17.6485C29.861 17.6485 28.965 16.7535 28.965 15.6485C28.965 14.2135 27.255 12.0005 24.983 12.0005C22.71 12.0005 21 14.2135 21 15.6485C21 16.7535 20.105 17.6485 19 17.6485C17.896 17.6485 17 16.7535 17 15.6485C17 12.1115 20.487 8.0005 24.983 8.0005C29.478 8.0005 32.965 12.1115 32.965 15.6485C32.965 16.7535 32.069 17.6485 30.965 17.6485" fill="black"/><path id="Fill 9" fill-rule="evenodd" clip-rule="evenodd" d="M56.8712 17.6485C55.7672 17.6485 54.8712 16.7535 54.8712 15.6485C54.8712 14.2135 53.1612 12.0005 50.8892 12.0005C48.6172 12.0005 46.9072 14.2135 46.9072 15.6485C46.9072 16.7535 46.0112 17.6485 44.9072 17.6485C43.8022 17.6485 42.9072 16.7535 42.9072 15.6485C42.9072 12.1115 46.3932 8.0005 50.8892 8.0005C55.3842 8.0005 58.8712 12.1115 58.8712 15.6485C58.8712 16.7535 57.9752 17.6485 56.8712 17.6485" fill="black"/></g></g><g id="Glasses" transform="matrix(-0.99863 -0.052336 -0.052336 0.99863 975.535 397.574) scale(1 1)"><g id="Glasses/Round Glasses"><path id="Shape" fill-rule="evenodd" clip-rule="evenodd" d="M77.2 10C86.553 10 94.162 17.609 94.162 26.962C94.162 36.316 86.553 43.925 77.2 43.925C67.847 43.925 60.238 36.316 60.238 26.962C60.238 26.3961 60.2659 25.8365 60.3203 25.2846C59.1176 24.4202 57.9788 24.7444 57.224 25.1805C57.2869 25.7661 57.3184 26.3604 57.3184 26.962C57.3184 36.316 49.7094 43.925 40.3564 43.925C31.0181 43.925 23.4184 36.34 23.3945 27.0062L12 27.0063C10.895 27.0063 10 26.1113 10 25.0063C10 23.9013 10.895 23.0063 12 23.0063L23.86 23.0065C25.6466 15.555 32.3649 10 40.3564 10C47.6929 10 53.9564 14.6817 56.3161 21.2145C57.7784 20.6606 59.5139 20.5111 61.2354 21.2273C63.5911 14.6884 69.8583 10 77.2 10ZM40.3564 14C33.2094 14 27.3944 19.815 27.3944 26.962C27.3944 34.11 33.2094 39.925 40.3564 39.925C47.5044 39.925 53.3184 34.11 53.3184 26.962C53.3184 19.815 47.5044 14 40.3564 14ZM77.2 14C70.053 14 64.238 19.815 64.238 26.962C64.238 34.11 70.053 39.925 77.2 39.925C84.347 39.925 90.162 34.11 90.162 26.962C90.162 19.815 84.347 14 77.2 14Z" fill="#2945ff"/></g></g></g><g id="Emojis" transform="matrix(-1 0 0 1 859 201) scale(1 1)"><g id="Emojis/Expressions"><g id="Group 205"><g id="Box"><path id="Combined-Shape" fill-rule="evenodd" clip-rule="evenodd" d="M10 251.82L42.89 212.49H220C222.917 212.49 225.715 211.331 227.778 209.268C229.841 207.205 231 204.407 231 201.49V41C231 38.0826 229.841 35.2847 227.778 33.2218C225.715 31.1589 222.917 30 220 30H21C18.0826 30 15.2847 31.1589 13.2218 33.2218C11.1589 35.2847 10 38.0826 10 41V251.82Z" fill="white"/><path id="Combined-Shape-Copy" d="M21 27H220C223.713 27 227.274 28.475 229.899 31.1005C232.525 33.726 234 37.287 234 41V201.81C233.916 205.467 232.405 208.947 229.788 211.503C227.172 214.06 223.658 215.491 220 215.49H44.29L12.29 253.75C11.8934 254.219 11.3626 254.554 10.7692 254.712C10.1759 254.869 9.54848 254.841 8.97177 254.63C8.39505 254.42 7.89677 254.038 7.54417 253.535C7.19157 253.033 7.00164 252.434 7 251.82V41C7 37.287 8.475 33.726 11.1005 31.1005C13.726 28.475 17.287 27 21 27V27ZM21 33H20.75C18.6719 33.065 16.7007 33.9364 15.2541 35.4297C13.8074 36.923 12.999 38.9209 13 41V243.56L40.59 210.56C40.871 210.223 41.2226 209.951 41.62 209.764C42.0174 209.578 42.451 209.481 42.89 209.48H220C222.122 209.48 224.157 208.637 225.657 207.137C227.157 205.637 228 203.602 228 201.48V41C228 38.8783 227.157 36.8434 225.657 35.3431C224.157 33.8429 222.122 33 220 33H21Z" fill="black"/></g><path id="Oval" d="M123 173C152.271 173 176 149.271 176 120C176 90.7289 152.271 67 123 67C93.7289 67 70 90.7289 70 120C70 149.271 93.7289 173 123 173Z" fill="white"/><path id="Oval-Copy" d="M123 67C133.482 67 143.729 70.1084 152.445 75.9321C161.161 81.7558 167.954 90.0333 171.966 99.7178C175.977 109.402 177.027 120.059 174.982 130.34C172.937 140.621 167.889 150.064 160.477 157.477C153.064 164.889 143.621 169.937 133.34 171.982C123.059 174.027 112.402 172.977 102.718 168.966C93.0333 164.954 84.7558 158.161 78.9321 149.445C73.1084 140.729 70 130.482 70 120C70 105.944 75.5839 92.4628 85.5233 82.5233C95.4628 72.5839 108.944 67 123 67V67ZM123 73C113.704 73 104.617 75.7565 96.8882 80.9209C89.1591 86.0854 83.135 93.4258 79.5777 102.014C76.0203 110.602 75.0896 120.052 76.9031 129.169C78.7166 138.286 83.1929 146.661 89.766 153.234C96.3391 159.807 104.714 164.283 113.831 166.097C122.948 167.91 132.398 166.98 140.986 163.422C149.574 159.865 156.915 153.841 162.079 146.112C167.243 138.383 170 129.296 170 120C170 107.535 165.048 95.5802 156.234 86.766C147.42 77.9518 135.465 73 123 73Z" fill="black"/><g id="Expressions"><path id="Fill 1" fill-rule="evenodd" clip-rule="evenodd" d="M123.596 150.649C119.285 151.065 115.453 147.907 115.037 143.596C114.621 139.285 117.779 135.453 122.09 135.037C126.401 134.622 130.233 137.779 130.649 142.09C131.065 146.401 127.907 150.233 123.596 150.649" fill="black"/><path id="Fill 6" fill-rule="evenodd" clip-rule="evenodd" d="M115.965 105.649C114.861 105.649 113.965 104.754 113.965 103.649C113.965 102.214 112.255 100.001 109.983 100.001C107.71 100.001 106 102.214 106 103.649C106 104.754 105.105 105.649 104 105.649C102.896 105.649 102 104.754 102 103.649C102 100.112 105.487 96.0005 109.983 96.0005C114.478 96.0005 117.965 100.112 117.965 103.649C117.965 104.754 117.069 105.649 115.965 105.649" fill="black"/><path id="Fill 9" fill-rule="evenodd" clip-rule="evenodd" d="M141.871 105.649C140.767 105.649 139.871 104.754 139.871 103.649C139.871 102.214 138.161 100.001 135.889 100.001C133.617 100.001 131.907 102.214 131.907 103.649C131.907 104.754 131.011 105.649 129.907 105.649C128.802 105.649 127.907 104.754 127.907 103.649C127.907 100.112 131.393 96.0005 135.889 96.0005C140.384 96.0005 143.871 100.112 143.871 103.649C143.871 104.754 142.975 105.649 141.871 105.649" fill="black"/></g></g></g></g></g></svg>