<svg viewBox="-213.86249999999995 123.42168674698792 1877.2375000000002 1471.566265060241" fill="none" xmlns="http://www.w3.org/2000/svg" xmlns:xlink="http://www.w3.org/1999/xlink" overflow="visible" width="1877.2375000000002px" height="1471.566265060241px"><g id="Master/Compositions/Doctor Prescription"><g id="Background Elements Medicine" transform="translate(473 214) scale(1 1)"><g id="Background Elements Medicine/Test Tube 2"><g id="Round Test Tube"><path id="Combined Shape" fill-rule="evenodd" clip-rule="evenodd" d="M939.583 694.934L939.578 72H716.422L716.417 694.934C581.762 741.21 485 868.908 485 1019.19C485 1208.52 638.566 1362 828 1362C1017.43 1362 1171 1208.52 1171 1019.19C1171 868.908 1074.24 741.21 939.583 694.934ZM722.421 78H933.578L933.583 699.217L937.633 700.609L941.668 702.024C1074.41 749.529 1165 875.719 1165 1019.19C1165 1205.21 1014.12 1356 828 1356C641.879 1356 491 1205.21 491 1019.19C491 874.269 583.427 746.982 718.367 700.609L722.417 699.217L722.421 78Z" fill="black"/><ellipse id="Oval Copy 25" cx="827.5" cy="1129" rx="271.5" ry="161" fill="black"/><path id="Rectangle Copy 65 (Stroke)" fill-rule="evenodd" clip-rule="evenodd" d="M656 0H1003V76H656V0ZM659 3V73H1000V3H659Z" fill="black"/><path id="Rectangle Copy 73" fill-rule="evenodd" clip-rule="evenodd" d="M653 -3H1003V76H653V-3ZM997 70V3H659V70H997Z" fill="black"/></g><g id="Group-Copy"><g id="Medicine-1"><g id="Rectangle"><path id="Vector" d="M533.5 1010H310.5V1068H533.5V1010Z" fill="white"/></g><g id="Rectangle-Copy-5"><path id="Vector_2" d="M536.5 1007H307.5V1071H536.5V1007ZM530.5 1013V1065H313.5V1013H530.5Z" fill="black"/></g><g id="Rectangle_2"><path id="Vector_3" d="M516 1045.5H327C303.804 1045.5 285 1064.3 285 1087.5V1315.5C285 1338.7 303.804 1357.5 327 1357.5H516C539.196 1357.5 558 1338.7 558 1315.5V1087.5C558 1064.3 539.196 1045.5 516 1045.5Z" fill="white"/><path id="Vector_4" d="M516 1359H327C315.466 1358.99 304.408 1354.4 296.253 1346.25C288.097 1338.09 283.511 1327.03 283.5 1315.5V1087.5C283.511 1075.97 288.097 1064.91 296.253 1056.75C304.408 1048.6 315.466 1044.01 327 1044H516C527.534 1044.01 538.592 1048.6 546.747 1056.75C554.903 1064.91 559.489 1075.97 559.5 1087.5V1315.5C559.489 1327.03 554.903 1338.09 546.747 1346.25C538.592 1354.4 527.534 1358.99 516 1359ZM327 1047C316.263 1047.01 305.969 1051.28 298.377 1058.88C290.784 1066.47 286.513 1076.76 286.5 1087.5V1315.5C286.513 1326.24 290.784 1336.53 298.377 1344.12C305.969 1351.72 316.263 1355.99 327 1356H516C526.737 1355.99 537.031 1351.72 544.623 1344.12C552.216 1336.53 556.487 1326.24 556.5 1315.5V1087.5C556.487 1076.76 552.216 1066.47 544.623 1058.88C537.031 1051.28 526.737 1047.01 516 1047H327Z" fill="black"/></g><g id="Rectangle-Copy-6"><path id="Vector_5" d="M517.5 1044C528.639 1044 539.322 1048.42 547.198 1056.3C555.075 1064.18 559.5 1074.86 559.5 1086V1317C559.5 1328.14 555.075 1338.82 547.198 1346.7C539.322 1354.58 528.639 1359 517.5 1359H325.5C319.984 1359 314.523 1357.91 309.427 1355.8C304.332 1353.69 299.702 1350.6 295.802 1346.7C291.901 1342.8 288.808 1338.17 286.697 1333.07C284.586 1327.98 283.5 1322.52 283.5 1317V1086C283.5 1074.86 287.925 1064.18 295.802 1056.3C303.678 1048.42 314.361 1044 325.5 1044H517.5ZM517.5 1050H325.5C316.055 1050 306.988 1053.71 300.254 1060.33C293.52 1066.95 289.657 1075.96 289.5 1085.4V1317C289.499 1326.44 293.209 1335.51 299.831 1342.25C306.453 1348.98 315.457 1352.84 324.9 1353H517.5C526.945 1353 536.012 1349.29 542.746 1342.67C549.48 1336.05 553.343 1327.04 553.5 1317.6V1086C553.501 1076.56 549.791 1067.49 543.169 1060.75C536.547 1054.02 527.543 1050.16 518.1 1050H517.5Z" fill="black"/></g><g id="Rectangle_3"><path id="Vector_6" d="M559.5 940H283.5V1027H559.5V940Z" fill="white"/></g><g id="Rectangle-Copy-4"><path id="Vector_7" d="M562.5 937H280.5V1030H562.5V937ZM556.5 943V1024H286.5V943H556.5Z" fill="black"/></g><g id="Rectangle_4"><path id="Vector_8" d="M557.5 1128H286.5V1295H557.5V1128Z" fill="white"/></g><g id="Rectangle-Copy"><path id="Vector_9" d="M560.5 1125H283.5V1298H560.5V1125ZM554.5 1131V1292H289.5V1131H554.5Z" fill="black"/></g><g id="Rectangle-Copy-2"><path id="Vector_10" d="M559 1126.5H285V1296.5H559V1126.5ZM556 1129.5V1293.5H288V1129.5H556Z" fill="black"/></g></g><g id="Pill"><g id="Rectangle_5"><path id="Vector_11" fill-rule="evenodd" clip-rule="evenodd" d="M571.5 1272H650.5C662.036 1272 673.099 1276.59 681.256 1284.74C689.413 1292.9 693.997 1303.96 694 1315.5V1315.5C693.997 1327.04 689.413 1338.1 681.256 1346.26C673.099 1354.41 662.036 1359 650.5 1359H571.5C559.964 1359 548.901 1354.41 540.744 1346.26C532.587 1338.1 528.003 1327.04 528 1315.5V1315.5C528.003 1303.96 532.587 1292.9 540.744 1284.74C548.901 1276.59 559.964 1272 571.5 1272V1272Z" fill="white"/><path id="Vector_12" d="M650.5 1362H571.5C559.167 1362 547.34 1357.1 538.62 1348.38C529.899 1339.66 525 1327.83 525 1315.5C525 1303.17 529.899 1291.34 538.62 1282.62C547.34 1273.9 559.167 1269 571.5 1269H650.5C662.833 1269 674.66 1273.9 683.38 1282.62C692.101 1291.34 697 1303.17 697 1315.5C697 1327.83 692.101 1339.66 683.38 1348.38C674.66 1357.1 662.833 1362 650.5 1362V1362ZM571.5 1275C560.759 1275 550.457 1279.27 542.862 1286.86C535.267 1294.46 531 1304.76 531 1315.5C531 1326.24 535.267 1336.54 542.862 1344.14C550.457 1351.73 560.759 1356 571.5 1356H650.5C661.241 1356 671.543 1351.73 679.138 1344.14C686.733 1336.54 691 1326.24 691 1315.5C691 1304.76 686.733 1294.46 679.138 1286.86C671.543 1279.27 661.241 1275 650.5 1275H571.5Z" fill="black"/></g><g id="Rectangle-Copy-7"><path id="Vector_13" fill-rule="evenodd" clip-rule="evenodd" d="M571.5 1272H650.5C662.036 1272 673.099 1276.59 681.256 1284.74C689.413 1292.9 693.997 1303.96 694 1315.5V1315.5C693.997 1327.04 689.413 1338.1 681.256 1346.26C673.099 1354.41 662.036 1359 650.5 1359H571.5C559.964 1359 548.901 1354.41 540.744 1346.26C532.587 1338.1 528.003 1327.04 528 1315.5V1315.5C528.003 1303.96 532.587 1292.9 540.744 1284.74C548.901 1276.59 559.964 1272 571.5 1272V1272Z" fill="white"/><path id="Vector_14" d="M650.5 1362H571.5C559.167 1362 547.34 1357.1 538.62 1348.38C529.899 1339.66 525 1327.83 525 1315.5C525 1303.17 529.899 1291.34 538.62 1282.62C547.34 1273.9 559.167 1269 571.5 1269H650.5C662.833 1269 674.66 1273.9 683.38 1282.62C692.101 1291.34 697 1303.17 697 1315.5C697 1327.83 692.101 1339.66 683.38 1348.38C674.66 1357.1 662.833 1362 650.5 1362V1362ZM571.5 1275C560.759 1275 550.457 1279.27 542.862 1286.86C535.267 1294.46 531 1304.76 531 1315.5C531 1326.24 535.267 1336.54 542.862 1344.14C550.457 1351.73 560.759 1356 571.5 1356H650.5C661.241 1356 671.543 1351.73 679.138 1344.14C686.733 1336.54 691 1326.24 691 1315.5C691 1304.76 686.733 1294.46 679.138 1286.86C671.543 1279.27 661.241 1275 650.5 1275H571.5Z" fill="black"/></g><g id="Rectangle-Copy-9"><path id="Vector_15" d="M650.5 1269H571.5C559.167 1269 547.34 1273.9 538.62 1282.62C529.899 1291.34 525 1303.17 525 1315.5C525 1327.83 529.899 1339.66 538.62 1348.38C547.34 1357.1 559.167 1362 571.5 1362H650.5C662.833 1362 674.66 1357.1 683.38 1348.38C692.101 1339.66 697 1327.83 697 1315.5C697 1303.17 692.101 1291.34 683.38 1282.62C674.66 1273.9 662.833 1269 650.5 1269ZM571.5 1275H650.5C661.241 1275 671.543 1279.27 679.138 1286.86C686.733 1294.46 691 1304.76 691 1315.5C691 1326.24 686.733 1336.54 679.138 1344.14C671.543 1351.73 661.241 1356 650.5 1356H571.5C560.759 1356 550.457 1351.73 542.862 1344.14C535.267 1336.54 531 1326.24 531 1315.5C531 1304.76 535.267 1294.46 542.862 1286.86C550.457 1279.27 560.759 1275 571.5 1275V1275Z" fill="black"/></g><g id="Combined-Shape"><path id="Vector_16" fill-rule="evenodd" clip-rule="evenodd" d="M611 1272V1359H571.5C559.963 1359 548.899 1354.42 540.741 1346.26C532.583 1338.1 528 1327.04 528 1315.5C528 1303.96 532.583 1292.9 540.741 1284.74C548.899 1276.58 559.963 1272 571.5 1272H611Z" fill="black"/></g></g><g id="Pill-2"><g id="Rectangle_6"><path id="Vector_17" fill-rule="evenodd" clip-rule="evenodd" d="M453.5 1272H532.5C544.036 1272 555.099 1276.59 563.256 1284.74C571.413 1292.9 575.997 1303.96 576 1315.5V1315.5C575.997 1327.04 571.413 1338.1 563.256 1346.26C555.099 1354.41 544.036 1359 532.5 1359H453.5C441.964 1359 430.901 1354.41 422.744 1346.26C414.587 1338.1 410.003 1327.04 410 1315.5V1315.5C410.003 1303.96 414.587 1292.9 422.744 1284.74C430.901 1276.59 441.964 1272 453.5 1272V1272Z" fill="white"/><path id="Vector_18" d="M532.5 1362H453.5C441.167 1362 429.34 1357.1 420.62 1348.38C411.899 1339.66 407 1327.83 407 1315.5C407 1303.17 411.899 1291.34 420.62 1282.62C429.34 1273.9 441.167 1269 453.5 1269H532.5C544.833 1269 556.66 1273.9 565.38 1282.62C574.101 1291.34 579 1303.17 579 1315.5C579 1327.83 574.101 1339.66 565.38 1348.38C556.66 1357.1 544.833 1362 532.5 1362V1362ZM453.5 1275C442.759 1275 432.457 1279.27 424.862 1286.86C417.267 1294.46 413 1304.76 413 1315.5C413 1326.24 417.267 1336.54 424.862 1344.14C432.457 1351.73 442.759 1356 453.5 1356H532.5C543.241 1356 553.543 1351.73 561.138 1344.14C568.733 1336.54 573 1326.24 573 1315.5C573 1304.76 568.733 1294.46 561.138 1286.86C553.543 1279.27 543.241 1275 532.5 1275H453.5Z" fill="black"/></g><g id="Rectangle-Copy-8"><path id="Vector_19" fill-rule="evenodd" clip-rule="evenodd" d="M453.5 1272H532.5C544.036 1272 555.099 1276.59 563.256 1284.74C571.413 1292.9 575.997 1303.96 576 1315.5V1315.5C575.997 1327.04 571.413 1338.1 563.256 1346.26C555.099 1354.41 544.036 1359 532.5 1359H453.5C441.964 1359 430.901 1354.41 422.744 1346.26C414.587 1338.1 410.003 1327.04 410 1315.5V1315.5C410.003 1303.96 414.587 1292.9 422.744 1284.74C430.901 1276.59 441.964 1272 453.5 1272V1272Z" fill="white"/><path id="Vector_20" d="M532.5 1362H453.5C441.167 1362 429.34 1357.1 420.62 1348.38C411.899 1339.66 407 1327.83 407 1315.5C407 1303.17 411.899 1291.34 420.62 1282.62C429.34 1273.9 441.167 1269 453.5 1269H532.5C544.833 1269 556.66 1273.9 565.38 1282.62C574.101 1291.34 579 1303.17 579 1315.5C579 1327.83 574.101 1339.66 565.38 1348.38C556.66 1357.1 544.833 1362 532.5 1362V1362ZM453.5 1275C442.759 1275 432.457 1279.27 424.862 1286.86C417.267 1294.46 413 1304.76 413 1315.5C413 1326.24 417.267 1336.54 424.862 1344.14C432.457 1351.73 442.759 1356 453.5 1356H532.5C543.241 1356 553.543 1351.73 561.138 1344.14C568.733 1336.54 573 1326.24 573 1315.5C573 1304.76 568.733 1294.46 561.138 1286.86C553.543 1279.27 543.241 1275 532.5 1275H453.5Z" fill="black"/></g><g id="Rectangle-Copy-10"><path id="Vector_21" d="M532.5 1269H453.5C441.167 1269 429.34 1273.9 420.62 1282.62C411.899 1291.34 407 1303.17 407 1315.5C407 1327.83 411.899 1339.66 420.62 1348.38C429.34 1357.1 441.167 1362 453.5 1362H532.5C544.833 1362 556.66 1357.1 565.38 1348.38C574.101 1339.66 579 1327.83 579 1315.5C579 1303.17 574.101 1291.34 565.38 1282.62C556.66 1273.9 544.833 1269 532.5 1269ZM453.5 1275H532.5C543.241 1275 553.543 1279.27 561.138 1286.86C568.733 1294.46 573 1304.76 573 1315.5C573 1326.24 568.733 1336.54 561.138 1344.14C553.543 1351.73 543.241 1356 532.5 1356H453.5C442.759 1356 432.457 1351.73 424.862 1344.14C417.267 1336.54 413 1326.24 413 1315.5C413 1304.76 417.267 1294.46 424.862 1286.86C432.457 1279.27 442.759 1275 453.5 1275V1275Z" fill="black"/></g><g id="Combined-Shape_2"><path id="Vector_22" fill-rule="evenodd" clip-rule="evenodd" d="M493 1272V1359H453.5C441.963 1359 430.899 1354.42 422.741 1346.26C414.583 1338.1 410 1327.04 410 1315.5C410 1303.96 414.583 1292.9 422.741 1284.74C430.899 1276.58 441.963 1272 453.5 1272H493Z" fill="black"/></g></g><g id="Pill-3"><g id="Rectangle_7"><path id="Vector_23" fill-rule="evenodd" clip-rule="evenodd" d="M186.5 1272H107.5C95.9639 1272 84.901 1276.59 76.7438 1284.74C68.5865 1292.9 64.0027 1303.96 64 1315.5V1315.5C64.0027 1327.04 68.5865 1338.1 76.7438 1346.26C84.901 1354.41 95.9639 1359 107.5 1359H186.5C198.036 1359 209.099 1354.41 217.256 1346.26C225.413 1338.1 229.997 1327.04 230 1315.5V1315.5C229.997 1303.96 225.413 1292.9 217.256 1284.74C209.099 1276.59 198.036 1272 186.5 1272V1272Z" fill="white"/><path id="Vector_24" d="M186.5 1362H107.5C95.1674 1362 83.34 1357.1 74.6195 1348.38C65.8991 1339.66 61 1327.83 61 1315.5C61 1303.17 65.8991 1291.34 74.6195 1282.62C83.34 1273.9 95.1674 1269 107.5 1269H186.5C198.833 1269 210.66 1273.9 219.38 1282.62C228.101 1291.34 233 1303.17 233 1315.5C233 1327.83 228.101 1339.66 219.38 1348.38C210.66 1357.1 198.833 1362 186.5 1362V1362ZM107.5 1275C96.7587 1275 86.4574 1279.27 78.8622 1286.86C71.267 1294.46 67 1304.76 67 1315.5C67 1326.24 71.267 1336.54 78.8622 1344.14C86.4574 1351.73 96.7587 1356 107.5 1356H186.5C197.241 1356 207.543 1351.73 215.138 1344.14C222.733 1336.54 227 1326.24 227 1315.5C227 1304.76 222.733 1294.46 215.138 1286.86C207.543 1279.27 197.241 1275 186.5 1275H107.5Z" fill="black"/></g><g id="Rectangle-Copy-11"><path id="Vector_25" d="M107.5 1269H186.5C198.833 1269 210.66 1273.9 219.38 1282.62C228.101 1291.34 233 1303.17 233 1315.5C233 1327.83 228.101 1339.66 219.38 1348.38C210.66 1357.1 198.833 1362 186.5 1362H107.5C95.1674 1362 83.34 1357.1 74.6195 1348.38C65.8991 1339.66 61 1327.83 61 1315.5C61 1303.17 65.8991 1291.34 74.6195 1282.62C83.34 1273.9 95.1674 1269 107.5 1269V1269ZM186.5 1275H107.5C96.7587 1275 86.4574 1279.27 78.8622 1286.86C71.267 1294.46 67 1304.76 67 1315.5C67 1326.24 71.267 1336.54 78.8622 1344.14C86.4574 1351.73 96.7587 1356 107.5 1356H186.5C197.241 1356 207.543 1351.73 215.138 1344.14C222.733 1336.54 227 1326.24 227 1315.5C227 1304.76 222.733 1294.46 215.138 1286.86C207.543 1279.27 197.241 1275 186.5 1275V1275Z" fill="black"/></g><g id="Combined-Shape_3"><path id="Vector_26" fill-rule="evenodd" clip-rule="evenodd" d="M147 1272V1359H186.5C198.037 1359 209.101 1354.42 217.259 1346.26C225.417 1338.1 230 1327.04 230 1315.5C230 1303.96 225.417 1292.9 217.259 1284.74C209.101 1276.58 198.037 1272 186.5 1272H147Z" fill="black"/></g></g><g id="Medicine-2"><g id="Rectangle-Copy-62"><path id="Vector_27" d="M312.5 1065H218.5V1114H312.5V1065Z" fill="white"/><path id="Vector_28" d="M315.5 1117H215.5V1062H315.5V1117ZM221.5 1111H309.5V1068H221.5V1111Z" fill="black"/></g><g id="Rectangle-Copy-64"><path id="Vector_29" d="M312.5 1065H218.5V1114H312.5V1065Z" fill="white"/></g><g id="Rectangle-Copy-65"><path id="Vector_30" d="M315.5 1062H215.5V1117H315.5V1062ZM309.5 1068V1111H221.5V1068H309.5Z" fill="black"/></g><g id="Rectangle-Copy-63"><path id="Vector_31" d="M295 1094.5H236C212.804 1094.5 194 1113.3 194 1136.5V1315.5C194 1338.7 212.804 1357.5 236 1357.5H295C318.196 1357.5 337 1338.7 337 1315.5V1136.5C337 1113.3 318.196 1094.5 295 1094.5Z" fill="white"/><path id="Vector_32" d="M295 1359H236C224.466 1358.99 213.408 1354.4 205.253 1346.25C197.097 1338.09 192.511 1327.03 192.5 1315.5V1136.5C192.511 1124.97 197.097 1113.91 205.253 1105.75C213.408 1097.6 224.466 1093.01 236 1093H295C306.534 1093.01 317.592 1097.6 325.747 1105.75C333.903 1113.91 338.489 1124.97 338.5 1136.5V1315.5C338.489 1327.03 333.903 1338.09 325.747 1346.25C317.592 1354.4 306.534 1358.99 295 1359V1359ZM236 1096C225.263 1096.01 214.969 1100.28 207.377 1107.88C199.784 1115.47 195.513 1125.76 195.5 1136.5V1315.5C195.513 1326.24 199.784 1336.53 207.377 1344.12C214.969 1351.72 225.263 1355.99 236 1356H295C305.737 1355.99 316.031 1351.72 323.623 1344.12C331.216 1336.53 335.487 1326.24 335.5 1315.5V1136.5C335.487 1125.76 331.216 1115.47 323.623 1107.88C316.031 1100.28 305.737 1096.01 295 1096H236Z" fill="black"/></g><g id="Rectangle-Copy-71"><path id="Vector_33" d="M296.5 1093C307.639 1093 318.322 1097.42 326.198 1105.3C334.075 1113.18 338.5 1123.86 338.5 1135V1317C338.5 1322.52 337.414 1327.98 335.303 1333.07C333.192 1338.17 330.099 1342.8 326.198 1346.7C322.298 1350.6 317.668 1353.69 312.573 1355.8C307.477 1357.91 302.016 1359 296.5 1359H234.5C228.984 1359 223.523 1357.91 218.427 1355.8C213.332 1353.69 208.702 1350.6 204.802 1346.7C200.901 1342.8 197.808 1338.17 195.697 1333.07C193.586 1327.98 192.5 1322.52 192.5 1317V1135C192.5 1123.86 196.925 1113.18 204.802 1105.3C212.678 1097.42 223.361 1093 234.5 1093H296.5ZM296.5 1099H234.5C225.055 1099 215.988 1102.71 209.254 1109.33C202.52 1115.95 198.657 1124.96 198.5 1134.4V1317C198.499 1326.44 202.209 1335.51 208.831 1342.25C215.453 1348.98 224.457 1352.84 233.9 1353H296.5C305.945 1353 315.012 1349.29 321.746 1342.67C328.48 1336.05 332.343 1327.04 332.5 1317.6V1135C332.501 1125.56 328.791 1116.49 322.169 1109.75C315.547 1103.02 306.543 1099.16 297.1 1099H296.5Z" fill="black"/></g><g id="Rectangle-Copy-66"><path id="Vector_34" d="M338.5 1038H192.5V1078H338.5V1038Z" fill="white"/><path id="Vector_35" d="M341.5 1081H189.5V1035H341.5V1081ZM195.5 1075H335.5V1041H195.5V1075Z" fill="black"/></g><g id="Rectangle-Copy-70"><path id="Vector_36" d="M341.5 1035H189.5V1081H341.5V1035ZM335.5 1041V1075H195.5V1041H335.5Z" fill="black"/></g><g id="Rectangle-Copy-67"><path id="Vector_37" d="M336.5 1164H194.5V1306H336.5V1164Z" fill="white"/></g><g id="Rectangle-Copy-72"><path id="Vector_38" d="M339.5 1161H191.5V1309H339.5V1161ZM333.5 1167V1303H197.5V1167H333.5Z" fill="black"/></g><g id="Rectangle-Copy-69"><path id="Vector_39" d="M338 1162.5H193V1307.5H338V1162.5ZM335 1165.5V1304.5H196V1165.5H335Z" fill="black"/></g></g></g><g id="Pill_2"><path id="Rectangle (Stroke)" fill-rule="evenodd" clip-rule="evenodd" d="M1001.5 1321.5C1001.5 1295.82 1022.32 1275 1048 1275H1127C1152.68 1275 1173.5 1295.82 1173.5 1321.5C1173.5 1347.18 1152.68 1368 1127 1368H1048C1022.32 1368 1001.5 1347.18 1001.5 1321.5ZM1048 1281C1025.63 1281 1007.5 1299.13 1007.5 1321.5C1007.5 1343.87 1025.63 1362 1048 1362H1127C1149.37 1362 1167.5 1343.87 1167.5 1321.5C1167.5 1299.13 1149.37 1281 1127 1281H1048Z" fill="black"/><path id="Rectangle Copy 7 (Stroke)" fill-rule="evenodd" clip-rule="evenodd" d="M1001.5 1321.5C1001.5 1295.82 1022.32 1275 1048 1275H1127C1152.68 1275 1173.5 1295.82 1173.5 1321.5C1173.5 1347.18 1152.68 1368 1127 1368H1048C1022.32 1368 1001.5 1347.18 1001.5 1321.5ZM1048 1281C1025.63 1281 1007.5 1299.13 1007.5 1321.5C1007.5 1343.87 1025.63 1362 1048 1362H1127C1149.37 1362 1167.5 1343.87 1167.5 1321.5C1167.5 1299.13 1149.37 1281 1127 1281H1048Z" fill="black"/><path id="Rectangle Copy 9" fill-rule="evenodd" clip-rule="evenodd" d="M1045 1272H1124C1149.68 1272 1170.5 1292.82 1170.5 1318.5C1170.5 1344.18 1149.68 1365 1124 1365H1045C1019.32 1365 998.5 1344.18 998.5 1318.5C998.5 1292.82 1019.32 1272 1045 1272ZM1124 1278H1045C1022.63 1278 1004.5 1296.13 1004.5 1318.5C1004.5 1340.87 1022.63 1359 1045 1359H1124C1146.37 1359 1164.5 1340.87 1164.5 1318.5C1164.5 1296.13 1146.37 1278 1124 1278Z" fill="black"/><path id="Combined Shape_2" fill-rule="evenodd" clip-rule="evenodd" d="M1084.5 1275H1045C1020.98 1275 1001.5 1294.48 1001.5 1318.5C1001.5 1342.52 1020.98 1362 1045 1362H1084.5V1275Z" fill="black"/></g></g></g><g id="Master/Character/Standing" transform="translate(-84 0) scale(1 1)"><g id="Master/Character/Standing"><g id="Lower Body" transform="translate(-104 695) scale(1 1)"><g id="Lower Body/Plaid Pants"><g id="blue"><g id="shoe"><path id="Fill 1" fill-rule="evenodd" clip-rule="evenodd" d="M781.636 879.337C782.655 854.272 744.946 854.284 745.97 879.337H725.484V672.08H813.218C813.22 696.381 813.217 805.432 813.218 831.936C813.194 833.08 814.259 834.041 815.393 833.935C836.485 833.062 866.089 849.281 864.849 879.337H781.636Z" fill="white"/><g id="Group 5"><path id="Fill 3" fill-rule="evenodd" clip-rule="evenodd" d="M815.218 670.105V831.935C818.692 831.951 866.796 832.642 866.877 881.336H779.351C783.244 856.317 744.356 856.332 748.255 881.336H723.484V670.105H815.218ZM811.218 674.054H727.484V877.336H743.945C744.93 852.365 782.681 852.38 783.661 877.336H862.757C863.098 849.624 834.435 835.065 815.391 835.936C813.185 836.063 811.173 834.151 811.218 831.935C811.218 806.236 811.218 697.601 811.218 674.054V674.054Z" fill="black"/></g><path id="Fill 6" fill-rule="evenodd" clip-rule="evenodd" d="M725.406 861.251H860.53V857.251H725.406V861.251Z" fill="black"/><path id="Fill 8" fill-rule="evenodd" clip-rule="evenodd" d="M815.172 826.734C802.838 826.678 796.386 817.071 796.387 807.611C796.388 798.149 802.841 788.543 815.172 788.489L815.19 792.489C805.02 792.533 800.388 800.359 800.387 807.611C800.386 814.862 805.018 822.688 815.19 822.734L815.172 826.734Z" fill="black"/></g><path id="Fill 9" fill-rule="evenodd" clip-rule="evenodd" d="M842.345 789.603H704.968C705.301 764.731 704.728 183.237 704.969 137.328C704.968 99.8706 735.721 69.5076 773.657 69.5076C811.592 69.5076 842.345 99.8706 842.345 137.326C842.475 185.314 842.251 762.696 842.345 789.603" fill="#2945ff"/><g id="stripes"><path id="Fill 10" fill-rule="evenodd" clip-rule="evenodd" d="M722.783 791.603C721.679 791.603 720.783 790.707 720.783 789.603V89.2537C720.783 88.1487 721.679 87.2537 722.783 87.2537C723.887 87.2537 724.783 88.1487 724.783 89.2537V789.603C724.783 790.707 723.887 791.603 722.783 791.603" fill="black"/><path id="Fill 11" fill-rule="evenodd" clip-rule="evenodd" d="M756.699 791.603C755.594 791.603 754.699 790.707 754.699 789.603V69.5076C754.699 68.4026 755.594 67.5076 756.699 67.5076C757.804 67.5076 758.699 68.4026 758.699 69.5076V789.603C758.699 790.707 757.804 791.603 756.699 791.603" fill="black"/><path id="Fill 12" fill-rule="evenodd" clip-rule="evenodd" d="M790.615 791.603C789.51 791.603 788.615 790.707 788.615 789.603V69.5076C788.615 68.4026 789.51 67.5076 790.615 67.5076C791.72 67.5076 792.615 68.4026 792.615 69.5076V789.603C792.615 790.707 791.72 791.603 790.615 791.603" fill="black"/><path id="Fill 13" fill-rule="evenodd" clip-rule="evenodd" d="M824.531 791.603C823.427 791.603 822.531 790.707 822.531 789.603V89.2537C822.531 88.1487 823.427 87.2537 824.531 87.2537C825.635 87.2537 826.531 88.1487 826.531 89.2537V789.603C826.531 790.707 825.635 791.603 824.531 791.603" fill="black"/><path id="Fill 14" fill-rule="evenodd" clip-rule="evenodd" d="M842.002 132.513H704.969C703.864 132.513 702.969 131.617 702.969 130.513C702.969 129.409 703.864 128.513 704.969 128.513H842.002C843.107 128.513 844.002 129.409 844.002 130.513C844.002 131.617 843.107 132.513 842.002 132.513" fill="black"/><path id="Fill 15" fill-rule="evenodd" clip-rule="evenodd" d="M842.002 215.667H704.969C703.864 215.667 702.969 214.771 702.969 213.667C702.969 212.563 703.864 211.667 704.969 211.667H842.002C843.107 211.667 844.002 212.563 844.002 213.667C844.002 214.771 843.107 215.667 842.002 215.667" fill="black"/><path id="Fill 16" fill-rule="evenodd" clip-rule="evenodd" d="M842.002 298.819H704.969C703.864 298.819 702.969 297.923 702.969 296.819C702.969 295.715 703.864 294.819 704.969 294.819H842.002C843.107 294.819 844.002 295.715 844.002 296.819C844.002 297.923 843.107 298.819 842.002 298.819" fill="black"/><path id="Fill 17" fill-rule="evenodd" clip-rule="evenodd" d="M842.002 381.972H704.969C703.864 381.972 702.969 381.076 702.969 379.972C702.969 378.868 703.864 377.972 704.969 377.972H842.002C843.107 377.972 844.002 378.868 844.002 379.972C844.002 381.076 843.107 381.972 842.002 381.972" fill="black"/><path id="Fill 18" fill-rule="evenodd" clip-rule="evenodd" d="M842.002 465.125H704.969C703.864 465.125 702.969 464.229 702.969 463.125C702.969 462.021 703.864 461.125 704.969 461.125H842.002C843.107 461.125 844.002 462.021 844.002 463.125C844.002 464.229 843.107 465.125 842.002 465.125" fill="black"/><path id="Fill 19" fill-rule="evenodd" clip-rule="evenodd" d="M842.002 548.277H704.969C703.864 548.277 702.969 547.381 702.969 546.277C702.969 545.173 703.864 544.277 704.969 544.277H842.002C843.107 544.277 844.002 545.173 844.002 546.277C844.002 547.381 843.107 548.277 842.002 548.277" fill="black"/><path id="Fill 20" fill-rule="evenodd" clip-rule="evenodd" d="M842.002 631.43H704.969C703.864 631.43 702.969 630.534 702.969 629.43C702.969 628.326 703.864 627.43 704.969 627.43H842.002C843.107 627.43 844.002 628.326 844.002 629.43C844.002 630.534 843.107 631.43 842.002 631.43" fill="black"/><path id="Fill 21" fill-rule="evenodd" clip-rule="evenodd" d="M842.002 714.625H704.969C703.864 714.625 702.969 713.729 702.969 712.625C702.969 711.521 703.864 710.625 704.969 710.625H842.002C843.107 710.625 844.002 711.521 844.002 712.625C844.002 713.729 843.107 714.625 842.002 714.625" fill="black"/></g></g><g id="black"><g id="shoe_2"><path id="Fill 23" fill-rule="evenodd" clip-rule="evenodd" d="M608.697 787.602H696.394V272.84H608.697V787.602Z" fill="white"/><path id="Fill 24" fill-rule="evenodd" clip-rule="evenodd" d="M606.697 789.603H698.394V270.859H606.697V789.603ZM610.697 785.602H694.394V274.82H610.697V785.602Z" fill="black"/><path id="Fill 25" fill-rule="evenodd" clip-rule="evenodd" d="M640.241 879.337C639.222 854.272 676.931 854.283 675.907 879.337H696.393V671.983H608.659C608.696 697.789 608.632 804.086 608.659 831.935C608.683 833.079 607.617 834.041 606.485 833.935C585.392 833.062 555.788 849.28 557.028 879.337H640.241Z" fill="white"/><path id="Fill 26" fill-rule="evenodd" clip-rule="evenodd" d="M606.659 670.002V831.935C603.185 831.951 555.081 832.642 555 881.336H642.526C638.633 856.317 677.521 856.332 673.622 881.336H698.393V670.002H606.659ZM610.659 673.964H694.393V877.336H677.933C676.947 852.365 639.196 852.38 638.216 877.336H559.12C558.779 849.625 587.442 835.065 606.486 835.936C608.692 836.064 610.704 834.151 610.659 831.935C610.658 804.873 610.659 699.032 610.659 673.964V673.964Z" fill="black"/><path id="Fill 27" fill-rule="evenodd" clip-rule="evenodd" d="M561.348 861.251H696.471V857.251H561.348V861.251Z" fill="black"/><path id="Fill 28" fill-rule="evenodd" clip-rule="evenodd" d="M606.705 826.734L606.688 822.734C616.859 822.688 621.492 814.862 621.491 807.611C621.49 800.359 616.858 792.533 606.688 792.489L606.705 788.489C619.037 788.543 625.489 798.149 625.49 807.611C625.491 817.071 619.039 826.678 606.705 826.734" fill="black"/><path id="Fill 29" fill-rule="evenodd" clip-rule="evenodd" d="M608.697 787.602H696.394V272.839H608.697V787.602Z" fill="white"/><path id="Fill 30" fill-rule="evenodd" clip-rule="evenodd" d="M606.697 789.603H698.394V270.859H606.697V789.603ZM610.697 785.602H694.394V274.82H610.697V785.602Z" fill="black"/></g><g id="leg"><path id="Fill 22" fill-rule="evenodd" clip-rule="evenodd" d="M579.037 112.038C579.495 -36.0219 844.618 -36.0069 845.049 112.046C844.592 260.098 579.469 260.083 579.037 112.038" fill="black"/><path id="Fill 31" fill-rule="evenodd" clip-rule="evenodd" d="M579.284 789.602H716.661C716.241 768.732 716.964 178.653 716.66 135.562C716.661 97.9905 685.908 67.5325 647.972 67.5325C610.037 67.5325 579.284 97.9905 579.284 135.561C579.143 180.341 579.385 767.072 579.284 789.602" fill="black"/></g></g></g></g><g id="Upper Body" transform="translate(-53 129) scale(1 1)"><g id="Upper Body/Handshake"><g id="left"><g id="Group 2"><path id="Fill 1" fill-rule="evenodd" clip-rule="evenodd" d="M1182.8 625.657C1174.28 507.238 1202.41 539.011 1093.57 529.117L1084.62 623.12C1117.15 626.233 1150.2 627.035 1182.8 625.657" fill="white"/><path id="Fill 3" fill-rule="evenodd" clip-rule="evenodd" d="M1086.81 621.317C1117.58 624.171 1149.13 624.987 1180.66 623.743C1179.06 600.637 1178.84 583.255 1178.69 570.466C1178.46 551.832 1178.35 542.479 1174.46 538.187C1170.65 533.978 1162.26 533.857 1145.52 533.614C1133.54 533.441 1117.26 533.204 1095.38 531.287L1086.81 621.317ZM1152.08 628.307C1129.31 628.307 1106.67 627.239 1084.44 625.111C1083.34 625.006 1082.53 624.03 1082.63 622.931L1091.58 528.928C1091.69 527.832 1092.66 527.027 1093.76 527.126C1116.49 529.193 1133.3 529.437 1145.58 529.615C1181.51 530.135 1182.21 530.898 1182.69 570.417C1182.85 583.533 1183.07 601.497 1184.8 625.514C1184.83 626.053 1184.65 626.585 1184.29 626.989C1183.93 627.392 1183.43 627.633 1182.88 627.656C1172.61 628.09 1162.33 628.307 1152.08 628.307V628.307Z" fill="black"/><path id="Fill 5" fill-rule="evenodd" clip-rule="evenodd" d="M1174.26 555.117C1184.73 554.75 1196.49 554.152 1206.88 553.271C1216.63 553.06 1231.39 551.526 1230.31 539.167C1229.55 532.693 1222.93 528.075 1215.52 528.86C1198.35 530.447 1181.16 531.435 1163.99 531.753" fill="white"/><path id="Fill 7" fill-rule="evenodd" clip-rule="evenodd" d="M1174.26 557.117C1173.19 557.117 1172.3 556.267 1172.26 555.187C1172.22 554.083 1173.08 553.157 1174.19 553.118C1182.6 552.824 1195.07 552.265 1206.72 551.278C1206.76 551.274 1206.8 551.272 1206.84 551.271C1210.57 551.191 1221.91 550.946 1226.37 545.974C1227.92 544.249 1228.56 542.079 1228.32 539.341C1227.69 534.016 1222.04 530.182 1215.73 530.848C1198.26 532.465 1180.87 533.441 1164.03 533.752C1162.91 533.784 1162.01 532.894 1161.99 531.79C1161.97 530.685 1162.85 529.773 1163.95 529.753C1180.7 529.443 1197.99 528.472 1215.33 526.868C1223.78 525.97 1231.41 531.383 1232.3 538.934C1232.64 542.839 1231.65 546.086 1229.35 548.644C1224.33 554.242 1214.2 555.109 1206.99 555.269C1195.28 556.26 1182.77 556.82 1174.33 557.116C1174.3 557.117 1174.28 557.117 1174.26 557.117" fill="black"/><path id="Fill 9" fill-rule="evenodd" clip-rule="evenodd" d="M1174.26 555.117C1188.33 554.687 1203.73 553.622 1217.75 552.362C1236.06 550.611 1238.64 573.898 1219.97 575.864C1205.48 577.167 1189.57 578.265 1175.03 578.711" fill="white"/><path id="Fill 11" fill-rule="evenodd" clip-rule="evenodd" d="M1175.03 580.711C1173.95 580.711 1173.06 579.856 1173.03 578.772C1173 577.668 1173.87 576.746 1174.97 576.712C1191.59 576.202 1208.51 574.886 1219.79 573.871C1225.51 573.268 1231.4 569.589 1230.74 562.942C1230.27 558.261 1226.05 553.576 1217.93 554.352C1206.93 555.342 1190.44 556.623 1174.32 557.116C1173.17 557.15 1172.29 556.282 1172.26 555.178C1172.22 554.074 1173.09 553.151 1174.2 553.118C1186.88 552.73 1201.87 551.78 1217.56 550.369C1227.91 549.377 1234.03 555.744 1234.72 562.542C1235.38 569.109 1231.11 576.701 1220.18 577.852C1208.82 578.874 1191.81 580.197 1175.09 580.71C1175.07 580.711 1175.05 580.711 1175.03 580.711" fill="black"/><path id="Fill 13" fill-rule="evenodd" clip-rule="evenodd" d="M1175.03 578.711C1189.57 578.264 1205.48 577.168 1219.97 575.863C1238.87 574.054 1241.44 597.338 1222.19 599.365C1207.24 600.713 1190.81 601.843 1175.8 602.305" fill="white"/><path id="Fill 15" fill-rule="evenodd" clip-rule="evenodd" d="M1175.8 604.305C1174.73 604.305 1173.84 603.45 1173.81 602.367C1173.77 601.263 1174.64 600.34 1175.74 600.306C1192.98 599.775 1210.42 598.418 1222.01 597.373C1230.49 596.479 1233.87 591.055 1233.4 586.395C1232.93 581.716 1228.59 577.048 1220.16 577.854C1208.83 578.874 1191.83 580.196 1175.09 580.71C1173.95 580.741 1173.07 579.876 1173.03 578.772C1173 577.668 1173.87 576.746 1174.97 576.712C1191.61 576.201 1208.53 574.885 1219.79 573.871C1230.44 572.854 1236.7 579.199 1237.38 585.995C1238.04 592.563 1233.63 600.171 1222.4 601.354C1210.73 602.407 1193.2 603.771 1175.87 604.304C1175.85 604.305 1175.82 604.305 1175.8 604.305" fill="black"/><path id="Fill 17" fill-rule="evenodd" clip-rule="evenodd" d="M1094.52 539.496C1095.43 510.793 1106.67 502.695 1134.19 506.165C1137.93 506.309 1145.49 506.432 1149.23 506.419C1162.72 506.615 1173.03 518.275 1173.5 531.766C1166.74 535.346 1159.92 538.797 1153.03 542.119" fill="white"/><path id="Fill 19" fill-rule="evenodd" clip-rule="evenodd" d="M1093.57 529.118C1094.57 518.722 1095.98 505.399 1095.98 505.399C1111.21 507.165 1126.71 507.889 1141.67 508.203C1156.85 506.234 1173.04 514.888 1173.49 531.523C1166.66 531.754 1159.84 531.869 1153.01 531.876" fill="white"/><path id="Fill 21" fill-rule="evenodd" clip-rule="evenodd" d="M1153.01 533.876C1151.91 533.876 1151.02 532.982 1151.01 531.878C1151.01 530.773 1151.91 529.877 1153.01 529.876C1159.16 529.87 1165.32 529.773 1171.35 529.59C1170.75 524.313 1168.31 519.73 1164.24 516.245C1158.55 511.377 1150.21 509.113 1141.93 510.186C1141.83 510.199 1141.73 510.203 1141.63 510.202C1124.55 509.844 1110.54 509.019 1097.76 507.612C1097.33 511.729 1096.32 521.414 1095.57 529.308C1095.46 530.407 1094.49 531.211 1093.39 531.109C1092.29 531.004 1091.48 530.027 1091.58 528.928C1092.57 518.64 1093.98 505.321 1093.99 505.188C1094.05 504.657 1094.32 504.171 1094.73 503.837C1095.15 503.504 1095.67 503.35 1096.21 503.412C1109.37 504.938 1123.79 505.824 1141.56 506.2C1150.9 505.032 1160.33 507.644 1166.84 513.205C1172.3 517.876 1175.29 524.192 1175.49 531.469C1175.52 532.567 1174.65 533.484 1173.56 533.521C1166.82 533.75 1159.91 533.869 1153.02 533.876H1153.01Z" fill="black"/><path id="Fill 23" fill-rule="evenodd" clip-rule="evenodd" d="M1150.29 531.861C1157.76 531.901 1165.87 531.787 1173.31 531.529C1190.83 530.853 1189.68 507.442 1172.55 507.935C1155.98 508.458 1139.45 508.35 1123 507.56" fill="white"/><path id="Fill 25" fill-rule="evenodd" clip-rule="evenodd" d="M1153.22 533.869C1152.23 533.869 1151.25 533.866 1150.28 533.861C1149.17 533.855 1148.28 532.955 1148.29 531.85C1148.3 530.75 1149.19 529.861 1150.29 529.861H1150.3C1157.79 529.902 1165.94 529.784 1173.25 529.531C1180.85 529.237 1184.09 524.255 1183.93 519.447C1183.77 514.713 1180.17 509.714 1172.61 509.934C1155.85 510.463 1139.13 510.337 1122.91 509.558C1121.8 509.505 1120.95 508.568 1121 507.464C1121.05 506.394 1121.94 505.56 1123 505.56C1123.03 505.56 1123.06 505.561 1123.1 505.563C1139.21 506.337 1155.83 506.462 1172.49 505.936C1182.36 505.662 1187.69 512.451 1187.93 519.313C1188.15 525.88 1183.69 533.13 1173.39 533.528C1166.97 533.751 1159.92 533.869 1153.22 533.869" fill="black"/><path id="Fill 27" fill-rule="evenodd" clip-rule="evenodd" d="M1175.8 602.305C1189.95 603.382 1210.35 596.833 1222.55 602.801C1228.7 606.422 1229.54 614.67 1224.12 619.421C1212.02 627.822 1191.14 623.945 1176.58 625.899" fill="white"/><path id="Fill 29" fill-rule="evenodd" clip-rule="evenodd" d="M1176.57 627.9C1175.59 627.9 1174.73 627.17 1174.59 626.166C1174.45 625.071 1175.22 624.065 1176.31 623.918C1181.13 623.27 1186.47 623.246 1192.12 623.221C1203.46 623.17 1215.19 623.118 1222.89 617.845C1224.91 616.024 1225.93 613.499 1225.69 610.898C1225.44 608.277 1223.95 605.972 1221.6 604.564C1214.48 601.124 1203.95 602.258 1193.76 603.356C1187.27 604.056 1181.13 604.717 1175.65 604.3C1174.55 604.216 1173.73 603.255 1173.81 602.154C1173.89 601.053 1174.87 600.224 1175.96 600.311C1181.06 600.7 1187.02 600.058 1193.33 599.379C1204.12 598.217 1215.27 597.016 1223.43 601.005C1223.48 601.027 1223.52 601.052 1223.57 601.078C1227.07 603.141 1229.3 606.583 1229.67 610.522C1230.04 614.45 1228.5 618.242 1225.44 620.925C1225.39 620.975 1225.33 621.022 1225.27 621.065C1216.55 627.112 1204.14 627.167 1192.14 627.221C1186.62 627.246 1181.41 627.269 1176.84 627.882C1176.75 627.894 1176.66 627.9 1176.57 627.9" fill="black"/></g><path id="Fill 31" fill-rule="evenodd" clip-rule="evenodd" d="M1085.84 633.84L1098.75 493.479C1010.27 485.62 923.578 455.224 850.98 403.834C833.373 391.424 816.607 377.832 801.228 363.352C776.969 342.962 741.293 355.935 715.464 374.349C685.406 395.925 677.443 440.124 704.588 465.961C725.2 485.36 746.944 502.941 769.728 519.013C862.474 584.659 972.986 623.758 1085.84 633.84" fill="black"/></g><g id="torso"><path id="Fill 33" fill-rule="evenodd" clip-rule="evenodd" d="M828.395 671.21C829.416 682.133 820.821 691.567 809.851 691.567H514.112C504.448 691.567 496.277 684.413 495 674.834L510.307 407.089C506.031 375.008 530.989 346.501 563.355 346.501H756.78C798.71 346.813 831.762 384.338 828.304 426.062C828.305 426.062 828.395 671.21 828.395 671.21" fill="#2945ff"/><g id="Group 37"><path id="Fill 35" fill-rule="evenodd" clip-rule="evenodd" d="M741.335 346.502C717.12 244.529 537.081 316.62 653.996 401.737C656.095 403.442 659.142 403.277 661.056 401.363L674.922 387.497L688.742 373.677C695.359 380.109 708.968 393.323 715.631 399.798C725.825 410.309 742.156 359.477 741.335 346.502" fill="#2945ff"/></g><path id="Fill 38" fill-rule="evenodd" clip-rule="evenodd" d="M683.697 408.664L669.497 394.464L689.252 374.708L709.008 394.464L694.766 408.704L708.637 450.772L741.337 346.502H615.234L678.196 451.493C678.214 451.419 683.664 408.728 683.697 408.664" fill="#2945ff"/><path id="Fill 40" fill-rule="evenodd" clip-rule="evenodd" d="M711.382 578.251L694.765 408.703L709.006 394.463L689.25 374.708L669.495 394.463L683.695 408.663C683.674 408.645 660.95 578.957 660.941 578.971C690.531 615.026 684.487 621.116 711.382 578.251" fill="black"/><path id="Fill 42" fill-rule="evenodd" clip-rule="evenodd" d="M658.323 403.845C656.558 403.845 654.46 403.203 652.034 401.925C636.906 393.953 611.333 362.243 613.75 346.277C613.874 345.458 614.639 344.897 615.458 345.019C616.277 345.143 616.841 345.907 616.717 346.727C615.75 353.107 620.289 363.866 628.856 375.507C636.633 386.072 646.509 395.622 653.432 399.271C655.261 400.234 658.551 401.649 660.033 400.268C663.94 396.355 670.178 390.118 676.086 384.212L687.682 372.616C688.26 372.036 689.199 372.03 689.789 372.601L716.677 398.722C717.678 399.752 718.581 399.959 719.734 399.45C728.405 395.613 740.568 358.119 739.839 346.597C739.786 345.77 740.414 345.057 741.241 345.005C742.074 344.95 742.78 345.581 742.833 346.407C743.573 358.099 731.373 397.58 720.948 402.194C718.655 403.21 716.384 402.728 714.554 400.842L688.759 375.783L678.207 386.334C672.301 392.239 666.062 398.475 662.118 402.425C661.102 403.373 659.836 403.845 658.323 403.845" fill="black"/><path id="Fill 44" fill-rule="evenodd" clip-rule="evenodd" d="M723.898 443.806C724.245 453.148 723.987 461.502 723.757 468.919C723.254 485.223 722.89 497.004 729.708 503.571C736.304 509.927 749.662 511.919 774.388 510.232L774.465 510.229C780.927 510.118 785.785 508.232 789.314 504.463C797.806 495.392 796.919 477.218 796.135 461.184C795.823 454.786 795.526 448.705 795.897 443.806H723.898ZM759.62 513.793C743.217 513.793 733.334 511.23 727.627 505.732C719.85 498.241 720.232 485.903 720.759 468.826C721 461.05 721.271 452.236 720.836 442.372L720.768 440.806H799.23L799.036 442.479C798.465 447.385 798.79 454.016 799.132 461.038C799.944 477.667 800.865 496.514 791.503 506.513C787.455 510.838 781.752 513.097 774.555 513.227C769.06 513.602 764.096 513.793 759.62 513.793V513.793Z" fill="black"/><path id="Fill 46" fill-rule="evenodd" clip-rule="evenodd" d="M686.66 691.567H689.66V609.461H686.66V691.567Z" fill="black"/></g><g id="right"><path id="Fill 48" fill-rule="evenodd" clip-rule="evenodd" d="M662.505 772.56C686.952 653.947 715.864 682.092 605.252 647.471C573.067 762.371 547.394 739.944 638.359 766.229C630.313 764.038 622.267 761.803 614.222 759.476C605.589 785.271 656.918 799.255 662.505 772.56" fill="white"/><path id="Fill 49" fill-rule="evenodd" clip-rule="evenodd" d="M615.602 761.995C614.226 768.377 617.128 773.14 619.962 776.104C626.818 783.271 639.643 786.754 649.168 784.032C653.485 782.799 658.962 779.736 660.55 772.152C666.343 744.046 672.368 724.211 676.769 709.728C682.031 692.404 684.931 682.861 681.82 677.159C678.334 670.768 666.414 667.378 642.668 660.624C632.935 657.856 620.926 654.441 606.622 649.993C598.661 678.095 591.202 697.67 585.723 712.05C579.349 728.78 575.837 737.996 578.482 743.167C581.302 748.681 591.751 751.476 612.569 757.042C613.104 757.185 613.645 757.33 614.19 757.476C614.411 757.477 614.584 757.498 614.78 757.555C616.154 757.952 617.543 758.351 618.957 758.755C624.907 760.358 631.483 762.16 638.918 764.308C639.973 764.613 640.585 765.712 640.288 766.77C639.991 767.827 638.898 768.449 637.837 768.159C630.353 766.121 623.902 764.326 617.888 762.609C617.115 762.401 616.354 762.197 615.602 761.995V761.995ZM642.119 788.967C632.925 788.967 623.137 785.21 617.071 778.869C612.142 773.714 610.287 767.424 611.737 760.96C611.669 760.942 611.603 760.925 611.535 760.906C588.887 754.85 578.55 752.086 574.92 744.988C571.466 738.233 574.982 729.007 581.986 710.626C587.566 695.981 595.208 675.925 603.329 646.932C603.475 646.411 603.825 645.971 604.301 645.713C604.778 645.455 605.337 645.401 605.853 645.562C620.974 650.295 633.61 653.889 643.763 656.777C669.36 664.057 681.042 667.38 685.331 675.244C689.245 682.419 686.355 691.934 680.596 710.891C676.218 725.3 670.223 745.035 664.467 772.964C664.466 772.966 664.466 772.968 664.466 772.97C662.908 780.412 657.865 785.706 650.268 787.878C647.69 788.615 644.932 788.967 642.119 788.967V788.967Z" fill="black"/><path id="Fill 50" fill-rule="evenodd" clip-rule="evenodd" d="M568.393 766.58L612.103 632.574C568.944 617.518 507.1 597.294 476.839 563.047C476.835 563.049 476.873 563.032 476.829 563.055C476.853 563.043 476.855 563.047 476.837 563.053C476.837 563.053 476.854 563.056 476.83 563.056C476.869 563.063 476.824 563.057 476.839 563.061C476.804 563.047 476.867 563.074 476.845 563.065C476.811 563.038 476.905 562.967 476.92 562.914C493.893 536.771 523.108 519.798 550.547 503.309C562.69 496.4 575.397 489.813 588.409 483.564C621.561 467.388 635.479 427.33 623.012 392.303C609.209 353.806 564.337 338.528 527.414 356.49C495.193 372.046 464.42 388.974 434.607 410.09C344.022 470.591 293.138 575.855 379.352 665.578C431.055 717.387 500.822 743.637 568.393 766.58" fill="black"/></g></g></g><g id="Hairstyle" transform="translate(569 275) scale(1 1)"><g id="Hairstyle/Long Hair"><g id="hair"><path id="Fill 1" fill-rule="evenodd" clip-rule="evenodd" d="M130.377 167.377H-2V101.189C-2 64.6336 27.634 34.9996 64.189 34.9996V34.9996C100.743 34.9996 130.377 64.6336 130.377 101.189V167.377Z" fill="black"/><path id="Fill 20" fill-rule="evenodd" clip-rule="evenodd" d="M-2 202.053V202.053V166.053H29.882V168.953C29.882 187.234 15.608 202.053 -2 202.053" fill="black"/><path id="Fill 22" fill-rule="evenodd" clip-rule="evenodd" d="M126.736 202.053H130.378V166.053H94.8535V168.953C94.8535 187.234 109.128 202.053 126.736 202.053" fill="black"/></g><g id="head"><path id="Fill 4" fill-rule="evenodd" clip-rule="evenodd" d="M131.895 107.117C131.895 115.53 125.075 122.35 116.662 122.35C108.249 122.35 101.429 115.53 101.429 107.117C101.429 98.7039 108.249 91.8839 116.662 91.8839C125.075 91.8839 131.895 98.7039 131.895 107.117" fill="white"/><path id="Fill 6" fill-rule="evenodd" clip-rule="evenodd" d="M116.662 93.8839C109.365 93.8839 103.429 99.8199 103.429 107.117C103.429 114.414 109.365 120.35 116.662 120.35C123.959 120.35 129.895 114.414 129.895 107.117C129.895 99.8199 123.959 93.8839 116.662 93.8839M116.662 124.35C107.16 124.35 99.4287 116.619 99.4287 107.117C99.4287 97.6149 107.16 89.8839 116.662 89.8839C126.164 89.8839 133.895 97.6149 133.895 107.117C133.895 116.619 126.164 124.35 116.662 124.35" fill="black"/><path id="Fill 8" fill-rule="evenodd" clip-rule="evenodd" d="M65.559 206.612V206.612C46.602 206.612 29.125 192.074 29.125 174.717L45.235 115.054C45.235 97.697 40.602 83.626 59.559 83.626H79.559C98.516 83.626 93.883 97.697 93.883 115.054V175.184C93.883 192.541 84.516 206.612 65.559 206.612" fill="white"/><path id="Fill 10" fill-rule="evenodd" clip-rule="evenodd" d="M31.126 174.977C31.299 190.794 47.315 204.612 65.559 204.612C84.968 204.612 91.883 189.411 91.883 175.184V115.054C91.883 112.006 92.021 109.11 92.155 106.309C92.522 98.602 92.84 91.947 89.66 88.612C87.744 86.603 84.44 85.626 79.559 85.626H59.559C54.678 85.626 51.374 86.603 49.458 88.612C46.278 91.947 46.595 98.602 46.963 106.309C47.096 109.11 47.235 112.006 47.235 115.054V115.32L31.126 174.977ZM65.559 208.612C45.084 208.612 27.125 192.773 27.125 174.717V174.452L43.234 114.79C43.227 111.932 43.095 109.171 42.968 106.499C42.556 97.875 42.201 90.427 46.563 85.852C49.274 83.008 53.525 81.626 59.559 81.626H79.559C85.593 81.626 89.844 83.008 92.555 85.852C96.917 90.427 96.562 97.875 96.15 106.499C96.019 109.254 95.883 112.102 95.883 115.054V175.184C95.883 195.491 83.98 208.612 65.559 208.612V208.612Z" fill="black"/><path id="Fill 12" fill-rule="evenodd" clip-rule="evenodd" d="M77.1585 154.544C59.6915 154.544 43.9295 144.184 37.0025 128.152L36.3515 126.647C26.7905 104.516 37.0165 78.7319 59.1475 69.1699C64.6705 66.7839 70.4985 65.5739 76.4675 65.5739C93.9345 65.5739 109.698 75.9339 116.624 91.9659L117.275 93.4709C126.836 115.602 116.61 141.386 94.4785 150.948C88.9555 153.334 83.1275 154.544 77.1585 154.544" fill="white"/><path id="Fill 14" fill-rule="evenodd" clip-rule="evenodd" d="M76.4686 63.5739H76.4676C70.2236 63.5739 64.1296 64.8399 58.3536 67.3349C47.1436 72.1779 38.4896 81.0979 33.9866 92.4499C29.4846 103.803 29.6716 116.229 34.5156 127.44L35.1656 128.945C42.4096 145.711 58.8926 156.544 77.1586 156.544C83.4016 156.544 89.4966 155.279 95.2716 152.783C106.483 147.94 115.137 139.02 119.64 127.668C124.142 116.315 123.954 103.889 119.11 92.6779L118.46 91.1729C111.217 74.4069 94.7336 63.5739 76.4686 63.5739M76.4676 67.5739C92.6106 67.5739 107.979 76.9979 114.788 92.7599L115.438 94.2639C124.577 115.417 114.838 139.973 93.6856 149.112C88.2936 151.441 82.6806 152.544 77.1586 152.544C61.0156 152.544 45.6476 143.12 38.8376 127.359L38.1876 125.854C29.0486 104.701 38.7876 80.1449 59.9406 71.0069C65.3326 68.6769 70.9456 67.5739 76.4676 67.5739" fill="black"/><path id="Fill 16" fill-rule="evenodd" clip-rule="evenodd" d="M35.9635 122.35C27.5505 122.35 20.7305 115.53 20.7305 107.117C20.7305 98.7038 27.5505 91.8838 35.9635 91.8838C37.0155 91.8838 38.0415 91.9908 39.0335 92.1938" fill="white"/><path id="Fill 18" fill-rule="evenodd" clip-rule="evenodd" d="M35.9635 124.35C26.4615 124.35 18.7305 116.619 18.7305 107.117C18.7305 97.6148 26.4615 89.8838 35.9635 89.8838C37.1305 89.8838 38.2985 90.0018 39.4345 90.2338C40.5165 90.4558 41.2145 91.5128 40.9925 92.5948C40.7715 93.6768 39.7135 94.3738 38.6325 94.1528C37.7605 93.9748 36.8625 93.8838 35.9635 93.8838C28.6665 93.8838 22.7305 99.8198 22.7305 107.117C22.7305 114.414 28.6665 120.35 35.9635 120.35C37.0675 120.35 37.9635 121.246 37.9635 122.35C37.9635 123.454 37.0675 124.35 35.9635 124.35" fill="black"/></g><circle id="Oval" cx="46" cy="82" r="14" fill="black"/><ellipse id="Oval_2" cx="90" cy="63" rx="39" ry="22" fill="black"/><path id="Fill 9" fill-rule="evenodd" clip-rule="evenodd" d="M83.1474 123.992H90.7084C92.7934 123.992 94.3374 120.961 93.8714 117.782L90.6874 96.0426C89.9484 90.9976 85.4234 90.7156 84.4294 95.6516L80.0524 117.391C79.3944 120.662 80.9554 123.992 83.1474 123.992" fill="#2945ff"/></g></g><g id="Face" transform="translate(589 365) scale(1 1)"><g id="Face/Beard"><path id="Shape" fill-rule="evenodd" clip-rule="evenodd" d="M98.064 -1C101.129 -1 103.626 1.4261 103.741 4.46306L103.745 4.681V29.803C103.745 30.2429 103.697 30.6715 103.605 31.0837L103.502 31.8657C102.208 41.1969 94.8052 79.0512 59.8721 79.0512C23.2145 79.0512 16.8734 38.9149 16.0936 32.4954C16.0319 32.2189 16 31.9302 16 31.634V4.681C16 1.543 18.543 -1 21.681 -1C24.818 -1 27.362 1.543 27.362 4.681L27.3621 27.2232C27.3621 32.3865 30.9111 39.6403 36.4787 46.1029C35.6908 40.0185 35.7974 33.4382 38.7065 29.3812C40.6075 26.7292 43.4885 25.3282 47.0365 25.3282C53.2005 25.3282 56.8958 26.7787 59.7845 28.1509L61.8563 29.1554C64.8933 30.5961 67.0955 31.1529 73.1571 28.373L73.5255 28.2022C80.4795 24.9442 84.7005 24.4522 87.6405 26.5602C91.4431 29.2855 91.0457 34.8129 90.2061 42.4468C92.322 37.6277 92.546 33.3852 92.4875 31.2559C92.436 30.9968 92.403 30.7309 92.3897 30.4598L92.383 30.187V4.681C92.383 1.543 94.927 -1 98.064 -1ZM76.4056 33.48L76.0715 33.6352C67.1705 37.8072 63.2465 36.5232 58.2755 34.0872L57.7853 33.8477C55.1601 32.571 52.3127 31.3282 47.0365 31.3282C44.9605 31.3282 44.1005 32.1552 43.5825 32.8762C40.936 36.5648 42.1116 45.8406 43.9674 53.2452C46.7978 55.4428 49.8637 57.3178 53.0606 58.6735L59.7194 52.0144C61.7544 49.9794 65.0554 49.9794 67.0904 52.0144L73.7251 58.6492C77.6606 56.6821 80.7795 54.4618 83.249 52.1482C83.4081 49.5593 83.6582 47.0838 83.9099 44.7841L84.3382 40.8816C84.7373 37.0489 85.0939 32.37 84.2155 31.4959L84.1321 31.4285C83.9783 31.3463 82.4489 30.6967 76.4056 33.48V33.48Z" fill="black"/></g></g><g id="Expression" transform="translate(617 356) scale(1 1)"><g id="Expression/Frustrated"><path id="Fill 3" fill-rule="evenodd" clip-rule="evenodd" d="M18.0019 22.9649C17.3769 22.9649 16.7609 22.6729 16.3709 22.1239C15.7299 21.2239 15.9409 19.9759 16.8409 19.3349L23.2469 14.7769L16.9139 10.6799C15.9869 10.0799 15.7209 8.84187 16.3209 7.91387C16.9209 6.98687 18.1579 6.72087 19.0869 7.32087L27.8939 13.0189C28.4499 13.3789 28.7919 13.9909 28.8069 14.6539C28.8219 15.3159 28.5069 15.9429 27.9669 16.3279L19.1599 22.5939C18.8079 22.8449 18.4029 22.9649 18.0019 22.9649" fill="black"/><path id="Fill 5" fill-rule="evenodd" clip-rule="evenodd" d="M55.117 22.9649C54.716 22.9649 54.311 22.8449 53.959 22.5939L45.152 16.3279C44.612 15.9429 44.297 15.3159 44.312 14.6539C44.326 13.9909 44.669 13.3789 45.225 13.0189L54.032 7.32087C54.961 6.72087 56.198 6.98687 56.798 7.91387C57.398 8.84187 57.132 10.0799 56.205 10.6799L49.872 14.7769L56.278 19.3349C57.178 19.9759 57.389 21.2239 56.748 22.1239C56.358 22.6729 55.742 22.9649 55.117 22.9649" fill="black"/><path id="Path" fill-rule="evenodd" clip-rule="evenodd" d="M37.0181 47C47.4961 47 51.4111 55.063 52.0161 59.327C52.0981 59.9 51.9271 60.481 51.5471 60.919C51.1671 61.357 50.6161 61.608 50.0361 61.608H24.0001C23.4201 61.608 22.8691 61.357 22.4891 60.919C22.1091 60.481 21.9381 59.9 22.0201 59.327L22.0749 58.9827C22.8367 54.6442 26.8159 47 37.0181 47Z" fill="black"/></g></g><g id="Glasses" transform="translate(598 343) scale(1 1)"><g id="Glasses/Squared Glasses"><path id="Shape" fill-rule="evenodd" clip-rule="evenodd" d="M53.3679 15C54.4729 15 55.3679 15.895 55.3679 17L55.367 22.5848C55.9811 22.2769 56.6711 22.0474 57.4386 21.9512C58.8569 21.7735 59.9981 22.0814 61.1493 22.8695L61.1494 17C61.1494 15.895 62.0444 15 63.1494 15H87.7664C88.8704 15 89.7664 15.895 89.7664 17V27.658C89.7664 33.476 85.0324 38.21 79.2134 38.21H69.0344C64.6864 38.21 61.1494 34.673 61.1494 30.325L61.1495 27.3952C60.1609 26.498 59.0178 25.7906 57.9496 25.9182C56.7124 26.0652 55.767 27.3073 55.3668 27.9285L55.3679 30.325C55.3679 34.673 51.8309 38.21 47.4829 38.21H36.2519C30.4329 38.21 25.6989 33.476 25.6989 27.658L25.698 24.532L12.4394 27.5185C12.2914 27.5515 12.1444 27.5675 11.9984 27.5675C11.0834 27.5675 10.2584 26.9365 10.0494 26.0065C9.80641 24.9285 10.4834 23.8585 11.5604 23.6155L25.698 20.431L25.6989 17C25.6989 15.895 26.5939 15 27.6989 15H53.3679ZM51.3679 19H29.6989V27.658C29.6989 31.271 32.6379 34.21 36.2519 34.21H47.4829C49.6249 34.21 51.3679 32.467 51.3679 30.325V19ZM85.7664 19H65.1494V30.325C65.1494 32.467 66.8924 34.21 69.0344 34.21H79.2134C82.8264 34.21 85.7664 31.271 85.7664 27.658V19Z" fill="black"/></g></g></g></g></g></svg>