<svg viewBox="-166.33749999999986 194.62650602409644 1829.7125 1400.3614457831325" xmlns="http://www.w3.org/2000/svg" overflow="visible" xmlns:xlink="http://www.w3.org/1999/xlink" width="1829.7125px" height="1400.3614457831325px"><g id="Master/Compositions/Doctor Prescription" stroke="none" stroke-width="1" fill="none" fill-rule="evenodd"><g id="Background Elements Medicine" transform="translate(473.000000, 214.000000) scale(1 1)"><g id="Background Elements Medicine/Test Tube 2" stroke="none" stroke-width="1" fill="none" fill-rule="evenodd"><g id="Round-Test-Tube" transform="translate(485.000000, -3.000000)"><path d="M454.578313,75 L454.58303,697.934366 C589.238058,744.209597 686,871.907766 686,1022.19317 C686,1211.52015 532.433669,1365 343,1365 C153.566331,1365 0,1211.52015 0,1022.19317 C0,871.907766 96.7619419,744.209597 231.41697,697.934366 L231.421687,75 L454.578313,75 Z M448.578,81 L237.421,81 L237.416937,702.216847 L233.36698,703.608646 C98.4271909,749.981738 6,877.269361 6,1022.19317 C6,1208.20569 156.879283,1359 343,1359 C529.120717,1359 680,1208.20569 680,1022.19317 C680,878.718599 589.41211,752.529254 456.66841,705.02405 L452.63302,703.608646 L448.583063,702.216847 L448.578,81 Z" id="Combined-Shape" fill="#000" fill-rule="nonzero"/><path d="M342.50141,1293 C492.445941,1293 614,1171.65438 614,1021.96696 C614,952.533099 577.408669,1069.92212 534.398572,1021.96696 C484.68633,966.539087 422.892812,1072.84644 342.50141,1072.84644 C264.910821,1072.84644 168.32586,1003.14614 145.444395,986.862649 C122.562929,970.579161 71,949.73709 71,1021.96696 C71,1171.65438 192.55688,1293 342.50141,1293 Z" id="Oval-Copy-25" fill="#000"/><rect id="Rectangle-Copy-65" stroke="#000" stroke-width="3" fill="#FFF" x="171" y="3" width="344" height="73"/><path d="M518,0 L168,0 L168,79 L518,79 L518,0 Z M512,6 L512,73 L174,73 L174,6 L512,6 Z" id="Rectangle-Copy-73" fill="#000" fill-rule="nonzero"/></g><g id="Medicine-1" transform="translate(283.000000, 940.000000)"><rect id="Rectangle" fill="#FFF" x="30" y="73" width="223" height="58"/><path d="M256,70 L27,70 L27,134 L256,134 L256,70 Z M250,76 L250,128 L33,128 L33,76 L250,76 Z" id="Rectangle-Copy-5" fill="#000" fill-rule="nonzero"/><rect id="Rectangle" stroke="#000" stroke-width="3" fill="#FFF" x="4.5" y="108.5" width="273" height="312" rx="42"/><path d="M237,107 C260.195959,107 279,125.804041 279,149 L279,380 C279,403.195959 260.195959,422 237,422 L45,422 C21.8040405,422 3,403.195959 3,380 L3,149 C3,125.804041 21.8040405,107 45,107 L237,107 Z M237,113 L45,113 C25.3165715,113 9.32273143,128.797006 9.00482297,148.404674 L9,149 L9,380 C9,399.683428 24.7970058,415.677269 44.4046742,415.995177 L45,416 L237,416 C256.683428,416 272.677269,400.202994 272.995177,380.595326 L273,380 L273,149 C273,129.316572 257.202994,113.322731 237.595326,113.004823 L237,113 Z" id="Rectangle-Copy-6" fill="#000" fill-rule="nonzero"/><rect id="Rectangle" fill="#FFF" x="3" y="3" width="276" height="87"/><path d="M282,0 L0,0 L0,93 L282,93 L282,0 Z M276,6 L276,87 L6,87 L6,6 L276,6 Z" id="Rectangle-Copy-4" fill="#000" fill-rule="nonzero"/><rect id="Rectangle" fill="#FFF" x="6" y="191" width="271" height="167"/><path d="M280,188 L3,188 L3,361 L280,361 L280,188 Z M274,194 L274,355 L9,355 L9,194 L274,194 Z" id="Rectangle-Copy" fill="#000" fill-rule="nonzero"/><path d="M278.5,189.5 L4.5,189.5 L4.5,359.5 L278.5,359.5 L278.5,189.5 Z M275.5,192.5 L275.5,356.5 L7.5,356.5 L7.5,192.5 L275.5,192.5 Z" id="Rectangle-Copy-2" fill="#000" fill-rule="nonzero"/></g><g id="Pill" transform="translate(527.000000, 1272.000000)"><rect id="Rectangle" stroke="#000" stroke-width="6" fill="#FFF" x="3.5" y="3" width="166" height="87" rx="43.5"/><rect id="Rectangle-Copy-7" stroke="#000" stroke-width="6" fill="#FFF" x="3.5" y="3" width="166" height="87" rx="43.5"/><path d="M126,0 L47,0 C21.3187591,0 0.5,20.8187591 0.5,46.5 C0.5,72.1812409 21.3187591,93 47,93 L126,93 C151.681241,93 172.5,72.1812409 172.5,46.5 C172.5,20.8187591 151.681241,0 126,0 Z M47,6 L126,6 C148.367532,6 166.5,24.1324676 166.5,46.5 C166.5,68.8675324 148.367532,87 126,87 L47,87 C24.6324676,87 6.5,68.8675324 6.5,46.5 C6.5,24.1324676 24.6324676,6 47,6 Z" id="Rectangle-Copy-9" fill="#000" fill-rule="nonzero"/><path d="M86.5,3 L86.5,90 L47,90 C22.9756134,90 3.5,70.5243866 3.5,46.5 C3.5,22.4756134 22.9756134,3 47,3 L86.5,3 Z" id="Combined-Shape" fill="#000"/></g><g id="Pill" transform="translate(998.000000, 1272.000000)"><rect id="Rectangle" stroke="#000" stroke-width="6" fill="#FFF" x="3.5" y="3" width="166" height="87" rx="43.5"/><rect id="Rectangle-Copy-7" stroke="#000" stroke-width="6" fill="#FFF" x="3.5" y="3" width="166" height="87" rx="43.5"/><path d="M126,0 L47,0 C21.3187591,0 0.5,20.8187591 0.5,46.5 C0.5,72.1812409 21.3187591,93 47,93 L126,93 C151.681241,93 172.5,72.1812409 172.5,46.5 C172.5,20.8187591 151.681241,0 126,0 Z M47,6 L126,6 C148.367532,6 166.5,24.1324676 166.5,46.5 C166.5,68.8675324 148.367532,87 126,87 L47,87 C24.6324676,87 6.5,68.8675324 6.5,46.5 C6.5,24.1324676 24.6324676,6 47,6 Z" id="Rectangle-Copy-9" fill="#000" fill-rule="nonzero"/><path d="M86.5,3 L86.5,90 L47,90 C22.9756134,90 3.5,70.5243866 3.5,46.5 C3.5,22.4756134 22.9756134,3 47,3 L86.5,3 Z" id="Combined-Shape" fill="#000"/></g><g id="Pill-2" transform="translate(409.000000, 1272.000000)"><rect id="Rectangle" stroke="#000" stroke-width="6" fill="#FFF" x="3.5" y="3" width="166" height="87" rx="43.5"/><rect id="Rectangle-Copy-8" stroke="#000" stroke-width="6" fill="#FFF" x="3.5" y="3" width="166" height="87" rx="43.5"/><path d="M126,0 L47,0 C21.3187591,0 0.5,20.8187591 0.5,46.5 C0.5,72.1812409 21.3187591,93 47,93 L126,93 C151.681241,93 172.5,72.1812409 172.5,46.5 C172.5,20.8187591 151.681241,0 126,0 Z M47,6 L126,6 C148.367532,6 166.5,24.1324676 166.5,46.5 C166.5,68.8675324 148.367532,87 126,87 L47,87 C24.6324676,87 6.5,68.8675324 6.5,46.5 C6.5,24.1324676 24.6324676,6 47,6 Z" id="Rectangle-Copy-10" fill="#000" fill-rule="nonzero"/><path d="M86.5,3 L86.5,90 L47,90 C22.9756134,90 3.5,70.5243866 3.5,46.5 C3.5,22.4756134 22.9756134,3 47,3 L86.5,3 Z" id="Combined-Shape" fill="#000"/></g><g id="Pill-3" transform="translate(149.500000, 1318.500000) scale(-1, 1) translate(-149.500000, -1318.500000) translate(63.000000, 1272.000000)"><rect id="Rectangle" stroke="#000" stroke-width="6" fill="#FFF" x="3.5" y="3" width="166" height="87" rx="43.5"/><path d="M126,0 L47,0 C21.3187591,0 0.5,20.8187591 0.5,46.5 C0.5,72.1812409 21.3187591,93 47,93 L126,93 C151.681241,93 172.5,72.1812409 172.5,46.5 C172.5,20.8187591 151.681241,0 126,0 Z M47,6 L126,6 C148.367532,6 166.5,24.1324676 166.5,46.5 C166.5,68.8675324 148.367532,87 126,87 L47,87 C24.6324676,87 6.5,68.8675324 6.5,46.5 C6.5,24.1324676 24.6324676,6 47,6 Z" id="Rectangle-Copy-11" fill="#000" fill-rule="nonzero"/><path d="M86.5,3 L86.5,90 L47,90 C22.9756134,90 3.5,70.5243866 3.5,46.5 C3.5,22.4756134 22.9756134,3 47,3 L86.5,3 Z" id="Combined-Shape" fill="#000"/></g><g id="Medicine-2" transform="translate(192.000000, 1038.000000)"><rect id="Rectangle-Copy-62" stroke="#000" stroke-width="6" fill="#FFF" x="29" y="30" width="94" height="49"/><rect id="Rectangle-Copy-64" fill="#FFF" x="29" y="30" width="94" height="49"/><path d="M126,27 L26,27 L26,82 L126,82 L126,27 Z M120,33 L120,76 L32,76 L32,33 L120,33 Z" id="Rectangle-Copy-65" fill="#000" fill-rule="nonzero"/><rect id="Rectangle-Copy-63" stroke="#000" stroke-width="3" fill="#FFF" x="4.5" y="59.5" width="143" height="263" rx="42"/><path d="M107,58 C130.195959,58 149,76.8040405 149,100 L149,282 C149,305.195959 130.195959,324 107,324 L45,324 C21.8040405,324 3,305.195959 3,282 L3,100 C3,76.8040405 21.8040405,58 45,58 L107,58 Z M107,64 L45,64 C25.3165715,64 9.32273143,79.7970058 9.00482297,99.4046742 L9,100 L9,282 C9,301.683428 24.7970058,317.677269 44.4046742,317.995177 L45,318 L107,318 C126.683428,318 142.677269,302.202994 142.995177,282.595326 L143,282 L143,100 C143,80.3165715 127.202994,64.3227314 107.595326,64.004823 L107,64 Z" id="Rectangle-Copy-71" fill="#000" fill-rule="nonzero"/><rect id="Rectangle-Copy-66" stroke="#000" stroke-width="6" fill="#FFF" x="3" y="3" width="146" height="40"/><path d="M152,0 L0,0 L0,46 L152,46 L152,0 Z M146,6 L146,40 L6,40 L6,6 L146,6 Z" id="Rectangle-Copy-70" fill="#000" fill-rule="nonzero"/><rect id="Rectangle-Copy-67" fill="#FFF" x="5" y="129" width="142" height="142"/><path d="M150,126 L2,126 L2,274 L150,274 L150,126 Z M144,132 L144,268 L8,268 L8,132 L144,132 Z" id="Rectangle-Copy-72" fill="#000" fill-rule="nonzero"/><path d="M148.5,127.5 L3.5,127.5 L3.5,272.5 L148.5,272.5 L148.5,127.5 Z M145.5,130.5 L145.5,269.5 L6.5,269.5 L6.5,130.5 L145.5,130.5 Z" id="Rectangle-Copy-69" fill="#000" fill-rule="nonzero"/></g></g></g><g transform="translate(-84.000000, -0.000000) scale(1 1)" id="Master/Character/Standing"><g id="Master/Character/Standing" stroke="none" stroke-width="1" fill="none" fill-rule="evenodd"><g id="Lower Body" transform="translate(-104.000000, 695.000000) scale(1 1)"><g id="Lower Body/Plaid Pants" stroke="none" stroke-width="1" fill="none" fill-rule="evenodd"><g id="blue" transform="translate(702.969400, 67.507600)"><g id="shoe" transform="translate(20.030600, 601.829400)"><path d="M58.6372,210 C59.6562,184.935 21.9472,184.947 22.9712,210 L2.4852,210 L2.4852,2.743 L90.2192,2.743 C90.2212,27.044 90.2182,136.095 90.2192,162.599 C90.1952,163.743 91.2602,164.704 92.3942,164.598 C113.4862,163.725 143.0902,179.944 141.8502,210 L58.6372,210 Z" id="Fill-1" fill="#FFF"/><g id="Group-5" fill="#000"><path d="M92.2192,0.7686 L92.2192,162.5986 C95.6932,162.6146 143.7972,163.3056 143.8782,211.9996 L56.3522,211.9996 C60.2452,186.9806 21.3572,186.9956 25.2562,211.9996 L0.4852,211.9996 L0.4852,0.7686 L92.2192,0.7686 Z M88.2192,4.7176 L4.4852,4.7176 L4.4852,207.9996 L20.9462,207.9996 C21.9312,183.0286 59.6822,183.0436 60.6622,207.9996 L139.7582,207.9996 C140.0992,180.2876 111.4362,165.7286 92.3922,166.5996 C90.1862,166.7266 88.1742,164.8146 88.2192,162.5986 C88.2192,136.8996 88.2192,28.2646 88.2192,4.7176 L88.2192,4.7176 Z" id="Fill-3"/></g><polygon id="Fill-6" fill="#000" points="2.407 191.914 137.531 191.914 137.531 187.914 2.407 187.914"/><path d="M92.1725,157.397 C79.8385,157.341 73.3865,147.734 73.3875,138.274 C73.3885,128.812 79.8415,119.206 92.1725,119.152 L92.1905,123.152 C82.0205,123.196 77.3885,131.022 77.3875,138.274 C77.3865,145.525 82.0185,153.351 92.1905,153.397 L92.1725,157.397 Z" id="Fill-8" fill="#000"/></g><path d="M139.3768,722.095 L1.9998,722.095 C2.3328,697.223 1.7598,115.729 2.0008,69.82 C1.9998,32.363 32.7528,2 70.6888,2 C108.6238,2 139.3768,32.363 139.3768,69.818 C139.5068,117.806 139.2828,695.188 139.3768,722.095" id="Fill-9" fill="#ff8310"/><g id="stripes" fill="#000"><path d="M19.8148,724.095 C18.7108,724.095 17.8148,723.199 17.8148,722.095 L17.8148,21.746 C17.8148,20.641 18.7108,19.746 19.8148,19.746 C20.9188,19.746 21.8148,20.641 21.8148,21.746 L21.8148,722.095 C21.8148,723.199 20.9188,724.095 19.8148,724.095" id="Fill-10"/><path d="M53.7303,724.095 C52.6253,724.095 51.7303,723.199 51.7303,722.095 L51.7303,2 C51.7303,0.895 52.6253,1.13686838e-13 53.7303,1.13686838e-13 C54.8353,1.13686838e-13 55.7303,0.895 55.7303,2 L55.7303,722.095 C55.7303,723.199 54.8353,724.095 53.7303,724.095" id="Fill-11"/><path d="M87.6463,724.095 C86.5413,724.095 85.6463,723.199 85.6463,722.095 L85.6463,2 C85.6463,0.895 86.5413,1.13686838e-13 87.6463,1.13686838e-13 C88.7513,1.13686838e-13 89.6463,0.895 89.6463,2 L89.6463,722.095 C89.6463,723.199 88.7513,724.095 87.6463,724.095" id="Fill-12"/><path d="M121.5618,724.095 C120.4578,724.095 119.5618,723.199 119.5618,722.095 L119.5618,21.746 C119.5618,20.641 120.4578,19.746 121.5618,19.746 C122.6658,19.746 123.5618,20.641 123.5618,21.746 L123.5618,722.095 C123.5618,723.199 122.6658,724.095 121.5618,724.095" id="Fill-13"/><path d="M139.033,65.0057 L2,65.0057 C0.895,65.0057 -2.7000624e-13,64.1097 -2.7000624e-13,63.0057 C-2.7000624e-13,61.9017 0.895,61.0057 2,61.0057 L139.033,61.0057 C140.138,61.0057 141.033,61.9017 141.033,63.0057 C141.033,64.1097 140.138,65.0057 139.033,65.0057" id="Fill-14"/><path d="M139.033,148.159 L2,148.159 C0.895,148.159 -2.7000624e-13,147.263 -2.7000624e-13,146.159 C-2.7000624e-13,145.055 0.895,144.159 2,144.159 L139.033,144.159 C140.138,144.159 141.033,145.055 141.033,146.159 C141.033,147.263 140.138,148.159 139.033,148.159" id="Fill-15"/><path d="M139.033,231.3113 L2,231.3113 C0.895,231.3113 -2.7000624e-13,230.4153 -2.7000624e-13,229.3113 C-2.7000624e-13,228.2073 0.895,227.3113 2,227.3113 L139.033,227.3113 C140.138,227.3113 141.033,228.2073 141.033,229.3113 C141.033,230.4153 140.138,231.3113 139.033,231.3113" id="Fill-16"/><path d="M139.033,314.4647 L2,314.4647 C0.895,314.4647 -2.7000624e-13,313.5687 -2.7000624e-13,312.4647 C-2.7000624e-13,311.3607 0.895,310.4647 2,310.4647 L139.033,310.4647 C140.138,310.4647 141.033,311.3607 141.033,312.4647 C141.033,313.5687 140.138,314.4647 139.033,314.4647" id="Fill-17"/><path d="M139.033,397.617 L2,397.617 C0.895,397.617 -2.7000624e-13,396.721 -2.7000624e-13,395.617 C-2.7000624e-13,394.513 0.895,393.617 2,393.617 L139.033,393.617 C140.138,393.617 141.033,394.513 141.033,395.617 C141.033,396.721 140.138,397.617 139.033,397.617" id="Fill-18"/><path d="M139.033,480.7698 L2,480.7698 C0.895,480.7698 -2.7000624e-13,479.8738 -2.7000624e-13,478.7698 C-2.7000624e-13,477.6658 0.895,476.7698 2,476.7698 L139.033,476.7698 C140.138,476.7698 141.033,477.6658 141.033,478.7698 C141.033,479.8738 140.138,480.7698 139.033,480.7698" id="Fill-19"/><path d="M139.033,563.9227 L2,563.9227 C0.895,563.9227 -2.7000624e-13,563.0267 -2.7000624e-13,561.9227 C-2.7000624e-13,560.8187 0.895,559.9227 2,559.9227 L139.033,559.9227 C140.138,559.9227 141.033,560.8187 141.033,561.9227 C141.033,563.0267 140.138,563.9227 139.033,563.9227" id="Fill-20"/><path d="M139.033,647.118 L2,647.118 C0.895,647.118 -2.7000624e-13,646.222 -2.7000624e-13,645.118 C-2.7000624e-13,644.014 0.895,643.118 2,643.118 L139.033,643.118 C140.138,643.118 141.033,644.014 141.033,645.118 C141.033,646.222 140.138,647.118 139.033,647.118" id="Fill-21"/></g></g><g id="black" transform="translate(555.000200, 0.999825)"><g id="shoe" transform="translate(0.000000, 269.859175)"><polygon id="Fill-23" fill="#FFF" points="53.6968 516.743 141.3938 516.743 141.3938 1.981 53.6968 1.981"/><path d="M51.6968,518.744 L143.3938,518.744 L143.3938,-1.70530257e-13 L51.6968,-1.70530257e-13 L51.6968,518.744 Z M55.6968,514.743 L139.3938,514.743 L139.3938,3.961 L55.6968,3.961 L55.6968,514.743 Z" id="Fill-24" fill="#000"/><path d="M85.241,608.478 C84.222,583.413 121.931,583.424 120.907,608.478 L141.393,608.478 L141.393,401.124 L53.659,401.124 C53.696,426.93 53.632,533.227 53.659,561.076 C53.683,562.22 52.617,563.182 51.485,563.076 C30.392,562.203 0.788,578.421 2.028,608.478 L85.241,608.478 Z" id="Fill-25" fill="#FFF"/><path d="M51.659,399.1435 L51.659,561.0765 C48.185,561.0925 0.081,561.7835 1.42108547e-14,610.4775 L87.526,610.4775 C83.633,585.4585 122.521,585.4735 118.622,610.4775 L143.393,610.4775 L143.393,399.1435 L51.659,399.1435 Z M55.659,403.1055 L139.393,403.1055 L139.393,606.4775 L122.933,606.4775 C121.947,581.5065 84.196,581.5215 83.216,606.4775 L4.12,606.4775 C3.779,578.7665 32.442,564.2065 51.486,565.0775 C53.692,565.2055 55.704,563.2925 55.659,561.0765 C55.658,534.0145 55.659,428.1735 55.659,403.1055 L55.659,403.1055 Z" id="Fill-26" fill="#000"/><polygon id="Fill-27" fill="#000" points="6.3478 590.392 141.4708 590.392 141.4708 586.392 6.3478 586.392"/><path d="M51.7057,555.875 L51.6877,551.875 C61.8597,551.829 66.4917,544.003 66.4907,536.752 C66.4897,529.5 61.8577,521.674 51.6877,521.63 L51.7057,517.63 C64.0367,517.684 70.4897,527.29 70.4907,536.752 C70.4917,546.212 64.0397,555.819 51.7057,555.875" id="Fill-28" fill="#000"/><polygon id="Fill-29" fill="#FFF" points="53.6968 516.743 141.3938 516.743 141.3938 1.98 53.6968 1.98"/><path d="M51.6968,518.744 L143.3938,518.744 L143.3938,-1.70530257e-13 L51.6968,-1.70530257e-13 L51.6968,518.744 Z M55.6968,514.743 L139.3938,514.743 L139.3938,3.961 L55.6968,3.961 L55.6968,514.743 Z" id="Fill-30" fill="#000"/></g><g id="leg" transform="translate(24.036700, 0.000000)" fill="#000"><path d="M3.12638804e-13,111.038375 C0.458,-37.0216248 265.581,-37.0066248 266.012,111.046375 C265.555,259.098375 0.432,259.083375 3.12638804e-13,111.038375" id="Fill-22"/><path d="M0.2468,788.602775 L137.6238,788.602775 C137.2038,767.732775 137.9268,177.653775 137.6228,134.562775 C137.6238,96.9907752 106.8708,66.5327752 68.9348,66.5327752 C30.9998,66.5327752 0.2468,96.9907752 0.2468,134.561775 C0.1058,179.341775 0.3478,766.072775 0.2468,788.602775" id="Fill-31"/></g></g></g></g><g id="Upper Body" transform="translate(-53.000000, 129.000000) scale(1 1)"><g id="Upper Body/Holding Phone" stroke="none" stroke-width="1" fill="none" fill-rule="evenodd"><g id="left" transform="translate(722.000000, 310.000000)"><g id="Group-3" transform="translate(70.330691, 89.353369)"><path d="M363.159692,2.51563644 C359.453692,3.60363644 356.137692,5.71463644 354.808692,9.29263644 C351.123692,19.2916364 346.912692,28.6766364 342.349692,37.3916364 C327.140282,68.197577 306.035514,84.4069811 281.864803,90.630935 C215.314752,107.767562 125.522257,49.20598 71.5446916,11.1916364 L2.00069158,106.562636 C171.886692,235.158636 390.385692,280.669636 471.315692,33.5636364 C461.574692,31.8346364 371.012692,-2.97936356 363.159692,2.51563644 Z" id="Fill-1" fill="#FFF"/><path d="M4.77539158,106.151536 C58.0113916,146.215536 113.694392,176.248536 165.923392,193.057536 C224.646392,211.956536 277.684392,214.261536 323.564392,199.909536 C390.449392,178.986536 439.283392,123.508536 468.737392,34.9925364 C464.194392,33.7275364 455.169392,30.6215364 443.450392,26.5885364 C428.393392,21.4075364 409.654392,14.9585364 394.013392,10.2675364 C369.372392,2.87853644 365.037392,3.72553644 364.296392,4.16153644 C364.118392,4.28553644 363.931392,4.37353644 363.722392,4.43453644 C361.174392,5.18253644 357.885392,6.75353644 356.683392,9.98853644 C353.102392,19.7055364 348.875392,29.2385364 344.121392,38.3185364 C329.693392,67.5435364 308.826392,85.8305364 282.121392,92.6295364 C252.551392,100.158536 215.170392,93.6715364 171.020392,73.3485364 C134.168392,56.3855364 98.9103916,32.8615364 72.0013916,13.9595364 L4.77539158,106.151536 Z M260.347392,213.189536 C230.474392,213.189536 198.504392,207.745536 164.697392,196.865536 C111.533392,179.755536 54.8563916,149.080536 0.793391576,108.157536 C-0.076608424,107.499536 -0.258608424,106.265536 0.384391576,105.384536 L69.9283916,10.0135364 C70.5713916,9.13153644 71.8033916,8.92853644 72.6953916,9.55653644 C99.6613916,28.5475364 135.396392,52.5475364 172.693392,69.7145364 C215.989392,89.6445364 252.474392,96.0495364 281.135392,88.7535364 C306.655392,82.2555364 326.648392,64.6765364 340.556392,36.5055364 C345.252392,27.5355364 349.408392,18.1615364 352.932392,8.60053644 C354.319392,4.86653644 357.575392,2.12853644 362.358392,0.668536439 C368.395392,-2.49846356 395.052392,5.70253644 444.751392,22.8065364 C457.666392,27.2505364 468.819392,31.0895364 471.665392,31.5945364 C472.235392,31.6955364 472.734392,32.0395364 473.031392,32.5365364 C473.329392,33.0335364 473.396392,33.6355364 473.216392,34.1865364 C443.410392,125.193536 393.462392,182.234536 324.758392,203.726536 C304.588392,210.036536 283.074392,213.189536 260.347392,213.189536 L260.347392,213.189536 Z" id="Fill-3" fill="#000"/></g><g id="Group-2" transform="translate(408.348919, 46.766133)"><path d="M64.1616635,59.5644725 C67.4006635,45.8594725 79.6776635,20.5474725 74.6336635,7.75847253 C69.3236635,-2.31952747 55.0356635,1.79347253 52.8926635,12.7374725 C49.1056635,29.1774725 44.4556635,45.1924725 38.7966635,60.4424725" id="Fill-5" fill="#FFF"/><path d="M38.7962635,62.4433725 C38.5652635,62.4433725 38.3302635,62.4033725 38.1002635,62.3183725 C37.0652635,61.9333725 36.5372635,60.7823725 36.9212635,59.7473725 C42.3272635,45.1813725 47.0452635,29.2143725 50.9442635,12.2883725 C52.1792635,5.97137253 57.2222635,1.06737253 63.4762635,0.148372529 C68.9452635,-0.655627471 73.7762635,1.84137253 76.4032635,6.82537253 C76.4372635,6.89037253 76.4672635,6.95637253 76.4942635,7.02437253 C80.3932635,16.9113725 75.0462635,32.6193725 70.3292635,46.4783725 C68.6142635,51.5163725 66.9942635,56.2763725 66.1082635,60.0243725 C65.8542635,61.0993725 64.7752635,61.7653725 63.7022635,61.5103725 C62.6272635,61.2563725 61.9612635,60.1793725 62.2152635,59.1043725 C63.1452635,55.1693725 64.7962635,50.3213725 66.5422635,45.1893725 C70.7992635,32.6853725 76.0922635,17.1373725 72.8132635,8.59437253 C70.9772635,5.19237253 67.7932635,3.55537253 64.0582635,4.10537253 C60.2462635,4.66537253 55.9232635,7.67037253 54.8552635,13.1223725 C50.9042635,30.2793725 46.1362635,46.4123725 40.6712635,61.1383725 C40.3722635,61.9443725 39.6082635,62.4433725 38.7962635,62.4433725" id="Fill-7" fill="#000"/><path d="M64.1616635,59.5644725 C68.7846635,46.0144725 72.6596635,32.1384725 75.8906635,18.0644725 C76.7506635,14.3314725 78.8086635,11.2344725 81.3956635,9.19047253 C86.6256635,4.78247253 94.7746635,6.36447253 97.7256635,12.6514725 C102.629664,26.4054725 90.0676635,52.3854725 86.5006635,67.1954725" id="Fill-9" fill="#FFF"/><path d="M86.5022635,69.1962725 C86.3472635,69.1962725 86.1902635,69.1782725 86.0322635,69.1402725 C84.9582635,68.8812725 84.2972635,67.8012725 84.5562635,66.7272725 C85.5792635,62.4772725 87.3172635,57.3612725 89.1562635,51.9432725 C93.5862635,38.8942725 99.0962635,22.6652725 95.8742635,13.4162725 C94.7542635,11.0952725 92.6612635,9.44927253 90.1192635,8.89227253 C87.4632635,8.31027253 84.7532635,8.97627253 82.6842635,10.7202725 C80.2622635,12.6352725 78.5592635,15.3892725 77.8392635,18.5142725 C74.5072635,33.0252725 70.5432635,47.0542725 66.0542635,60.2102725 C65.6982635,61.2552725 64.5602635,61.8132725 63.5162635,61.4572725 C62.4702635,61.1002725 61.9122635,59.9642725 62.2692635,58.9182725 C66.7122635,45.8922725 70.6392635,31.9962725 73.9412635,17.6172725 C74.8652635,13.6082725 77.0712635,10.0592725 80.1552635,7.62227253 C83.1342635,5.11027253 87.0952635,4.13427253 90.9762635,4.98527253 C94.7732635,5.81727253 97.8932635,8.30227253 99.5362635,11.8012725 C99.5632635,11.8602725 99.5882635,11.9192725 99.6092635,11.9802725 C103.369264,22.5252725 97.8302635,38.8372725 92.9442635,53.2292725 C91.1352635,58.5582725 89.4262635,63.5912725 88.4452635,67.6642725 C88.2242635,68.5802725 87.4052635,69.1962725 86.5022635,69.1962725" id="Fill-11" fill="#000"/><path d="M86.5005635,67.1957725 C91.4265635,52.7557725 95.5045635,38.1207725 98.8885635,23.3927725 C99.7885635,19.4847725 101.881564,16.2317725 104.489564,14.0847725 C114.017564,6.28277253 125.078564,16.5237725 121.885564,28.7207725 C118.350564,44.1037725 114.069564,59.4967725 108.839564,74.8277725" id="Fill-13" fill="#FFF"/><path d="M108.840164,76.8281725 C108.626164,76.8281725 108.408164,76.7931725 108.194164,76.7201725 C107.149164,76.3641725 106.590164,75.2271725 106.947164,74.1821725 C111.906164,59.6421725 116.277164,44.1961725 119.936164,28.2721725 C121.614164,21.8601725 118.850164,16.7061725 115.577164,14.6071725 C112.523164,12.6481725 108.944164,13.0221725 105.757164,15.6321725 C103.348164,17.6141725 101.600164,20.5311725 100.837164,23.8411725 C97.3261635,39.1261725 93.1391635,53.9301725 88.3931635,67.8411725 C88.0361635,68.8871725 86.8991635,69.4451725 85.8551635,69.0881725 C84.8091635,68.7321725 84.2511635,67.5951725 84.6081635,66.5501725 C89.3091635,52.7681725 93.4581635,38.0971725 96.9391635,22.9451725 C97.8991635,18.7781725 100.129164,15.0831725 103.219164,12.5401725 C107.771164,8.81317253 113.196164,8.32817253 117.736164,11.2401725 C123.177164,14.7301725 125.679164,22.1271725 123.820164,29.2271725 C120.144164,45.2251725 115.736164,60.8041725 110.733164,75.4731725 C110.449164,76.3051725 109.672164,76.8281725 108.840164,76.8281725" id="Fill-15" fill="#000"/><path d="M34.0215635,72.4057725 C36.8485635,63.0317725 45.0615635,52.4167725 41.3085635,42.3787725 C38.0395635,34.6427725 26.7565635,33.8697725 21.8105635,40.3177725 C14.5415635,54.7937725 10.0555635,71.5787725 2.0005635,84.2207725" id="Fill-23" fill="#FFF"/><path d="M1.9981635,86.2209725 C1.6301635,86.2209725 1.2581635,86.1199725 0.925163502,85.9079725 C-0.00583649795,85.3139725 -0.279836498,84.0779725 0.313163502,83.1459725 C4.9221635,75.9119725 8.3031635,67.3759725 11.8831635,58.3389725 C14.3821635,52.0309725 16.9661635,45.5079725 20.0231635,39.4199725 C20.0791635,39.3069725 20.1461635,39.1999725 20.2231635,39.0999725 C23.0791635,35.3779725 27.9311635,33.4609725 32.8841635,34.0939725 C37.5811635,34.6949725 41.4191635,37.5019725 43.1511635,41.6009725 C46.1281635,49.5589725 42.4821635,57.6299725 39.2651635,64.7499725 C37.9581635,67.6419725 36.7231635,70.3739725 35.9361635,72.9829725 C35.6171635,74.0409725 34.5011635,74.6389725 33.4441635,74.3209725 C32.3861635,74.0019725 31.7881635,72.8859725 32.1071635,71.8279725 C32.9701635,68.9659725 34.3171635,65.9849725 35.6191635,63.1029725 C38.6601635,56.3739725 41.8041635,49.4149725 39.4351635,43.0799725 C38.2771635,40.3439725 35.6931635,38.4859725 32.3761635,38.0619725 C28.8961635,37.6159725 25.5161635,38.8899725 23.5081635,41.3929725 C20.5691635,47.2729725 18.0441635,53.6469725 15.6021635,59.8119725 C12.1111635,68.6259725 8.5011635,77.7399725 3.6871635,85.2949725 C3.3051635,85.8939725 2.6591635,86.2209725 1.9981635,86.2209725" id="Fill-25" fill="#000"/><path d="M108.839964,74.8276725 C115.604964,62.1446725 116.384964,23.7166725 134.399964,26.9286725 C153.352964,33.2066725 133.997964,68.3876725 131.178964,82.4586725" id="Fill-27" fill="#FFF"/><path d="M131.181464,84.4594725 C131.051464,84.4594725 130.919464,84.4464725 130.786464,84.4194725 C129.703464,84.2034725 129.001464,83.1494725 129.218464,82.0664725 C129.932464,78.4984725 131.587464,73.8544725 133.503464,68.4764725 C137.809464,56.3924725 143.168464,41.3524725 139.318464,33.4694725 C138.237464,31.2564725 136.467464,29.7524725 133.908464,28.8734725 C124.193464,27.2754725 120.211464,40.6004725 116.020464,58.1754725 C114.371464,65.0934725 112.813464,71.6274725 110.604464,75.7684725 C110.084464,76.7434725 108.873464,77.1124725 107.898464,76.5924725 C106.924464,76.0724725 106.555464,74.8614725 107.075464,73.8864725 C109.041464,70.1994725 110.541464,63.9084725 112.129464,57.2474725 C115.830464,41.7254725 120.437464,22.4084725 134.751464,24.9594725 C134.845464,24.9764725 134.938464,24.9994725 135.029464,25.0294725 C138.685464,26.2404725 141.337464,28.4904725 142.912464,31.7144725 C147.500464,41.1094725 141.828464,57.0284725 137.271464,69.8194725 C135.485464,74.8324725 133.798464,79.5674725 133.140464,82.8514725 C132.950464,83.8024725 132.115464,84.4594725 131.181464,84.4594725" id="Fill-29" fill="#000"/></g><path d="M157.455883,96.5247056 C141.157883,84.9727056 125.134883,72.6397056 109.522883,59.7657056 C81.4288826,37.2017056 53.7404551,35.5852056 32.8293745,35.5852056 C-3.84574202,35.5852056 -10.4681174,143.583706 19.8228826,168.493706 C37.9358826,183.429706 56.5708826,197.784706 75.9358826,211.513706 L157.455883,96.5247056 Z" id="Fill-31" fill="#000"/><g id="Group" transform="translate(442.479531, 0.000000)"><path d="M63.0537516,147.721506 L14.4697516,135.238506 C5.59075161,132.957506 0.242751612,123.910506 2.52375161,115.031506 L28.3597516,14.4755056 C30.6417516,5.59650555 39.6887516,0.248505552 48.5667516,2.52950555 L97.1507516,15.0135056 C106.029752,17.2945056 111.377752,26.3405056 109.096752,35.2195056 L83.2607516,135.775506 C80.9787516,144.654506 71.9317516,150.002506 63.0537516,147.721506" id="Fill-42" fill="#FFF"/><path d="M44.4112516,4.00170555 C41.8302516,4.00170555 39.2872516,4.69170555 37.0072516,6.03970555 C33.6512516,8.02370555 31.2672516,11.1967056 30.2972516,14.9737056 L4.46125161,115.529706 C2.45725161,123.325706 7.17125161,131.298706 14.9672516,133.301706 L63.5512516,145.784706 C67.3282516,146.754706 71.2562516,146.195706 74.6132516,144.211706 C77.9702516,142.227706 80.3532516,139.054706 81.3232516,135.277706 L107.160252,34.7217056 C109.163252,26.9257056 104.450252,18.9527056 96.6532516,16.9497056 L48.0692516,4.46670555 C46.8572516,4.15570555 45.6302516,4.00170555 44.4112516,4.00170555 M67.1822516,150.245706 C65.6542516,150.245706 64.1022516,150.055706 62.5562516,149.658706 L13.9712516,137.175706 C4.03925161,134.623706 -1.96474839,124.466706 0.587251612,114.533706 L26.4232516,13.9777056 C27.6592516,9.16670555 30.6952516,5.12470555 34.9722516,2.59570555 C39.2482516,0.0677055517 44.2532516,-0.643294448 49.0642516,0.592705552 L97.6492516,13.0757056 C107.581252,15.6277056 113.586252,25.7847056 111.034252,35.7177056 L85.1972516,136.273706 C83.0422516,144.659706 75.4662516,150.245706 67.1822516,150.245706" id="Fill-43" fill="#000"/><path d="M69.9097516,128.695806 L17.6337516,115.264806 C14.6907516,114.507806 12.9187516,111.509806 13.6747516,108.567806 L37.5147516,15.7798056 C38.2707516,12.8378056 41.2687516,11.0648056 44.2117516,11.8208056 L96.4877516,25.2528056 C99.4307516,26.0088056 101.202752,29.0068056 100.446752,31.9498056 L76.6067516,124.736806 C75.8507516,127.679806 72.8527516,129.451806 69.9097516,128.695806" id="Fill-44" fill="#ff8310"/><path d="M43.5242516,125.352806 C47.9432516,130.159806 40.2932516,136.989806 36.0162516,132.054806 C31.5972516,127.248806 39.2482516,120.418806 43.5242516,125.352806" id="Fill-45" fill="#ff8310"/></g></g><g id="torso" transform="translate(495.000000, 296.000000)"><path d="M333.395,374.716706 C334.415,385.639706 325.821,395.073706 314.85,395.073706 L19.111,395.073706 C9.448,395.073706 1.277,387.919706 -1.13686838e-12,378.340706 L15.307,110.595706 C11.03,78.5147058 35.989,50.0077058 68.354,50.0077058 L261.779,50.0077058 C303.71,50.3197058 336.762,87.8447058 333.304,129.568706 C333.304,129.568706 333.395,374.716706 333.395,374.716706" id="Fill-33" fill="#ff8310"/><path d="M246.3354,50.0080058 C222.1204,-51.9649942 42.0814,20.1250058 158.9964,105.243006 C161.0954,106.948006 164.1424,106.783006 166.0554,104.869006 L179.9214,91.0030058 L193.7414,77.1830058 C200.3604,83.6150058 213.9684,96.8290058 220.6314,103.304006 C230.8254,113.815006 247.1564,62.9830058 246.3354,50.0080058" id="Fill-35" fill="#ff8310"/><path d="M163.3225,107.350806 C161.5575,107.350806 159.4585,106.708806 157.0335,105.430806 C141.9055,97.4588058 116.3325,65.7488058 118.7495,49.7838058 C118.8735,48.9648058 119.6385,48.4028058 120.4575,48.5248058 C121.2765,48.6488058 121.8395,49.4138058 121.7155,50.2328058 C120.7495,56.6128058 125.2875,67.3718058 133.8555,79.0128058 C141.6315,89.5778058 151.5075,99.1278058 158.4315,102.776806 C160.2625,103.740806 163.5545,105.153806 165.0325,103.773806 C168.8015,99.9998058 174.7425,94.0588058 180.4615,88.3418058 L192.6805,76.1228058 C193.2605,75.5418058 194.1985,75.5348058 194.7875,76.1068058 L221.6765,102.227806 C222.6765,103.257806 223.5805,103.465806 224.7335,102.956806 C233.4035,99.1198058 245.5675,61.6248058 244.8385,50.1028058 C244.7865,49.2758058 245.4135,48.5638058 246.2405,48.5108058 C247.0685,48.4608058 247.7805,49.0868058 247.8325,49.9128058 C248.5725,61.6048058 236.3715,101.086806 225.9475,105.699806 C223.6545,106.715806 221.3835,106.234806 219.5545,104.347806 L193.7575,79.2888058 L182.5825,90.4628058 C176.8645,96.1798058 170.9235,102.119806 167.1175,105.930806 C166.1025,106.878806 164.8355,107.350806 163.3225,107.350806" id="Fill-38" fill="#000"/></g><g id="right" transform="translate(483.000000, 345.000000)"><path d="M482.098041,257.41176 C427.876041,146.33476 468.472041,154.17476 358.191041,194.51576 C298.560041,214.10876 206.148041,247.02076 147.739041,218.86876 C122.654041,202.57176 123.723041,168.55676 125.427041,140.48576 L30.974041,132.03576 C25.697041,131.52976 20.927041,136.36576 20.565041,142.96076 C16.883041,196.71076 30.888041,258.66976 75.271041,295.02776 C178.748041,377.91076 350.845041,310.33076 459.144041,267.23176 C453.386041,269.64276 441.758041,274.40176 435.963041,276.72076 C445.789041,302.32776 493.480041,282.41176 482.098041,257.41176" id="Fill-46" fill="#FFF"/><path d="M25.935241,135.68506 C23.955241,137.38706 22.726241,140.07906 22.562241,143.07006 C20.601241,171.69106 23.795241,199.98006 31.797241,224.90506 C41.025241,253.64806 56.078241,276.72006 76.538241,293.48006 C179.848241,376.23006 354.220241,306.83506 458.405241,265.37306 C459.424241,264.96806 460.581241,265.45906 460.996241,266.47506 C461.411241,267.49106 460.929241,268.65206 459.917241,269.07606 C454.782241,271.22706 444.797241,275.31806 438.629241,277.80406 C441.720241,283.86906 447.141241,285.86106 451.323241,286.43806 C460.911241,287.76006 472.496241,282.91006 478.269241,275.16006 C481.016241,271.47306 483.594241,265.54906 480.288241,258.26406 C467.799241,232.67706 460.341241,213.41806 454.894241,199.35306 C452.583689,193.387509 450.632477,188.349484 448.822858,184.205431 C445.404631,176.377645 445.61824,170.17451 441.742871,168.5 C435.339871,165.735 423.212256,171.492133 400.167241,180.31406 C389.085062,184.55646 375.953241,190.14806 358.878241,196.39406 C355.985241,197.34506 353.080241,198.30606 350.109241,199.28806 C320.491241,209.07806 283.631241,221.26106 247.457241,227.54506 C204.759241,234.96206 171.857241,232.71306 146.870241,220.67006 C146.794241,220.63406 146.720241,220.59206 146.649241,220.54606 C120.320241,203.44106 121.819241,167.22006 123.313241,142.30406 L30.796241,134.02806 C30.609241,134.01006 30.422241,134.00106 30.235241,134.00106 C28.715241,134.00106 27.210241,134.58806 25.935241,135.68506 Z M74.021241,296.58906 C52.938241,279.31806 37.456241,255.61606 27.989241,226.12806 C19.834241,200.72406 16.576241,171.91906 18.570241,142.82406 C18.791241,138.77906 20.526241,135.06106 23.327241,132.65206 C25.593241,130.70406 28.377241,129.77806 31.165241,130.04506 L125.605241,138.49306 C126.683241,138.59006 127.488241,139.52606 127.423241,140.60606 C125.574241,171.07206 125.698241,202.07006 148.722241,217.12206 C203.636241,243.49406 291.016241,214.60806 348.853241,195.49006 C351.827241,194.50706 354.734241,193.54606 357.567241,192.61506 C374.513241,186.41506 387.903241,180.97706 398.662241,176.60806 C421.732241,167.23906 435.387871,161.398 443.328871,164.828 C448.458771,167.043902 448.665667,173.766099 452.615932,182.886289 C454.41484,187.039525 456.341646,192.014615 458.624241,197.90806 C464.047241,211.91106 471.474241,231.08806 483.895241,256.53406 C483.903241,256.55006 483.911241,256.56706 483.918241,256.58306 C487.141241,263.66306 486.274241,271.10906 481.477241,277.55006 C474.791241,286.52506 461.881241,291.92806 450.777241,290.40006 C443.404241,289.38406 437.783241,285.36906 434.775241,279.02706 C367.954241,305.19606 280.846241,336.19406 201.239241,336.198108 C154.331241,336.20106 110.042241,325.44106 74.021241,296.58906 Z" id="Fill-47" fill="#000"/><path d="M441.458256,187.305011 C454.734256,181.554011 467.956256,175.613011 481.138256,169.550011 C488.133256,166.287011 491.545256,158.858011 488.763256,152.964011 L488.762256,152.964011 C485.979256,147.068011 478.134256,144.903011 471.237256,148.119011 C455.282256,155.482011 439.271256,162.605011 423.212256,169.430011" id="Fill-48" fill="#FFF"/><path d="M441.459156,189.305411 C440.686156,189.305411 439.950156,188.854411 439.623156,188.099411 C439.184156,187.086411 439.650156,185.908411 440.663156,185.469411 C453.091156,180.086411 466.057156,174.284411 480.302156,167.732411 C483.550156,166.218411 486.047156,163.604411 487.145156,160.565411 C487.982156,158.248411 487.914156,155.852411 486.954156,153.817411 C484.645156,148.927411 477.974156,147.184411 472.083156,149.931411 C455.684156,157.499411 439.507156,164.677411 423.995156,171.270411 C422.978156,171.703411 421.804156,171.229411 421.372156,170.212411 C420.940156,169.195411 421.414156,168.021411 422.430156,167.589411 C437.905156,161.012411 454.044156,153.850411 470.399156,146.303411 C478.273156,142.630411 487.325156,145.234411 490.571156,152.110411 C491.989156,155.114411 492.108156,158.599411 490.907156,161.924411 C489.450156,165.956411 486.198156,169.396411 481.983156,171.362411 C467.701156,177.930411 454.709156,183.744411 442.253156,189.140411 C441.994156,189.252411 441.724156,189.305411 441.459156,189.305411" id="Fill-49" fill="#000"/><path d="M141.031341,151.23266 C141.031341,151.23266 141.802038,129.816301 144.448454,91.3065361 C147.09487,52.7967716 139.359341,21.0636596 105.782341,5.94965961 C78.403341,-6.64434039 46.130341,4.48765961 28.307341,28.2856596 C5.94134103,61.8196596 4.33734103,103.56766 0.212341026,145.06166 L141.031341,151.23266 Z" id="Fill-50" fill="#000"/></g></g></g><g id="Hairstyle" transform="translate(569.000000, 275.000000) scale(1 1)"><g id="Hairstyle/Long Hair" stroke="none" stroke-width="1" fill="none" fill-rule="evenodd"><g id="hair" transform="translate(-2.000000, 34.612000)" fill="#000"><path d="M132.3767,132.7646 L-0.0003,132.7646 L-0.0003,66.5766 C-0.0003,30.0216 29.6337,0.3876 66.1887,0.3876 L66.1887,0.3876 C102.7427,0.3876 132.3767,30.0216 132.3767,66.5766 L132.3767,132.7646 Z" id="Fill-1"/><path d="M3.55271368e-15,167.4407 L3.55271368e-15,167.4407 L3.55271368e-15,131.4407 L31.882,131.4407 L31.882,134.341381 C31.882,152.62169 17.608,167.4407 3.55271368e-15,167.4407" id="Fill-20"/><path d="M128.7349,167.4407 L132.3769,167.4407 L132.3769,131.4407 L96.8529,131.4407 L96.8529,134.341381 C96.8529,152.62169 111.1269,167.4407 128.7349,167.4407" id="Fill-22"/></g><g id="head" transform="translate(18.000000, 63.573900)"><path d="M113.8948,43.543 C113.8948,51.956 107.0748,58.776 98.6618,58.776 C90.2488,58.776 83.4288,51.956 83.4288,43.543 C83.4288,35.13 90.2488,28.31 98.6618,28.31 C107.0748,28.31 113.8948,35.13 113.8948,43.543" id="Fill-4" fill="#FFF"/><path d="M98.6619,30.3101 C91.3649,30.3101 85.4289,36.2461 85.4289,43.5431 C85.4289,50.8401 91.3649,56.7761 98.6619,56.7761 C105.9589,56.7761 111.8949,50.8401 111.8949,43.5431 C111.8949,36.2461 105.9589,30.3101 98.6619,30.3101 M98.6619,60.7761 C89.1599,60.7761 81.4289,53.0451 81.4289,43.5431 C81.4289,34.0411 89.1599,26.3101 98.6619,26.3101 C108.1639,26.3101 115.8949,34.0411 115.8949,43.5431 C115.8949,53.0451 108.1639,60.7761 98.6619,60.7761" id="Fill-6" fill="#000"/><path d="M47.5589,143.0381 L47.5589,143.0381 C28.6019,143.0381 11.1249,128.5001 11.1249,111.1431 L27.2349,51.4801 C27.2349,34.1231 22.6019,20.0521 41.5589,20.0521 L61.5589,20.0521 C80.5159,20.0521 75.8829,34.1231 75.8829,51.4801 L75.8829,111.6101 C75.8829,128.9671 66.5159,143.0381 47.5589,143.0381" id="Fill-8" fill="#FFF"/><path d="M13.126,111.4031 C13.299,127.2201 29.315,141.0381 47.559,141.0381 C66.968,141.0381 73.883,125.8371 73.883,111.6101 L73.883,51.4801 C73.883,48.4321 74.021,45.5361 74.155,42.7351 C74.522,35.0281 74.84,28.3731 71.66,25.0381 C69.744,23.0291 66.44,22.0521 61.559,22.0521 L41.559,22.0521 C36.678,22.0521 33.374,23.0291 31.458,25.0381 C28.278,28.3731 28.595,35.0281 28.963,42.7351 C29.096,45.5361 29.235,48.4321 29.235,51.4801 L29.235,51.7461 L13.126,111.4031 Z M47.559,145.0381 C27.084,145.0381 9.125,129.1991 9.125,111.1431 L9.125,110.8781 L25.234,51.2161 C25.227,48.3581 25.095,45.5971 24.968,42.9251 C24.556,34.3011 24.201,26.8531 28.563,22.2781 C31.274,19.4341 35.525,18.0521 41.559,18.0521 L61.559,18.0521 C67.593,18.0521 71.844,19.4341 74.555,22.2781 C78.917,26.8531 78.562,34.3011 78.15,42.9251 C78.019,45.6801 77.883,48.5281 77.883,51.4801 L77.883,111.6101 C77.883,131.9171 65.98,145.0381 47.559,145.0381 L47.559,145.0381 Z" id="Fill-10" fill="#000"/><path d="M59.158,90.97 C41.691,90.97 25.929,80.61 19.002,64.578 L18.351,63.073 C8.79,40.942 19.016,15.158 41.147,5.596 C46.67,3.21 52.498,2 58.467,2 C75.934,2 91.697,12.36 98.623,28.392 L99.274,29.897 C108.835,52.028 98.609,77.812 76.478,87.374 C70.955,89.76 65.127,90.97 59.158,90.97" id="Fill-12" fill="#FFF"/><path d="M58.4683,2.27373675e-13 L58.4673,2.27373675e-13 C52.2233,2.27373675e-13 46.1293,1.266 40.3533,3.761 C29.1433,8.604 20.4893,17.524 15.9863,28.876 C11.4843,40.229 11.6713,52.655 16.5153,63.866 L17.1653,65.371 C24.4093,82.137 40.8923,92.97 59.1583,92.97 C65.4013,92.97 71.4963,91.705 77.2713,89.209 C88.4823,84.366 97.1363,75.446 101.6393,64.094 C106.1413,52.741 105.9533,40.315 101.1093,29.104 L100.4593,27.599 C93.2163,10.833 76.7333,2.27373675e-13 58.4683,2.27373675e-13 M58.4673,4 C74.6103,4 89.9783,13.424 96.7873,29.186 L97.4373,30.69 C106.5763,51.843 96.8373,76.399 75.6853,85.538 C70.2933,87.867 64.6803,88.97 59.1583,88.97 C43.0153,88.97 27.6473,79.546 20.8373,63.785 L20.1873,62.28 C11.0483,41.127 20.7873,16.571 41.9403,7.433 C47.3323,5.103 52.9453,4 58.4673,4" id="Fill-14" fill="#000"/><path d="M17.9632,58.7759 C9.5502,58.7759 2.7302,51.9559 2.7302,43.5429 C2.7302,35.1299 9.5502,28.3099 17.9632,28.3099 C19.0152,28.3099 20.0412,28.4169 21.0332,28.6199" id="Fill-16" fill="#FFF"/><path d="M17.9632,60.7759 C8.4612,60.7759 0.7302,53.0449 0.7302,43.5429 C0.7302,34.0409 8.4612,26.3099 17.9632,26.3099 C19.1302,26.3099 20.2982,26.4279 21.4342,26.6599 C22.5162,26.8819 23.2142,27.9389 22.9922,29.0209 C22.7712,30.1029 21.7132,30.7999 20.6322,30.5789 C19.7602,30.4009 18.8622,30.3099 17.9632,30.3099 C10.6662,30.3099 4.7302,36.2459 4.7302,43.5429 C4.7302,50.8399 10.6662,56.7759 17.9632,56.7759 C19.0672,56.7759 19.9632,57.6719 19.9632,58.7759 C19.9632,59.8799 19.0672,60.7759 17.9632,60.7759" id="Fill-18" fill="#000"/></g><circle id="Oval" fill="#000" cx="46" cy="82" r="14"/><ellipse id="Oval" fill="#000" cx="90" cy="63" rx="39" ry="22"/><path d="M83.1469751,123.991627 L90.7079751,123.991627 C92.7929751,123.991627 94.3369751,120.960627 93.8709751,117.781627 L90.6869751,96.0426271 C89.9479751,90.9976271 85.4229751,90.7156271 84.4289751,95.6516271 L80.0519751,117.390627 C79.3939751,120.661627 80.9549751,123.991627 83.1469751,123.991627" id="Fill-9" fill="#ff8310"/></g></g><g id="Face" transform="translate(589.000000, 365.000000) scale(1 1)" fill="#000"><g id="Face/Beard" stroke="none" stroke-width="1" fill="none" fill-rule="evenodd"><path d="M98.0639,-1 C101.128923,-1 103.626299,1.42609627 103.740798,4.46305966 L103.7449,4.681 L103.7449,29.803 C103.7449,30.2428824 103.696561,30.6714568 103.604903,31.0837018 L103.501724,31.8656728 C102.207592,41.1969033 94.8050997,79.0512 59.872,79.0512 C23.2143681,79.0512 16.8733039,38.9149288 16.0935395,32.4954461 C16.0317706,32.2189216 15.9999,31.9301761 15.9999,31.634 L15.9999,4.681 C15.9999,1.543 18.5429,-1 21.6809,-1 C24.8179,-1 27.3619,1.543 27.3619,4.681 L27.362,27.2232 C27.362,32.3865207 30.9110137,39.640296 36.4785581,46.1029364 C35.6907345,40.018504 35.7972726,33.4381495 38.7064,29.3812 C40.6074,26.7292 43.4884,25.3282 47.0364,25.3282 C53.2004238,25.3282 56.8957464,26.7786881 59.7844107,28.1509402 L61.8562358,29.1554478 C64.8932287,30.5960665 67.0954315,31.1528535 73.157035,28.3730139 L73.5254,28.2022 C80.4794,24.9442 84.7004,24.4522 87.6404,26.5602 C91.442973,29.2855193 91.0455739,34.8129108 90.2059788,42.4468043 C92.321918,37.6276908 92.5459358,33.3852314 92.4874003,31.2559078 C92.435873,30.9967976 92.4028553,30.7309113 92.3895668,30.4597981 L92.3829,30.187 L92.3829,4.681 C92.3829,1.543 94.9269,-1 98.0639,-1 Z M76.4055298,33.4799576 L76.0714,33.6352 C67.1704,37.8072 63.2464,36.5232 58.2754,34.0872 L57.785228,33.8477131 C55.1599709,32.5709958 52.3126353,31.3282 47.0364,31.3282 C44.9604,31.3282 44.1004,32.1552 43.5824,32.8762 C40.9359359,36.5647786 42.1114907,45.8405908 43.9672791,53.245186 C46.7977401,55.4428008 49.8635663,57.3177744 53.0605136,58.6734537 L59.7193,52.0144 C61.7543,49.9794 65.0553,49.9794 67.0903,52.0144 L73.725,58.6492 C77.6605414,56.6820735 80.7794214,54.4617901 83.248942,52.1481933 C83.4079506,49.5592576 83.658143,47.0838007 83.909792,44.7840734 L84.3381083,40.8815935 C84.737249,37.0489182 85.0938095,32.3700325 84.215424,31.4958612 L84.1320048,31.4284645 C83.9782236,31.3462766 82.4488252,30.6967033 76.4055298,33.4799576 L76.4055298,33.4799576 Z" id="Shape" fill="#000"/></g></g><g id="Expression" transform="translate(617.000000, 356.000000) scale(1 1)" fill="#000"><g id="Expression/Happy" stroke="none" stroke-width="1" fill="none" fill-rule="evenodd"><path d="M37.01775,54.38275 C31.79075,54.38275 26.56475,52.39375 22.58575,48.41375 C21.80475,47.63275 21.80475,46.36675 22.58575,45.58575 C23.36675,44.80475 24.63275,44.80475 25.41375,45.58575 C31.81175,51.98375 42.22375,51.98375 48.62175,45.58575 C49.40275,44.80475 50.66875,44.80475 51.44975,45.58575 C52.23175,46.36675 52.23175,47.63275 51.44975,48.41375 C47.47175,52.39275 42.24375,54.38275 37.01775,54.38275" id="Fill-1" fill="#000"/><path d="M25.1309185,19.3419183 C22.5579185,19.5899183 20.2699185,17.7049183 20.0219185,15.1319183 C19.7739185,12.5579183 21.6589185,10.2709183 24.2319185,10.0219183 C26.8059185,9.7739183 29.0929185,11.6589183 29.3409185,14.2329183 C29.5899185,16.8059183 27.7049185,19.0939183 25.1309185,19.3419183" id="Fill-3" fill="#000"/><path d="M50.5506185,19.3419183 C47.9766185,19.5899183 45.6896185,17.7049183 45.4416185,15.1319183 C45.1926185,12.5579183 47.0786185,10.2709183 49.6516185,10.0219183 C52.2256185,9.7739183 54.5126185,11.6589183 54.7606185,14.2329183 C55.0096185,16.8059183 53.1236185,19.0939183 50.5506185,19.3419183" id="Fill-6" fill="#000"/></g></g><g id="Glasses" transform="translate(598.000000, 343.000000) scale(1 1)"><g id="Glasses/Round Glasses" stroke="none" stroke-width="1" fill="none" fill-rule="evenodd"><path d="M77.2002,10 C86.5532,10 94.1622,17.609 94.1622,26.962 C94.1622,36.316 86.5532,43.925 77.2002,43.925 C67.8472,43.925 60.2382,36.316 60.2382,26.962 C60.2382,26.3960541 60.2660596,25.8364938 60.3204795,25.2846183 C59.1178333,24.4201628 57.979038,24.7444155 57.2242403,25.1805302 C57.2871245,25.7661085 57.3186,26.3604471 57.3186,26.962 C57.3186,36.316 49.7096,43.925 40.3566,43.925 C31.018336,43.925 23.4185808,36.3399576 23.3946566,27.0061997 L12.0002,27.0063 C10.8952,27.0063 10.0002,26.1113 10.0002,25.0063 C10.0002,23.9013 10.8952,23.0063 12.0002,23.0063 L23.8602166,23.0064541 C25.6468157,15.5549759 32.3651014,10 40.3566,10 C47.6931207,10 53.9565791,14.6817262 56.3163288,21.2145319 C57.7786096,20.66055 59.5140839,20.5111082 61.2355928,21.2273072 C63.5912982,14.6883983 69.8584534,10 77.2002,10 Z M40.3566,14 C33.2096,14 27.3946,19.815 27.3946,26.962 C27.3946,34.11 33.2096,39.925 40.3566,39.925 C47.5046,39.925 53.3186,34.11 53.3186,26.962 C53.3186,19.815 47.5046,14 40.3566,14 Z M77.2002,14 C70.0532,14 64.2382,19.815 64.2382,26.962 C64.2382,34.11 70.0532,39.925 77.2002,39.925 C84.3472,39.925 90.1622,34.11 90.1622,26.962 C90.1622,19.815 84.3472,14 77.2002,14 Z" id="Shape" fill="#ff8310"/></g></g></g></g></g></svg>