<svg viewBox="166.3375000000001 194.62650602409644 1568.3250000000003 1400.3614457831325" fill="none" xmlns="http://www.w3.org/2000/svg" xmlns:xlink="http://www.w3.org/1999/xlink" overflow="visible" width="1568.3250000000003px" height="1400.3614457831325px"><g id="Master/Compositions/Stats and Graphs"><g id="Background Elements Office" transform="translate(173 152) scale(1 1)"><g id="Background Elements Office/Graphs and Stats"><g id="Stock "><path id="Fill 45" fill-rule="evenodd" clip-rule="evenodd" d="M2.96897 907.842C-1.41131 902.803 -0.883195 895.155 4.14601 890.762L687.325 294.676C691.874 290.712 698.643 290.708 703.189 294.672L978.318 534.526L1277.16 260.754C1279.69 258.426 1283.09 257.292 1286.51 257.641C1289.93 257.983 1293.05 259.772 1295.07 262.549L1333.07 314.71L1531.61 97.8032C1535.08 92.0891 1542.52 90.294 1548.21 93.7736C1553.9 97.2567 1555.71 104.707 1552.23 110.414L1344.28 342.782C1342.18 346.231 1338.5 348.403 1334.47 348.569C1330.5 348.738 1326.6 346.877 1324.22 343.612L1283.51 287.74L986.668 559.683C982.139 563.834 975.215 563.913 970.589 559.88L695.264 319.856C695.264 319.856 313.32 653.11 122.349 819.736C88.2369 849.499 20.0137 909.025 20.0137 909.025C17.7287 911.021 14.8982 912 12.0851 912C8.71269 912 5.36103 910.592 2.96897 907.842Z" fill="black"/></g><g id="Pie Chart"><path id="Fill 46" fill-rule="evenodd" clip-rule="evenodd" d="M331.512 86.783C347.661 105.002 357.467 128.972 357.467 155.233C357.467 212.247 311.248 258.467 254.234 258.467C197.22 258.467 151 212.247 151 155.233C151 98.219 197.22 52 254.234 52V155.233L331.512 86.783Z" fill="black"/><path id="Fill 47" fill-rule="evenodd" clip-rule="evenodd" d="M642.819 89.0291H396.91C395.805 89.0291 394.91 88.1331 394.91 87.0291C394.91 85.9251 395.805 85.0291 396.91 85.0291H642.819C643.923 85.0291 644.819 85.9251 644.819 87.0291C644.819 88.1331 643.923 89.0291 642.819 89.0291" fill="black"/><path id="Fill 48" fill-rule="evenodd" clip-rule="evenodd" d="M642.819 134.499H396.91C395.805 134.499 394.91 133.603 394.91 132.499C394.91 131.395 395.805 130.499 396.91 130.499H642.819C643.923 130.499 644.819 131.395 644.819 132.499C644.819 133.603 643.923 134.499 642.819 134.499" fill="black"/><path id="Fill 49" fill-rule="evenodd" clip-rule="evenodd" d="M642.819 179.967H396.91C395.805 179.967 394.91 179.071 394.91 177.967C394.91 176.863 395.805 175.967 396.91 175.967H642.819C643.923 175.967 644.819 176.863 644.819 177.967C644.819 179.071 643.923 179.967 642.819 179.967" fill="black"/><path id="Fill 50" fill-rule="evenodd" clip-rule="evenodd" d="M642.819 225.437H396.91C395.805 225.437 394.91 224.541 394.91 223.437C394.91 222.333 395.805 221.437 396.91 221.437H642.819C643.923 221.437 644.819 222.333 644.819 223.437C644.819 224.541 643.923 225.437 642.819 225.437" fill="black"/></g><g id="Graph"><g id="Graph Bars"><path id="Rectangle (Stroke)" fill-rule="evenodd" clip-rule="evenodd" d="M1083.57 1104H1004.57V1420H1083.57V1104ZM998.57 1098V1426H1089.57V1098H998.57Z" fill="black"/><path id="Rectangle Copy (Stroke)" fill-rule="evenodd" clip-rule="evenodd" d="M1217.57 1192H1138.57V1420H1217.57V1192ZM1132.57 1186V1426H1223.57V1186H1132.57Z" fill="black"/><path id="Rectangle Copy 2 (Stroke)" fill-rule="evenodd" clip-rule="evenodd" d="M1351.57 851H1272.57V1420H1351.57V851ZM1266.57 845V1426H1357.57V845H1266.57Z" fill="black"/><path id="Rectangle Copy 3 (Stroke)" fill-rule="evenodd" clip-rule="evenodd" d="M1485.57 660H1406.57V1420H1485.57V660ZM1400.57 654V1426H1491.57V654H1400.57Z" fill="black"/><path id="Rectangle Copy 7" fill-rule="evenodd" clip-rule="evenodd" d="M1089.57 1426V1098H998.57V1426H1089.57ZM1004.57 1104H1083.57V1420H1004.57V1104Z" fill="black"/><path id="Rectangle Copy 6" fill-rule="evenodd" clip-rule="evenodd" d="M1223.57 1426V1186H1132.57V1426H1223.57ZM1138.57 1192H1217.57V1420H1138.57V1192Z" fill="black"/><path id="Rectangle Copy 5" fill-rule="evenodd" clip-rule="evenodd" d="M1357.57 1426V845H1266.57V1426H1357.57ZM1272.57 851H1351.57V1420H1272.57V851Z" fill="black"/><path id="Rectangle Copy 4" fill-rule="evenodd" clip-rule="evenodd" d="M1491.57 1426V654H1400.57V1426H1491.57ZM1406.57 660H1485.57V1420H1406.57V660Z" fill="black"/></g><path id="Graph Horizon (Stroke)" fill-rule="evenodd" clip-rule="evenodd" d="M958 1425.5H1524.08V1431.5H958V1425.5Z" fill="black"/><path id="Graph Horizon Copy" d="M1524.08 1423V1429H958V1423H1524.08Z" fill="black"/></g></g></g><g id="Character"><g id="Lower Body Sitting"><g id="chair"><g id="Group 19"><path id="Fill 17" fill-rule="evenodd" clip-rule="evenodd" d="M564.602 1156.68C533.882 1156.68 506.967 1153.85 483.093 1148.16C448.711 1139.97 421.523 1126.08 399.976 1105.69C370.375 1077.69 352.976 1039.12 345.218 984.32C338.652 937.934 339.715 884.875 340.842 828.7C341.197 811.064 341.562 792.827 341.695 774.5L383.693 774.803C383.559 793.4 383.191 811.774 382.834 829.543C380.699 935.976 378.855 1027.9 428.84 1075.18C462.591 1107.11 520.709 1119.48 606.518 1112.99L609.686 1154.87C593.797 1156.07 578.793 1156.68 564.602 1156.68" fill="black"/></g><path id="Fill 20" fill-rule="evenodd" clip-rule="evenodd" d="M556.891 1026.95H393.447C373.115 1026.95 356.633 1010.47 356.633 990.135V725.813C356.633 705.481 373.115 688.999 393.447 688.999H556.891C577.223 688.999 593.705 705.481 593.705 725.813V990.135C593.705 1010.47 577.223 1026.95 556.891 1026.95" fill="white"/><g id="Group 24"><path id="Fill 22" fill-rule="evenodd" clip-rule="evenodd" d="M393.447 691C374.251 691 358.633 706.618 358.633 725.814V990.135C358.633 1009.33 374.251 1024.95 393.447 1024.95H556.891C576.088 1024.95 591.706 1009.33 591.706 990.135V725.814C591.706 706.618 576.088 691 556.891 691H393.447ZM556.891 1028.95H393.447C372.045 1028.95 354.633 1011.54 354.633 990.135V725.814C354.633 704.412 372.045 687 393.447 687H556.891C578.294 687 595.706 704.412 595.706 725.814V990.135C595.706 1011.54 578.294 1028.95 556.891 1028.95V1028.95Z" fill="black"/></g><path id="Fill 25" fill-rule="evenodd" clip-rule="evenodd" d="M636.613 1523.87H680.6V1161.61H636.613V1523.87Z" fill="black"/><path id="Fill 27" fill-rule="evenodd" clip-rule="evenodd" d="M548.287 1535.01C548.287 1516.71 563.125 1501.87 581.428 1501.87H735.783C754.086 1501.87 768.923 1516.71 768.923 1535.01H548.287Z" fill="black"/><path id="Fill 28" fill-rule="evenodd" clip-rule="evenodd" d="M752.164 1190.17H565.363C497.553 1191.2 497.495 1076.66 565.365 1077.69C565.363 1077.69 752.164 1077.69 752.164 1077.69C780.234 1077.69 802.99 1100.45 802.99 1128.52C806.905 1159.98 785.263 1190.47 752.164 1190.17" fill="white"/><path id="Fill 29" fill-rule="evenodd" clip-rule="evenodd" d="M564.516 1079.69C547.272 1079.69 533.137 1087.68 524.616 1102.27C513.731 1120.9 513.733 1146.94 524.622 1165.58C533.287 1180.42 547.727 1188.46 565.333 1188.17H752.183C752.332 1188.18 752.482 1188.18 752.63 1188.18C766.308 1188.18 778.817 1182.58 787.897 1172.39C798.083 1160.96 802.984 1144.65 801.007 1128.76L800.992 1128.52C800.992 1101.59 779.088 1079.69 752.165 1079.69C750.302 1079.69 565.857 1079.69 565.37 1079.69C565.084 1079.69 564.799 1079.69 564.516 1079.69M564.449 1192.18C545.796 1192.18 530.443 1183.48 521.168 1167.6C509.585 1147.77 509.582 1120.07 521.162 1100.25C530.582 1084.12 546.299 1075.41 565.397 1075.69L565.396 1075.74C565.957 1075.69 566.643 1075.69 567.464 1075.69H752.165C781.253 1075.69 804.925 1099.32 804.992 1128.39C807.101 1145.62 801.962 1162.62 790.883 1175.05C781.033 1186.11 767.464 1192.18 752.632 1192.18C752.472 1192.18 752.313 1192.18 752.153 1192.17H565.364C565.059 1192.18 564.752 1192.18 564.449 1192.18" fill="black"/><path id="Fill 43" fill-rule="evenodd" clip-rule="evenodd" d="M548.287 1545.48H558.753V1535.01H548.287V1545.48Z" fill="black"/><path id="Fill 44" fill-rule="evenodd" clip-rule="evenodd" d="M653.373 1545.48H663.839V1535.01H653.373V1545.48Z" fill="black"/><path id="Fill 45" fill-rule="evenodd" clip-rule="evenodd" d="M758.459 1545.48H768.924V1535.01H758.459V1545.48Z" fill="black"/><path id="Fill 46" fill-rule="evenodd" clip-rule="evenodd" d="M565.207 1555.52C565.107 1577.65 531.464 1577.64 531.367 1555.52C531.467 1533.39 565.11 1533.39 565.207 1555.52" fill="white"/><path id="Fill 47" fill-rule="evenodd" clip-rule="evenodd" d="M548.287 1540.92C541.133 1540.92 533.412 1545.49 533.367 1555.53C533.411 1565.54 541.132 1570.11 548.286 1570.11C555.438 1570.11 563.156 1565.55 563.206 1555.52C563.158 1545.49 555.44 1540.92 548.289 1540.92H548.287ZM548.287 1574.11H548.286C538.925 1574.11 529.421 1567.73 529.367 1555.53C529.422 1543.31 538.927 1536.92 548.287 1536.92H548.289C557.649 1536.92 567.153 1543.31 567.206 1555.51V1555.53C567.151 1567.73 557.647 1574.11 548.287 1574.11V1574.11Z" fill="black"/><path id="Fill 48" fill-rule="evenodd" clip-rule="evenodd" d="M675.684 1555.52C675.584 1577.65 641.941 1577.64 641.844 1555.52C641.944 1533.39 675.587 1533.39 675.684 1555.52" fill="white"/><path id="Fill 49" fill-rule="evenodd" clip-rule="evenodd" d="M658.765 1540.92C651.611 1540.92 643.889 1545.49 643.844 1555.53C643.888 1565.54 651.608 1570.11 658.763 1570.11C665.915 1570.11 673.634 1565.55 673.684 1555.52C673.635 1545.49 665.917 1540.92 658.765 1540.92M658.764 1574.11H658.762C649.402 1574.11 639.898 1567.73 639.844 1555.53C639.899 1543.31 649.404 1536.92 658.764 1536.92H658.766C668.126 1536.92 677.63 1543.31 677.684 1555.51V1555.53C677.629 1567.73 668.124 1574.11 658.764 1574.11" fill="black"/><path id="Fill 50" fill-rule="evenodd" clip-rule="evenodd" d="M785.843 1555.52C785.743 1577.65 752.1 1577.64 752.004 1555.52C752.103 1533.39 785.747 1533.39 785.843 1555.52" fill="white"/><path id="Fill 51" fill-rule="evenodd" clip-rule="evenodd" d="M768.925 1540.92C761.771 1540.92 754.049 1545.49 754.004 1555.53C754.048 1565.54 761.768 1570.11 768.923 1570.11C776.075 1570.11 783.794 1565.55 783.844 1555.52C783.795 1545.49 776.077 1540.92 768.925 1540.92M768.924 1574.11H768.922C759.562 1574.11 750.058 1567.73 750.004 1555.53C750.059 1543.31 759.564 1536.92 768.924 1536.92H768.926C778.286 1536.92 787.79 1543.31 787.844 1555.51V1555.53C787.789 1567.73 778.284 1574.11 768.924 1574.11" fill="black"/></g><g id="blue"><g id="shoe"><path id="Fill 1" fill-rule="evenodd" clip-rule="evenodd" d="M1004.44 1570.49C1004.14 1569.36 1004.85 1561.76 1003.64 1561.08C1003.26 1560.71 1002.75 1560.51 1002.23 1560.53L976.932 1561.19C973.493 1561.05 975.45 1569.35 974.921 1571.11L946.379 1571.72C945.022 1503.05 944.355 1433.7 943.873 1365.03L1031.61 1364.46C1031.97 1416.67 1032.47 1470.58 1033.27 1522.63C1033.26 1523.77 1034.34 1524.71 1035.47 1524.59C1056.36 1523.36 1086.36 1539.05 1085.71 1568.77L1004.44 1570.49Z" fill="white"/><path id="Fill 3" fill-rule="evenodd" clip-rule="evenodd" d="M1033.59 1362.54C1033.95 1415.29 1034.46 1470.03 1035.27 1522.6C1059.11 1521.59 1088.81 1538.44 1087.78 1570.62C1067.37 1571.08 1022.5 1572.09 1002.48 1572.54L1002.26 1562.53L976.984 1563.2L976.908 1573.11L944.424 1573.84C943.08 1505.04 942.309 1431.86 941.859 1363.14L1033.59 1362.54ZM1029.62 1366.37L945.885 1366.93C946.36 1434.32 947.024 1502.26 948.336 1569.64L972.935 1569.14C973.12 1565.93 971.852 1559.19 976.877 1559.18L1002.16 1558.52C1007.29 1558.29 1006.22 1565.21 1006.39 1568.45C1024.16 1568.08 1065.43 1567.23 1083.58 1566.86C1083.38 1539.44 1054.37 1525.4 1035.5 1526.59C1033.3 1526.75 1031.26 1524.87 1031.27 1522.66C1030.48 1471.18 1029.98 1417.98 1029.62 1366.37V1366.37Z" fill="black"/><path id="Fill 5" fill-rule="evenodd" clip-rule="evenodd" d="M946.137 1563.51L946.061 1559.51L1083.45 1556.89L1083.53 1560.89L946.137 1563.51Z" fill="black"/><path id="Fill 9" fill-rule="evenodd" clip-rule="evenodd" d="M1035.33 1561.81L1035.25 1557.81C1049.88 1557.53 1061.59 1545.46 1061.36 1530.91L1065.36 1530.84C1065.63 1547.59 1052.16 1561.48 1035.33 1561.81" fill="black"/><path id="Fill 11" fill-rule="evenodd" clip-rule="evenodd" d="M1031.52 1489.25C1031.52 1489.25 1015.34 1488.39 1015.7 1503.02C1015.85 1509.09 1010.29 1508.27 998.6 1508.44L946.336 1509.18" fill="white"/><path id="Fill 13" fill-rule="evenodd" clip-rule="evenodd" d="M946.333 1511.18C945.242 1511.18 944.35 1510.31 944.334 1509.21C944.318 1508.11 945.201 1507.2 946.306 1507.18L998.57 1506.44C999.998 1506.42 1001.34 1506.41 1002.58 1506.41C1007.84 1506.39 1011.99 1506.37 1013.18 1505.14C1013.32 1505 1013.74 1504.57 1013.7 1503.07C1013.59 1498.43 1014.96 1494.68 1017.79 1491.94C1023.02 1486.86 1031.28 1487.23 1031.63 1487.25C1032.73 1487.31 1033.57 1488.25 1033.52 1489.36C1033.46 1490.46 1032.51 1491.29 1031.42 1491.25C1031.29 1491.24 1024.5 1490.98 1020.56 1494.82C1018.58 1496.76 1017.62 1499.5 1017.7 1502.97C1017.75 1505.11 1017.21 1506.73 1016.05 1507.93C1013.69 1510.36 1009.51 1510.38 1002.6 1510.41C1001.36 1510.41 1000.04 1510.42 998.627 1510.44L946.362 1511.18H946.333Z" fill="black"/></g><path id="leg" fill-rule="evenodd" clip-rule="evenodd" d="M1061.81 1480.02L924.445 1481.72C923.293 1388.13 922.915 1289.33 922.758 1196.09C926.375 1109.42 824.169 1093.15 755.864 1091.36C676.501 1083.8 669.248 953.846 759.026 954.019C887.568 954.869 1032.2 1008.39 1056.04 1150.52C1058.84 1166.03 1060.12 1182.42 1060.2 1198.16C1060.22 1290.06 1060.7 1387.85 1061.81 1480.02" fill="#2945ff"/></g><g id="black"><g id="shoe_2"><path id="Fill 7" fill-rule="evenodd" clip-rule="evenodd" d="M972.667 1561C972.394 1546.44 960.491 1534.75 946.048 1534.75C945.909 1534.75 945.772 1534.75 945.635 1534.75L945.572 1530.75C945.73 1530.75 945.891 1530.75 946.048 1530.75C962.663 1530.75 976.352 1544.19 976.667 1560.93L972.667 1561Z" fill="black"/><path id="Fill 34" fill-rule="evenodd" clip-rule="evenodd" d="M899.966 1573.57C899.668 1572.47 900.383 1565.17 899.181 1564.52C898.799 1564.17 898.289 1563.98 897.762 1563.99L872.469 1564.65C869.051 1564.48 870.971 1572.45 870.451 1574.19L841.909 1574.8C840.686 1509.77 839.857 1438.94 839.445 1374.15L927.177 1373.55C929.645 1424.53 923.996 1481.12 931.023 1529.4C951.154 1528.15 981.904 1542.8 981.243 1571.85L899.966 1573.57Z" fill="white"/><path id="Fill 35" fill-rule="evenodd" clip-rule="evenodd" d="M929.164 1371.62C929.516 1423.59 930.031 1475.56 930.825 1527.48C953.656 1526.48 984.306 1541.89 983.311 1573.62C962.901 1574.08 918.029 1575.09 898.012 1575.54L897.801 1565.91L872.522 1566.58L872.438 1576.11L839.954 1576.84C838.638 1509.92 837.883 1439.05 837.432 1372.24L929.164 1371.62ZM925.19 1375.49L841.458 1376.07C841.923 1441.72 842.594 1507.05 843.87 1572.8L868.469 1572.29C868.64 1569.12 867.435 1562.71 872.418 1562.72L897.697 1562.06C902.748 1561.78 901.792 1568.41 901.924 1571.6C919.692 1571.24 960.968 1570.39 979.114 1570.01C978.926 1543.24 949.198 1530.1 931.058 1531.32C928.906 1531.48 926.82 1529.72 926.825 1527.55C926.051 1476.89 925.54 1426.19 925.19 1375.49V1375.49Z" fill="black"/><path id="Fill 36" fill-rule="evenodd" clip-rule="evenodd" d="M841.676 1566.98L841.6 1562.98L978.987 1560.35L979.064 1564.35L841.676 1566.98Z" fill="black"/><path id="Fill 37" fill-rule="evenodd" clip-rule="evenodd" d="M868.203 1564.47C867.938 1550.51 856.053 1539.32 841.617 1539.32C841.473 1539.32 841.33 1539.32 841.185 1539.32L841.123 1535.32C841.288 1535.32 841.454 1535.32 841.617 1535.32C858.224 1535.32 871.896 1548.26 872.203 1564.39L868.203 1564.47Z" fill="black"/><path id="Fill 38" fill-rule="evenodd" clip-rule="evenodd" d="M930.865 1565.27L930.787 1561.27C945.421 1560.99 957.14 1549.41 956.913 1535.46L960.913 1535.39C961.176 1551.54 947.697 1564.94 930.865 1565.27" fill="black"/><path id="Fill 39" fill-rule="evenodd" clip-rule="evenodd" d="M927.089 1495.42C927.089 1495.42 910.913 1494.6 911.269 1508.67C911.415 1514.51 905.858 1513.73 894.163 1513.89L841.9 1514.65" fill="white"/><path id="Fill 40" fill-rule="evenodd" clip-rule="evenodd" d="M841.898 1516.64C840.807 1516.64 839.915 1515.77 839.899 1514.67C839.883 1513.57 840.766 1512.66 841.871 1512.64L894.135 1511.89C895.561 1511.87 896.897 1511.87 898.142 1511.86C903.44 1511.84 907.624 1511.82 908.794 1510.61C908.92 1510.48 909.303 1510.09 909.269 1508.72C909.158 1504.33 910.478 1500.76 913.192 1498.11C918.401 1493.03 926.837 1493.4 927.19 1493.42C928.293 1493.47 929.142 1494.41 929.086 1495.52C929.032 1496.62 928.051 1497.46 926.991 1497.41C926.835 1497.41 919.89 1497.15 915.971 1500.99C914.07 1502.85 913.185 1505.35 913.267 1508.62C913.319 1510.67 912.794 1512.23 911.665 1513.39C909.324 1515.81 905.123 1515.83 898.162 1515.86C896.928 1515.87 895.605 1515.87 894.192 1515.89L841.927 1516.64H841.898Z" fill="black"/></g><g id="leg"><path id="Fill 41" fill-rule="evenodd" clip-rule="evenodd" d="M820.266 1488.24C817.968 1388.45 820.654 1282.25 817.379 1182.42C807.906 1107.78 714.656 1096.11 652.059 1093.31C571.76 1085.67 564.785 956.634 655.441 956.91C759.407 958.622 881.634 992.088 931.658 1092.72C949.436 1127.57 956.29 1166.25 955.979 1204.72C955.994 1296.43 956.49 1395.05 957.632 1486.51L820.266 1488.24Z" fill="black"/><path id="Fill 42" fill-rule="evenodd" clip-rule="evenodd" d="M536.979 982.075C537.437 834.015 802.56 834.03 802.992 982.083C802.535 1130.13 537.411 1130.12 536.979 982.075" fill="black"/></g></g><path id="Rectangle" d="M537.619 871.311H670.619V1093.31H596.619C564.034 1093.31 537.619 1066.9 537.619 1034.31V871.311Z" fill="black"/></g><g id="Upper Body" transform="translate(17 301) scale(1 1)"><g id="Upper Body/Holding Notebook"><g id="left"><g id="Group 2"><g id="Group 5"><path id="Fill 1" fill-rule="evenodd" clip-rule="evenodd" d="M1066.71 254.737C955.827 263.584 974.637 232.527 973.733 346.803L1068.15 348.239C1068.61 316.728 1067.99 285.626 1066.71 254.737" fill="white"/><path id="Fill 3" fill-rule="evenodd" clip-rule="evenodd" d="M975.744 344.834L1066.18 346.209C1066.55 318.274 1066.09 289.012 1064.79 256.893C1042.09 258.629 1024.76 258.699 1012.01 258.75C993.94 258.823 983.984 258.863 979.497 263.469C974.518 268.579 974.784 280.643 975.313 304.677C975.55 315.403 975.842 328.648 975.744 344.834M1068.15 350.24C1068.14 350.24 1068.13 350.24 1068.12 350.239L973.7 348.803C972.601 348.787 971.722 347.886 971.73 346.788C971.865 329.756 971.56 315.899 971.314 304.765C970.743 278.827 970.482 266.989 976.632 260.677C982.289 254.87 992.218 254.83 1012 254.75C1025.07 254.697 1042.97 254.625 1066.55 252.744C1067.09 252.701 1067.62 252.88 1068.03 253.24C1068.44 253.601 1068.68 254.111 1068.7 254.655C1070.1 288.435 1070.58 319.057 1070.15 348.269C1070.14 348.8 1069.92 349.305 1069.54 349.675C1069.17 350.037 1068.67 350.24 1068.15 350.24" fill="black"/><path id="Fill 5" fill-rule="evenodd" clip-rule="evenodd" d="M996.184 263.354C995.609 248.693 994.88 234.031 994.043 219.37C992.853 200.962 969.47 202.424 970.477 220.743C971.508 238.544 972.345 256.329 972.937 274.077" fill="white"/><path id="Fill 7" fill-rule="evenodd" clip-rule="evenodd" d="M972.936 276.077C971.862 276.077 970.974 275.225 970.938 274.144C970.372 257.18 969.545 239.252 968.48 220.858C967.912 210.515 974.51 204.694 981.323 204.287C990.31 203.75 995.532 211.403 996.039 219.241C996.935 234.94 997.635 249.339 998.182 263.275C998.226 264.379 997.366 265.309 996.262 265.352C995.147 265.394 994.228 264.536 994.185 263.432C993.639 249.52 992.939 235.144 992.046 219.484C991.522 211.391 986.245 207.998 981.561 208.28C976.873 208.56 972.029 212.546 972.474 220.633C973.54 239.053 974.369 257.014 974.936 274.01C974.973 275.114 974.108 276.039 973.004 276.076C972.981 276.077 972.958 276.077 972.936 276.077" fill="black"/><path id="Fill 9" fill-rule="evenodd" clip-rule="evenodd" d="M996.185 263.354C995.61 248.693 994.881 234.031 994.044 219.37C993.57 211.591 998.453 204.944 1004.96 204.523C1011.46 204.102 1017.13 210.134 1017.61 217.998C1018.46 232.801 1019.19 247.616 1019.77 262.447" fill="white"/><path id="Fill 11" fill-rule="evenodd" clip-rule="evenodd" d="M996.183 265.354C995.115 265.354 994.228 264.51 994.186 263.432C993.64 249.52 992.94 235.144 992.047 219.484C991.507 210.629 997.242 203.019 1004.83 202.527C1008.11 202.316 1011.35 203.478 1013.99 205.802C1017.27 208.693 1019.32 213.094 1019.61 217.876C1020.51 233.707 1021.22 248.258 1021.77 262.369C1021.82 263.473 1020.96 264.402 1019.85 264.446C1018.74 264.482 1017.82 263.629 1017.77 262.526C1017.22 248.439 1016.52 233.911 1015.61 218.112C1015.39 214.391 1013.83 210.995 1011.34 208.803C1009.49 207.164 1007.32 206.374 1005.09 206.519C999.693 206.868 995.634 212.579 996.04 219.249C996.935 234.94 997.636 249.339 998.183 263.276C998.226 264.379 997.367 265.309 996.263 265.353C996.236 265.354 996.209 265.354 996.183 265.354" fill="black"/><path id="Fill 13" fill-rule="evenodd" clip-rule="evenodd" d="M1019.77 262.447C1019.19 247.615 1018.46 232.801 1017.61 217.998C1017.13 210.147 1022.01 203.442 1028.52 203.021C1035.02 202.599 1040.69 208.69 1041.18 216.625C1042.03 231.57 1042.77 246.538 1043.36 261.54" fill="white"/><path id="Fill 15" fill-rule="evenodd" clip-rule="evenodd" d="M1019.77 264.447C1018.7 264.447 1017.82 263.603 1017.77 262.525C1017.22 248.438 1016.51 233.911 1015.61 218.112C1015.07 209.185 1020.8 201.516 1028.39 201.025C1031.64 200.812 1034.88 201.974 1037.51 204.292C1040.81 207.207 1042.88 211.658 1043.17 216.504C1044.09 232.499 1044.8 247.202 1045.36 261.462C1045.4 262.566 1044.54 263.495 1043.44 263.539C1042.32 263.58 1041.41 262.722 1041.36 261.619C1040.81 247.383 1040.09 232.702 1039.18 216.739C1038.95 212.955 1037.38 209.509 1034.86 207.292C1033.01 205.66 1030.86 204.871 1028.65 205.017C1023.25 205.366 1019.2 211.135 1019.61 217.876C1020.51 233.707 1021.22 248.258 1021.77 262.369C1021.81 263.472 1020.96 264.402 1019.85 264.446C1019.82 264.447 1019.8 264.447 1019.77 264.447" fill="black"/><path id="Fill 17" fill-rule="evenodd" clip-rule="evenodd" d="M984.004 344.998C954.215 346.538 946.245 334.163 948.286 306.02C946.502 286.456 948.524 266.38 972.837 264.25C976.411 271.178 980.016 278.145 983.518 285.14" fill="white"/><path id="Fill 19" fill-rule="evenodd" clip-rule="evenodd" d="M973.734 346.803C963.292 346.644 949.899 346.285 949.899 346.285C950.302 335.264 950.323 317.439 950.115 305.994C948.452 287.56 950.009 266.089 972.596 264.261C972.839 271.315 973.112 278.374 973.28 285.418" fill="white"/><path id="Fill 21" fill-rule="evenodd" clip-rule="evenodd" d="M973.731 348.803C973.721 348.803 973.71 348.803 973.7 348.803C963.366 348.645 949.976 348.288 949.841 348.285C949.308 348.271 948.802 348.043 948.437 347.654C948.071 347.265 947.877 346.746 947.897 346.212C948.306 335.028 948.314 317.22 948.113 306.102C947.149 295.363 946.803 280.032 954.765 270.58C958.894 265.678 964.838 262.882 972.432 262.267C972.978 262.224 973.515 262.404 973.923 262.767C974.332 263.131 974.573 263.646 974.592 264.192L974.758 268.945C974.949 274.33 975.146 279.897 975.276 285.37C975.303 286.474 974.429 287.391 973.325 287.417C972.228 287.439 971.304 286.57 971.277 285.466C971.147 280.016 970.951 274.46 970.761 269.086L970.669 266.489C965.128 267.299 960.913 269.491 957.825 273.157C952.483 279.498 950.666 289.875 952.104 305.814C952.108 305.862 952.111 305.91 952.111 305.958C952.302 316.479 952.307 333.026 951.961 344.338C956.099 344.444 965.833 344.682 973.761 344.803C974.865 344.82 975.747 345.729 975.731 346.834C975.713 347.928 974.821 348.803 973.731 348.803" fill="black"/><path id="Fill 23" fill-rule="evenodd" clip-rule="evenodd" d="M973.355 288.234C973.163 280.311 972.885 272.376 972.602 264.439C971.784 246.244 948.376 247.273 949.013 265.344C949.681 282.892 950.118 300.381 950.246 317.762" fill="white"/><path id="Fill 25" fill-rule="evenodd" clip-rule="evenodd" d="M950.245 319.762C949.147 319.762 948.254 318.876 948.245 317.777C948.122 301.072 947.72 283.946 947.014 265.42C946.653 255.192 953.371 249.566 960.194 249.293C969.179 248.924 974.251 256.594 974.599 264.349C974.901 272.803 975.165 280.417 975.354 288.186C975.381 289.29 974.508 290.207 973.403 290.234C972.315 290.24 971.382 289.387 971.355 288.283C971.167 280.535 970.903 272.933 970.603 264.51C970.245 256.539 965.044 253.102 960.354 253.29C955.658 253.478 950.73 257.308 951.011 265.274C951.719 283.835 952.122 301.002 952.245 317.747C952.254 318.852 951.365 319.754 950.26 319.762H950.245Z" fill="black"/><path id="Fill 27" fill-rule="evenodd" clip-rule="evenodd" d="M1043.36 261.54C1044.98 247.914 1033.87 214.282 1052.7 211.685C1072.05 212.242 1064.3 247.111 1066.95 260.634" fill="white"/><path id="Fill 29" fill-rule="evenodd" clip-rule="evenodd" d="M1043.36 263.54C1043.28 263.54 1043.21 263.535 1043.13 263.526C1042.03 263.395 1041.24 262.401 1041.38 261.304C1041.81 257.641 1041.24 252.181 1040.64 246.4C1039.04 230.996 1037.05 211.825 1052.43 209.704C1052.53 209.689 1052.65 209.684 1052.76 209.686C1068.74 210.146 1068.52 229.902 1068.34 245.775C1068.28 251.405 1068.22 256.723 1068.91 260.248C1069.13 261.332 1068.42 262.384 1067.34 262.596C1066.25 262.807 1065.2 262.102 1064.99 261.019C1064.22 257.09 1064.28 251.572 1064.34 245.731C1064.54 227.86 1063.81 214.144 1052.81 213.69C1042.28 215.279 1042.82 228.666 1044.62 245.987C1045.24 251.995 1045.83 257.671 1045.35 261.776C1045.23 262.792 1044.36 263.54 1043.36 263.54" fill="black"/></g><path id="Fill 31" fill-rule="evenodd" clip-rule="evenodd" d="M937.798 344.372C936.692 390.367 935.317 435.657 922.457 478.815C891.403 453.831 866.846 421.017 843.509 388.305C826.187 362.655 786.089 345.782 756.699 346.119C731.565 346.407 721.909 389.981 717.124 415.295C713.162 432.995 716.446 452.56 727.978 469.054C747.268 496.55 767.344 522.724 790.551 547.852C830.683 591.288 885.676 635.789 948.599 627.675C1071.86 607.053 1075.67 444.353 1078.74 346.284L937.798 344.372Z" fill="black"/></g></g><g id="torso"><path id="Fill 33" fill-rule="evenodd" clip-rule="evenodd" d="M828.396 670.717C829.416 681.64 820.822 691.074 809.852 691.074H514.112C504.449 691.074 496.278 683.92 495 674.341L510.308 406.597C506.031 374.515 530.99 346.009 563.355 346.009H756.78C798.711 346.32 831.763 383.845 828.305 425.569C828.306 425.569 828.396 670.717 828.396 670.717" fill="#2945ff"/><path id="Fill 35" fill-rule="evenodd" clip-rule="evenodd" d="M741.335 346.008C717.12 244.035 537.081 316.125 653.996 401.242C656.094 402.948 659.142 402.782 661.055 400.869L674.921 387.003L688.741 373.183C695.359 379.614 708.968 392.829 715.63 399.304C725.825 409.815 742.156 358.983 741.335 346.008" fill="#2945ff"/><path id="Fill 37" fill-rule="evenodd" clip-rule="evenodd" d="M683.697 408.17L669.496 393.97L689.252 374.214L709.007 393.97L694.767 408.21L708.637 450.278L741.337 346.008H615.234L678.196 450.999C678.214 450.925 683.664 408.234 683.697 408.17" fill="#2945ff"/><path id="Fill 39" fill-rule="evenodd" clip-rule="evenodd" d="M711.383 577.757L694.766 408.21L709.007 393.97L689.251 374.215L669.496 393.97L683.696 408.17C683.675 408.152 660.951 578.464 660.941 578.478C690.532 614.533 684.489 620.622 711.383 577.757" fill="black"/><path id="Fill 41" fill-rule="evenodd" clip-rule="evenodd" d="M658.323 403.351C656.558 403.351 654.459 402.709 652.034 401.431C636.906 393.459 611.333 361.749 613.75 345.784C613.874 344.965 614.638 344.402 615.458 344.525C616.277 344.649 616.84 345.414 616.716 346.233C615.75 352.613 620.288 363.372 628.856 375.013C636.632 385.578 646.509 395.128 653.432 398.777C655.263 399.741 658.554 401.154 660.033 399.774C663.798 396.003 669.732 390.071 675.445 384.359L687.681 372.122C688.261 371.542 689.199 371.535 689.788 372.107L716.677 398.228C717.677 399.258 718.581 399.466 719.734 398.956C728.405 395.119 740.568 357.625 739.839 346.103C739.787 345.276 740.415 344.564 741.241 344.511C742.065 344.46 742.781 345.087 742.833 345.913C743.573 357.605 731.372 397.087 720.948 401.7C718.655 402.715 716.384 402.235 714.555 400.348L688.758 375.289L677.566 386.48C671.853 392.192 665.92 398.124 662.117 401.931C661.103 402.879 659.836 403.351 658.323 403.351" fill="black"/><path id="Fill 43" fill-rule="evenodd" clip-rule="evenodd" d="M723.898 443.312C724.245 452.654 723.987 461.008 723.758 468.425C723.255 484.729 722.891 496.51 729.709 503.077C736.305 509.433 749.669 511.424 774.39 509.738L774.466 509.735C780.929 509.624 785.786 507.738 789.315 503.969C797.807 494.898 796.919 476.724 796.136 460.689C795.824 454.291 795.527 448.211 795.897 443.312H723.898ZM759.621 513.299C743.218 513.299 733.334 510.736 727.627 505.238C719.852 497.747 720.232 485.409 720.76 468.332C721 460.556 721.272 451.742 720.837 441.878L720.769 440.312H799.231L799.036 441.985C798.466 446.89 798.79 453.522 799.133 460.543C799.945 477.172 800.865 496.02 791.504 506.019C787.456 510.344 781.753 512.603 774.556 512.733C769.061 513.108 764.097 513.299 759.621 513.299V513.299Z" fill="black"/></g><g id="right"><g id="Group 3"><g id="Group 7"><path id="Fill 45" fill-rule="evenodd" clip-rule="evenodd" d="M692.543 681.402H695.543V599.296H692.543V681.402Z" fill="black"/><path id="Fill 47" fill-rule="evenodd" clip-rule="evenodd" d="M802.123 721.096H689.479C677.737 721.096 668.219 711.578 668.219 699.836V563.532C668.219 551.79 677.737 542.272 689.479 542.272H802.123C813.865 542.272 823.383 551.79 823.383 563.532V699.836C823.383 711.578 813.865 721.096 802.123 721.096" fill="white"/><path id="Fill 48" fill-rule="evenodd" clip-rule="evenodd" d="M689.479 544.272C678.859 544.272 670.219 552.912 670.219 563.532V699.836C670.219 710.456 678.859 719.096 689.479 719.096H802.123C812.743 719.096 821.383 710.456 821.383 699.836V563.532C821.383 552.912 812.743 544.272 802.123 544.272H689.479ZM802.123 723.096H689.479C676.653 723.096 666.219 712.662 666.219 699.836V563.532C666.219 550.706 676.653 540.272 689.479 540.272H802.123C814.949 540.272 825.383 550.706 825.383 563.532V699.836C825.383 712.662 814.949 723.096 802.123 723.096V723.096Z" fill="black"/><path id="Fill 49" fill-rule="evenodd" clip-rule="evenodd" d="M703.54 558.471C699.282 558.471 695.831 555.019 695.831 550.762C696.499 544.273 692.588 527.889 703.54 528.148C707.798 528.147 711.249 531.598 711.249 535.856C710.581 542.345 714.492 558.729 703.54 558.471" fill="white"/><path id="Fill 50" fill-rule="evenodd" clip-rule="evenodd" d="M697.834 550.852C697.883 553.958 700.425 556.47 703.543 556.47L703.59 556.471C705.227 556.511 706.417 556.104 707.271 555.234C709.752 552.705 709.49 546.538 709.279 541.582C709.188 539.416 709.1 537.367 709.252 535.765C709.229 534.274 708.637 532.875 707.58 531.819C706.502 530.741 705.069 530.147 703.544 530.147H703.543C701.874 530.107 700.669 530.513 699.815 531.383C697.334 533.912 697.596 540.079 697.807 545.035C697.898 547.201 697.986 549.25 697.834 550.852M703.796 560.473C703.705 560.473 703.612 560.472 703.52 560.47C698.176 560.458 693.834 556.107 693.834 550.761L693.844 550.556C693.981 549.227 693.898 547.273 693.81 545.205C693.567 539.477 693.264 532.348 696.96 528.582C698.609 526.902 700.826 526.089 703.59 526.147H703.594C706.139 526.147 708.576 527.157 710.409 528.99C712.243 530.824 713.252 533.262 713.252 535.856L713.242 536.061C713.105 537.39 713.188 539.344 713.276 541.412C713.52 547.14 713.822 554.268 710.126 558.035C708.538 559.654 706.409 560.473 703.796 560.473" fill="black"/><path id="Fill 51" fill-rule="evenodd" clip-rule="evenodd" d="M731.716 558.471C727.458 558.471 724.007 555.019 724.007 550.762C724.675 544.273 720.764 527.889 731.716 528.148C735.974 528.147 739.425 531.598 739.425 535.856C738.757 542.345 742.668 558.729 731.716 558.471" fill="white"/><path id="Fill 52" fill-rule="evenodd" clip-rule="evenodd" d="M726.006 550.852C726.055 553.958 728.597 556.47 731.715 556.47L731.762 556.471C733.389 556.511 734.589 556.104 735.443 555.234C737.924 552.705 737.662 546.538 737.451 541.582C737.36 539.416 737.272 537.367 737.424 535.765C737.401 534.274 736.809 532.875 735.752 531.819C734.674 530.741 733.241 530.147 731.716 530.147H731.715C730.041 530.107 728.841 530.513 727.987 531.383C725.506 533.912 725.768 540.079 725.979 545.035C726.07 547.201 726.158 549.25 726.006 550.852M731.968 560.473C731.877 560.473 731.784 560.472 731.692 560.47C726.348 560.458 722.006 556.107 722.006 550.761L722.016 550.556C722.153 549.227 722.07 547.273 721.982 545.205C721.738 539.477 721.436 532.349 725.131 528.582C726.78 526.902 728.999 526.09 731.762 526.147H731.766C734.311 526.147 736.748 527.157 738.581 528.99C740.415 530.824 741.424 533.262 741.424 535.856L741.414 536.061C741.277 537.39 741.36 539.344 741.448 541.412C741.691 547.14 741.994 554.269 738.298 558.035C736.71 559.654 734.581 560.473 731.968 560.473" fill="black"/><path id="Fill 53" fill-rule="evenodd" clip-rule="evenodd" d="M759.888 558.471C755.63 558.471 752.179 555.019 752.179 550.762C752.847 544.273 748.936 527.889 759.888 528.148C764.146 528.147 767.598 531.598 767.598 535.856C766.929 542.345 770.84 558.729 759.888 558.471" fill="white"/><path id="Fill 54" fill-rule="evenodd" clip-rule="evenodd" d="M754.178 550.852C754.227 553.958 756.769 556.47 759.887 556.47L759.934 556.471C761.573 556.511 762.761 556.104 763.616 555.234C766.096 552.705 765.834 546.538 765.624 541.582C765.532 539.416 765.445 537.367 765.596 535.765C765.573 534.274 764.982 532.875 763.925 531.819C762.846 530.741 761.413 530.147 759.889 530.147H759.888C758.22 530.107 757.014 530.513 756.159 531.383C753.678 533.912 753.94 540.079 754.151 545.035C754.242 547.201 754.33 549.25 754.178 550.852M760.14 560.473C760.049 560.473 759.956 560.472 759.864 560.47C754.52 560.458 750.178 556.107 750.178 550.761L750.188 550.556C750.325 549.227 750.242 547.273 750.154 545.205C749.911 539.477 749.608 532.349 753.304 528.582C754.953 526.902 757.173 526.09 759.935 526.147H759.938C762.483 526.147 764.92 527.157 766.753 528.99C768.587 530.824 769.597 533.262 769.597 535.856L769.586 536.061C769.449 537.39 769.532 539.344 769.62 541.412C769.864 547.14 770.167 554.268 766.47 558.035C764.882 559.654 762.753 560.473 760.14 560.473" fill="black"/><path id="Fill 55" fill-rule="evenodd" clip-rule="evenodd" d="M788.06 558.471C783.802 558.471 780.351 555.019 780.351 550.762C781.019 544.273 777.108 527.889 788.06 528.148C792.318 528.147 795.769 531.598 795.769 535.856C795.101 542.345 799.012 558.729 788.06 558.471" fill="white"/><path id="Fill 56" fill-rule="evenodd" clip-rule="evenodd" d="M782.35 550.852C782.399 553.958 784.941 556.47 788.059 556.47L788.106 556.471C789.739 556.511 790.933 556.104 791.787 555.234C794.268 552.705 794.006 546.538 793.795 541.582C793.704 539.416 793.616 537.367 793.768 535.765C793.745 534.274 793.153 532.875 792.096 531.819C791.018 530.741 789.585 530.147 788.06 530.147H788.059C786.388 530.107 785.185 530.513 784.331 531.383C781.85 533.912 782.112 540.079 782.323 545.035C782.414 547.201 782.502 549.25 782.35 550.852M788.312 560.473C788.221 560.473 788.128 560.472 788.036 560.47C782.692 560.458 778.35 556.107 778.35 550.761L778.36 550.556C778.497 549.227 778.414 547.273 778.326 545.205C778.083 539.477 777.78 532.348 781.476 528.582C783.125 526.902 785.345 526.089 788.106 526.147H788.11C790.655 526.147 793.092 527.157 794.925 528.99C796.759 530.824 797.768 533.262 797.768 535.856L797.758 536.061C797.621 537.39 797.704 539.344 797.792 541.412C798.036 547.14 798.338 554.268 794.642 558.035C793.054 559.654 790.925 560.473 788.312 560.473" fill="black"/></g><g id="Group 6"><path id="Fill 57" fill-rule="evenodd" clip-rule="evenodd" d="M720.555 696.962C717.472 586.313 747.648 606.708 634.238 598.538L625.879 692.595C657.909 695.436 689.353 696.609 720.555 696.962" fill="white"/><path id="Fill 58" fill-rule="evenodd" clip-rule="evenodd" d="M628.048 690.777C655.871 693.188 684.731 694.516 718.501 694.937C717.942 672.097 718.795 654.8 719.423 642.07C720.304 624.223 720.789 614.391 716.461 609.644C711.632 604.349 699.557 603.83 675.499 602.798C664.943 602.344 651.906 601.785 636.056 600.672L628.048 690.777ZM720.554 698.962C720.547 698.962 720.539 698.962 720.532 698.961C684.947 698.559 654.814 697.169 625.702 694.587C625.173 694.54 624.685 694.285 624.345 693.878C624.005 693.471 623.84 692.946 623.886 692.417L632.245 598.361C632.342 597.273 633.295 596.466 634.381 596.543C651.064 597.745 664.708 598.33 675.671 598.801C701.623 599.915 713.467 600.424 719.417 606.949C724.866 612.926 724.382 622.732 723.419 642.267C722.775 655.316 721.893 673.187 722.553 696.906C722.568 697.45 722.361 697.976 721.98 698.364C721.604 698.746 721.09 698.962 720.554 698.962V698.962Z" fill="black"/><path id="Fill 59" fill-rule="evenodd" clip-rule="evenodd" d="M715.639 626.066C730.283 626.274 744.94 626.307 759.607 626.125C778.017 625.811 777.623 602.387 759.342 602.52C741.586 602.718 723.868 602.665 706.223 602.285" fill="white"/><path id="Fill 60" fill-rule="evenodd" clip-rule="evenodd" d="M740.193 628.243C732.119 628.243 723.902 628.184 715.61 628.066C714.505 628.05 713.622 627.142 713.638 626.037C713.653 624.933 714.578 624.024 715.666 624.066C730.694 624.28 745.468 624.3 759.581 624.125C767.665 623.987 771.29 618.884 771.233 614.2C771.176 609.524 767.477 604.519 759.495 604.519C759.448 604.519 759.402 604.519 759.355 604.52C740.903 604.726 723.009 604.647 706.179 604.285C705.075 604.261 704.199 603.347 704.223 602.242C704.247 601.138 705.174 600.263 706.265 600.286C723.051 600.647 740.901 600.725 759.318 600.52C769.652 600.418 775.15 607.32 775.233 614.151C775.342 623.149 767.471 627.991 759.64 628.125C753.277 628.204 746.783 628.243 740.193 628.243" fill="black"/><path id="Fill 61" fill-rule="evenodd" clip-rule="evenodd" d="M715.637 626.066C730.281 626.274 744.938 626.307 759.605 626.125C767.384 626.034 773.797 631.193 773.924 637.718C774.052 644.228 767.761 649.638 759.869 649.73C745.023 649.914 730.161 649.882 715.289 649.67" fill="white"/><path id="Fill 62" fill-rule="evenodd" clip-rule="evenodd" d="M740.181 651.85C731.993 651.85 723.665 651.79 715.261 651.67C714.157 651.654 713.274 650.746 713.289 649.642C713.305 648.537 714.192 647.642 715.318 647.67C730.541 647.888 745.522 647.908 759.845 647.73C763.575 647.687 767.038 646.295 769.347 643.913C771.077 642.128 771.969 639.999 771.925 637.757C771.82 632.368 766.339 628.076 759.629 628.125C745.481 628.3 730.671 628.28 715.609 628.066C714.505 628.05 713.622 627.142 713.638 626.038C713.653 624.933 714.577 624.024 715.666 624.066C730.694 624.28 745.468 624.3 759.58 624.125C768.465 624.028 775.777 630.101 775.924 637.679C775.989 640.963 774.673 644.166 772.22 646.697C769.174 649.84 764.681 651.674 759.893 651.73C753.444 651.81 746.859 651.85 740.181 651.85" fill="black"/><path id="Fill 63" fill-rule="evenodd" clip-rule="evenodd" d="M715.29 649.67C730.162 649.882 745.024 649.914 759.87 649.73C767.746 649.638 774.23 654.796 774.358 661.321C774.485 667.831 768.123 673.242 760.134 673.336C745.108 673.522 730.042 673.49 714.941 673.274" fill="white"/><path id="Fill 64" fill-rule="evenodd" clip-rule="evenodd" d="M740.19 675.457C731.888 675.457 723.44 675.396 714.914 675.275C713.81 675.259 712.927 674.351 712.942 673.246C712.958 672.142 713.863 671.232 714.971 671.275C730.41 671.495 745.598 671.516 760.11 671.336C763.924 671.291 767.453 669.881 769.794 667.465C771.516 665.689 772.403 663.578 772.36 661.36C772.254 655.971 766.634 651.685 759.895 651.73C745.537 651.908 730.52 651.888 715.263 651.67C714.158 651.655 713.275 650.746 713.291 649.642C713.307 648.537 714.194 647.642 715.319 647.671C730.543 647.888 745.523 647.908 759.846 647.731C768.802 647.595 776.21 653.705 776.359 661.282C776.422 664.543 775.111 667.728 772.666 670.249C769.588 673.425 765.029 675.279 760.159 675.336C753.627 675.417 746.956 675.457 740.19 675.457" fill="black"/><path id="Fill 65" fill-rule="evenodd" clip-rule="evenodd" d="M635.265 608.919C635.014 593.072 641.722 573.767 660.469 574.992C682.118 576.682 715.57 571.308 715.982 602.705C708.897 605.95 701.788 609.127 694.647 612.236" fill="white"/><path id="Fill 66" fill-rule="evenodd" clip-rule="evenodd" d="M634.238 598.538V598.538C635.164 588.136 636.499 574.806 636.499 574.806C655.112 576.76 673.28 577.661 691.725 578.28C705.22 578.736 716.143 589.42 715.987 602.462C708.97 602.368 701.958 602.215 694.954 601.997" fill="white"/><path id="Fill 67" fill-rule="evenodd" clip-rule="evenodd" d="M715.987 604.462C715.978 604.462 715.969 604.462 715.96 604.462C708.884 604.368 701.796 604.211 694.892 603.996C693.788 603.962 692.921 603.039 692.955 601.935C692.99 600.831 693.915 599.961 695.016 599.998C701.214 600.191 707.561 600.337 713.913 600.432C712.974 589.535 703.399 580.676 691.658 580.279C676.073 579.756 657.626 578.956 638.291 577.001C637.884 581.115 636.934 590.813 636.231 598.715C636.133 599.816 635.153 600.629 634.061 600.53C632.961 600.432 632.149 599.461 632.246 598.361C633.162 588.067 634.496 574.74 634.509 574.606C634.563 574.077 634.824 573.59 635.237 573.254C635.65 572.919 636.177 572.761 636.709 572.817C656.644 574.91 675.741 575.743 691.792 576.281C706.404 576.775 718.154 588.531 717.987 602.486C717.981 603.017 717.763 603.523 717.383 603.894C717.009 604.258 716.508 604.462 715.987 604.462" fill="black"/><path id="Fill 68" fill-rule="evenodd" clip-rule="evenodd" d="M692.156 601.911C700.022 602.167 707.907 602.349 715.807 602.459C733.899 602.633 734.086 579.212 716.158 578.855C698.773 578.595 681.481 578.053 664.41 577.056" fill="white"/><path id="Fill 69" fill-rule="evenodd" clip-rule="evenodd" d="M715.971 604.46C715.91 604.46 715.85 604.46 715.789 604.459C707.867 604.349 699.897 604.164 692.092 603.91C690.988 603.874 690.121 602.95 690.158 601.846C690.193 600.742 691.116 599.876 692.221 599.912C700.003 600.166 707.948 600.35 715.836 600.46C715.897 600.46 715.96 600.46 716.021 600.46C723.843 600.46 727.42 595.658 727.49 590.865C727.56 586.154 724.031 581.012 716.119 580.855C697.138 580.57 680.183 579.981 664.294 579.053C663.192 578.988 662.35 578.042 662.414 576.939C662.479 575.836 663.435 574.992 664.528 575.059C680.359 575.984 697.257 576.572 716.188 576.856C726.37 577.058 731.591 584.086 731.49 590.924C731.358 599.836 723.614 604.46 715.971 604.46" fill="black"/><path id="Fill 70" fill-rule="evenodd" clip-rule="evenodd" d="M714.942 673.275C728.551 675.688 762.795 666.133 764.554 685.086C763.307 704.284 728.154 695.068 714.594 696.879" fill="white"/><path id="Fill 71" fill-rule="evenodd" clip-rule="evenodd" d="M741.203 699.521C737.066 699.521 732.886 699.271 729.057 699.042C723.536 698.711 718.322 698.398 714.859 698.861C713.764 699.008 712.758 698.238 712.612 697.144C712.466 696.049 713.234 695.042 714.329 694.896C718.176 694.383 723.577 694.706 729.296 695.049C747.61 696.146 761.7 696.107 762.547 685.114C761.437 674.554 748.068 674.419 730.718 675.343C724.562 675.671 718.748 675.981 714.593 675.244C713.505 675.051 712.78 674.013 712.973 672.926C713.166 671.837 714.204 671.112 715.291 671.305C718.995 671.962 724.584 671.664 730.505 671.349C745.925 670.528 765.117 669.505 766.545 684.901C766.555 685.005 766.557 685.111 766.55 685.215C765.769 697.24 753.687 699.521 741.203 699.521" fill="black"/></g></g><path id="Fill 72" fill-rule="evenodd" clip-rule="evenodd" d="M639.245 562.879C603.075 559.222 566.099 555.506 532.892 540.725L532.91 540.692L532.891 540.727L532.91 540.737C532.91 540.737 547.67 521.146 571.694 491.309C595.718 461.472 628.048 433.364 609.499 380.525C601.6 358.022 585.229 348.709 565.236 347.337C553.466 346.529 517.499 340.644 457.604 415.218C397.709 489.791 354.466 576.828 434.579 644.135C488.429 687.215 560.802 696.638 627.102 703.309L639.245 562.879Z" fill="black"/></g></g></g><g id="Hairstyle" transform="translate(637 450) scale(1 1)"><g id="Hairstyle/Short Hair Combed"><g id="hair"><g id="Group 3"><path id="Fill 1" fill-rule="evenodd" clip-rule="evenodd" d="M65.514 90.9026C65.514 113.597 51.967 131.994 35.257 131.994C18.547 131.994 5 113.597 5 90.9026C5 68.2086 18.547 49.8116 35.257 49.8116C51.967 49.8116 65.514 68.2086 65.514 90.9026" fill="black"/></g><path id="Fill 4" fill-rule="evenodd" clip-rule="evenodd" d="M132.24 90.9439C132.24 113.661 118.694 132.076 101.983 132.076C85.2726 132.076 71.7256 113.661 71.7256 90.9439C71.7256 68.2269 85.2726 49.8119 101.983 49.8119C118.694 49.8119 132.24 68.2269 132.24 90.9439" fill="black"/></g><g id="head"><path id="Fill 6" fill-rule="evenodd" clip-rule="evenodd" d="M132.448 106.852C132.448 115.265 125.628 122.085 117.215 122.085C108.802 122.085 101.982 115.265 101.982 106.852C101.982 98.4389 108.802 91.6189 117.215 91.6189C125.628 91.6189 132.448 98.4389 132.448 106.852" fill="white"/><g id="Group 10"><path id="Fill 8" fill-rule="evenodd" clip-rule="evenodd" d="M117.216 93.619C109.919 93.619 103.983 99.555 103.983 106.852C103.983 114.149 109.919 120.085 117.216 120.085C124.513 120.085 130.449 114.149 130.449 106.852C130.449 99.555 124.513 93.619 117.216 93.619M117.216 124.085C107.714 124.085 99.9834 116.354 99.9834 106.852C99.9834 97.35 107.714 89.619 117.216 89.619C126.718 89.619 134.449 97.35 134.449 106.852C134.449 116.354 126.718 124.085 117.216 124.085" fill="black"/></g><path id="Fill 11" fill-rule="evenodd" clip-rule="evenodd" d="M66.1127 206.347V206.347C47.1557 206.347 29.6787 191.809 29.6787 174.452L45.7887 114.789C45.7887 97.432 41.1557 83.361 60.1127 83.361H80.1127C99.0697 83.361 94.4367 97.432 94.4367 114.789V174.919C94.4367 192.276 85.0697 206.347 66.1127 206.347" fill="white"/><path id="Fill 13" fill-rule="evenodd" clip-rule="evenodd" d="M31.6807 174.712C31.8537 190.529 47.8697 204.347 66.1137 204.347C85.5217 204.347 92.4377 189.146 92.4377 174.919V114.789C92.4377 111.741 92.5757 108.845 92.7097 106.044C93.0767 98.337 93.3937 91.682 90.2147 88.347C88.2987 86.338 84.9947 85.361 80.1137 85.361H60.1137C55.2317 85.361 51.9287 86.338 50.0127 88.347C46.8327 91.682 47.1497 98.338 47.5177 106.044C47.6507 108.845 47.7887 111.742 47.7887 114.789V115.055L31.6807 174.712ZM66.1137 208.347C45.6387 208.347 27.6797 192.508 27.6797 174.452V174.187L27.7487 173.931L43.7887 114.525C43.7807 111.667 43.6497 108.907 43.5217 106.234C43.1107 97.61 42.7557 90.162 47.1177 85.587C49.8287 82.743 54.0787 81.361 60.1137 81.361H80.1137C86.1477 81.361 90.3987 82.743 93.1097 85.587C97.4717 90.162 97.1167 97.61 96.7047 106.234C96.5737 108.989 96.4377 111.837 96.4377 114.789V174.919C96.4377 195.226 84.5347 208.347 66.1137 208.347V208.347Z" fill="black"/><path id="Fill 15" fill-rule="evenodd" clip-rule="evenodd" d="M77.7118 154.279C60.2448 154.279 44.4828 143.92 37.5558 127.887L36.9048 126.383C32.2738 115.662 32.0938 103.779 36.3988 92.9226C40.7048 82.0666 48.9808 73.5376 59.7008 68.9056C65.2248 66.5196 71.0518 65.3096 77.0208 65.3096C94.4888 65.3096 110.252 75.6686 117.178 91.7016L117.828 93.2066C122.46 103.927 122.64 115.81 118.334 126.666C114.028 137.522 105.753 146.051 95.0328 150.683C89.5088 153.069 83.6808 154.279 77.7118 154.279" fill="white"/><path id="Fill 17" fill-rule="evenodd" clip-rule="evenodd" d="M77.022 63.3092H77.021C70.777 63.3092 64.683 64.5742 58.908 67.0692C47.697 71.9132 39.043 80.8332 34.54 92.1852C30.038 103.538 30.226 115.964 35.069 127.175L35.719 128.68C42.963 145.446 59.446 156.279 77.712 156.279C83.956 156.279 90.05 155.014 95.825 152.518C107.037 147.675 115.69 138.755 120.193 127.403C124.695 116.05 124.507 103.624 119.664 92.4132L119.014 90.9082C111.77 74.1422 95.288 63.3092 77.022 63.3092M77.021 67.3092C93.164 67.3092 108.532 76.7332 115.342 92.4942L115.992 93.9992C125.13 115.152 115.392 139.708 94.239 148.846C88.848 151.176 83.234 152.279 77.712 152.279C61.569 152.279 46.201 142.855 39.392 127.094L38.741 125.589C29.603 104.436 39.342 79.8802 60.494 70.7412C65.886 68.4122 71.499 67.3092 77.021 67.3092" fill="black"/><path id="Fill 19" fill-rule="evenodd" clip-rule="evenodd" d="M36.7603 122.085C28.3473 122.085 21.5273 115.265 21.5273 106.852C21.5273 98.4388 28.3473 91.6188 36.7603 91.6188C37.8113 91.6188 38.8383 91.7258 39.8303 91.9288" fill="white"/><path id="Fill 21" fill-rule="evenodd" clip-rule="evenodd" d="M36.7603 124.085C27.2583 124.085 19.5273 116.354 19.5273 106.852C19.5273 97.3498 27.2583 89.6188 36.7603 89.6188C37.9273 89.6188 39.0953 89.7368 40.2313 89.9688C41.3133 90.1908 42.0103 91.2468 41.7893 92.3298C41.5683 93.4118 40.5123 94.1088 39.4293 93.8878C38.5563 93.7098 37.6583 93.6188 36.7603 93.6188C29.4633 93.6188 23.5273 99.5548 23.5273 106.852C23.5273 114.149 29.4633 120.085 36.7603 120.085C37.8643 120.085 38.7603 120.981 38.7603 122.085C38.7603 123.189 37.8643 124.085 36.7603 124.085" fill="black"/></g><path id="Fill 23" fill-rule="evenodd" clip-rule="evenodd" d="M120.279 55.5116C120.279 69.6016 101.066 81.0236 77.3661 81.0236C53.6661 81.0236 34.4531 69.6016 34.4531 55.5116C34.4531 41.4216 53.6661 29.9996 77.3661 29.9996C101.066 29.9996 120.279 41.4216 120.279 55.5116" fill="black"/><circle id="Oval" cx="46" cy="82" r="14" fill="black"/><path id="Fill 9" fill-rule="evenodd" clip-rule="evenodd" d="M83.1474 123.992H90.7084C92.7934 123.992 94.3374 120.961 93.8714 117.782L90.6874 96.0426C89.9484 90.9976 85.4234 90.7156 84.4294 95.6516L80.0524 117.391C79.3944 120.662 80.9554 123.992 83.1474 123.992" fill="#2945ff"/></g></g><g id="Face" transform="translate(657 540) scale(1 1)"><g id="Face/Long Beard"><path id="Shape" fill-rule="evenodd" clip-rule="evenodd" d="M97.7206 -1.00018C100.786 -1.00018 103.283 1.42591 103.397 4.46288L103.402 4.68082L103.402 29.8031L103.492 30.5953C104.568 40.4566 113.967 139.069 59.5288 139.069C4.40812 139.069 14.149 44.1395 15.5163 32.748L15.6568 31.6341L15.6567 4.68082C15.6567 1.54282 18.1997 -1.00018 21.3377 -1.00018C24.4747 -1.00018 27.0187 1.54282 27.0187 4.68082L27.0188 27.2231C27.0188 32.3859 30.5671 39.6387 36.1336 46.1009L36.0275 45.2287C35.3636 39.396 35.5924 33.2444 38.3632 29.381C40.2642 26.729 43.1452 25.328 46.6932 25.328C53.0238 25.328 56.7505 26.858 59.6737 28.2618L61.513 29.1553C64.55 30.5959 66.7522 31.1527 72.8138 28.3728L73.1822 28.202C80.1352 24.944 84.3572 24.452 87.2972 26.56C91.1004 29.2858 90.7022 34.8147 89.8623 42.4506C91.9761 37.6351 92.2022 33.3956 92.1444 31.2633C92.093 31.0021 92.0597 30.7344 92.0463 30.4614L92.0396 30.1868V4.68082C92.0396 1.54282 94.5836 -1.00018 97.7206 -1.00018ZM76.0623 33.4798L75.7282 33.635C67.2649 37.6018 63.3012 36.6361 58.6587 34.4376L57.442 33.8475C54.8168 32.5708 51.9694 31.328 46.6932 31.328C44.6172 31.328 43.7572 32.155 43.2392 32.876C40.5927 36.5646 41.7683 45.8404 43.6241 53.245C46.4541 55.4424 49.5196 57.3173 52.7163 58.673L59.376 52.0143C61.412 49.9793 64.712 49.9793 66.747 52.0143L73.3818 58.6491C77.3178 56.6817 80.437 54.4612 82.9066 52.1473C83.0649 49.5589 83.315 47.0836 83.5666 44.7839L83.9949 40.8814C84.394 37.0487 84.7506 32.3698 83.8722 31.4957L83.7889 31.4283C83.6359 31.3461 82.1056 30.6965 76.0623 33.4798V33.4798Z" fill="black"/></g></g><g id="Expression" transform="translate(685 531) scale(1 1)"><g id="Expression/Happy"><path id="Fill 1" fill-rule="evenodd" clip-rule="evenodd" d="M37.0177 54.3827C31.7907 54.3827 26.5648 52.3937 22.5857 48.4137C21.8047 47.6327 21.8047 46.3668 22.5857 45.5857C23.3668 44.8047 24.6327 44.8047 25.4137 45.5857C31.8117 51.9837 42.2238 51.9837 48.6217 45.5857C49.4027 44.8047 50.6688 44.8047 51.4498 45.5857C52.2318 46.3668 52.2318 47.6327 51.4498 48.4137C47.4718 52.3928 42.2437 54.3827 37.0177 54.3827" fill="black"/><path id="Fill 3" fill-rule="evenodd" clip-rule="evenodd" d="M25.1309 19.3419C22.5579 19.5899 20.2699 17.7049 20.0219 15.1319C19.7739 12.5579 21.6589 10.2709 24.2319 10.0219C26.8059 9.77392 29.0929 11.6589 29.3409 14.2329C29.5899 16.8059 27.7049 19.0939 25.1309 19.3419" fill="black"/><path id="Fill 6" fill-rule="evenodd" clip-rule="evenodd" d="M50.551 19.3419C47.977 19.5899 45.69 17.7049 45.442 15.1319C45.193 12.5579 47.079 10.2709 49.652 10.0219C52.226 9.77392 54.513 11.6589 54.761 14.2329C55.01 16.8059 53.124 19.0939 50.551 19.3419" fill="black"/></g></g><g id="Glasses" transform="translate(666 518) scale(1 1)"><g id="Glasses/Squared Glasses"><path id="Shape" fill-rule="evenodd" clip-rule="evenodd" d="M53.3679 15C54.4729 15 55.3679 15.895 55.3679 17L55.367 22.5848C55.9811 22.2769 56.6711 22.0474 57.4386 21.9512C58.8569 21.7735 59.9981 22.0814 61.1493 22.8695L61.1494 17C61.1494 15.895 62.0444 15 63.1494 15H87.7664C88.8704 15 89.7664 15.895 89.7664 17V27.658C89.7664 33.476 85.0324 38.21 79.2134 38.21H69.0344C64.6864 38.21 61.1494 34.673 61.1494 30.325L61.1495 27.3952C60.1609 26.498 59.0178 25.7906 57.9496 25.9182C56.7124 26.0652 55.767 27.3073 55.3668 27.9285L55.3679 30.325C55.3679 34.673 51.8309 38.21 47.4829 38.21H36.2519C30.4329 38.21 25.6989 33.476 25.6989 27.658L25.698 24.532L12.4394 27.5185C12.2914 27.5515 12.1444 27.5675 11.9984 27.5675C11.0834 27.5675 10.2584 26.9365 10.0494 26.0065C9.80641 24.9285 10.4834 23.8585 11.5604 23.6155L25.698 20.431L25.6989 17C25.6989 15.895 26.5939 15 27.6989 15H53.3679ZM51.3679 19H29.6989V27.658C29.6989 31.271 32.6379 34.21 36.2519 34.21H47.4829C49.6249 34.21 51.3679 32.467 51.3679 30.325V19ZM85.7664 19H65.1494V30.325C65.1494 32.467 66.8924 34.21 69.0344 34.21H79.2134C82.8264 34.21 85.7664 31.271 85.7664 27.658V19Z" fill="black"/></g></g></g></g></svg>