<svg version="1.1" id="Layer_1" xmlns="http://www.w3.org/2000/svg" xmlns:xlink="http://www.w3.org/1999/xlink" x="0px" y="0px"
	 width="100%" viewBox="0 0 450 209" enable-background="new 0 0 450 209" xml:space="preserve">
<path fill="#FEFFFF" opacity="1.000000" stroke="none" 
	d="
M345.000000,210.000000 
	C230.000046,210.000000 115.500084,210.000000 1.000092,210.000000 
	C1.000062,140.333405 1.000062,70.666801 1.000031,1.000148 
	C150.999878,1.000099 300.999756,1.000099 450.999725,1.000049 
	C450.999817,70.666527 450.999817,140.333054 450.999908,209.999786 
	C415.833344,210.000000 380.666656,210.000000 345.000000,210.000000 
M32.423027,43.285110 
	C31.248114,43.476997 30.073198,43.668884 28.163528,44.093590 
	C27.552544,45.896660 26.633959,47.658382 26.385052,49.510124 
	C25.425709,56.647091 23.306923,64.034554 29.793509,70.672318 
	C29.749737,71.104820 29.705967,71.537315 28.933617,72.232765 
	C28.963709,77.677963 28.998924,83.123138 29.021776,88.568367 
	C29.033604,91.386208 29.023504,94.204124 28.187941,97.037613 
	C27.459116,98.241814 26.183111,99.410324 26.101812,100.656761 
	C25.834429,104.756165 26.000134,108.883812 26.000208,113.934052 
	C25.999931,117.697914 25.831228,121.473473 26.091490,125.219231 
	C26.181580,126.515816 27.336929,127.738388 28.819960,129.021851 
	C29.547951,130.372208 30.477060,131.655167 30.957542,133.088486 
	C31.708149,135.327621 32.154888,137.668625 32.876793,140.856247 
	C33.265179,143.915970 33.653568,146.975677 34.397980,150.612183 
	C41.607624,153.745010 48.817268,156.877838 56.516201,160.497543 
	C61.339989,162.598022 66.163780,164.698502 71.533035,167.275131 
	C73.335815,167.966125 75.138596,168.657120 77.404648,169.828568 
	C83.202934,172.284073 89.001221,174.739578 94.799507,177.135254 
	C94.799507,177.135254 94.782631,177.185593 95.108719,177.775955 
	C100.403290,180.063126 105.697861,182.350296 111.628975,184.991669 
	C117.542046,187.659073 123.455116,190.326492 129.368179,192.993896 
	C129.757568,192.493500 130.146942,191.993103 130.536331,191.492722 
	C125.673515,185.669403 120.810707,179.846085 115.921669,173.341980 
	C115.511391,172.562622 115.101105,171.783279 114.570923,170.474182 
	C114.055008,169.989502 113.539085,169.504837 113.019592,168.986511 
	C113.019592,168.986511 112.987778,168.974991 112.888641,168.394501 
	C112.164948,167.525589 111.441254,166.656677 110.489380,165.124710 
	C109.353287,163.691681 108.217186,162.258652 106.868835,160.184052 
	C104.445366,156.683411 102.021896,153.182755 99.885368,149.190414 
	C101.576118,148.544983 103.266869,147.899551 105.629234,147.047363 
	C106.093918,147.082520 106.558594,147.117676 107.570435,147.653091 
	C112.152596,149.642578 117.187119,149.788132 121.890060,152.094299 
	C125.714775,153.969788 131.107025,152.657501 135.804657,152.719864 
	C136.063232,152.723297 136.530655,152.393936 136.557434,152.177063 
	C137.045563,148.224136 140.191345,149.520340 142.538818,148.846558 
	C144.849976,148.183197 146.871902,146.512115 149.942276,145.121841 
	C173.944153,144.017166 197.946045,142.912491 222.708862,141.965103 
	C223.475616,141.885727 224.242355,141.806351 225.667709,141.841171 
	C226.105194,141.777924 226.542679,141.714661 227.869995,141.835541 
	C232.252304,141.546356 236.634613,141.257187 241.009018,141.145218 
	C241.009018,141.145218 240.995712,141.322098 241.578812,141.720062 
	C242.272324,141.672302 242.965836,141.624527 244.228470,141.285507 
	C244.864151,141.251312 245.499832,141.217102 245.853317,141.911896 
	C244.588852,142.475586 243.324402,143.039276 242.187012,143.546326 
	C254.870789,147.348877 267.512512,139.980392 280.333649,144.442795 
	C280.325378,143.972504 280.317139,143.502197 280.308868,143.031906 
	C277.874390,142.035721 275.439880,141.039536 273.755341,139.837036 
	C274.787140,139.871429 275.818939,139.905823 277.672394,140.016495 
	C281.104767,140.099716 284.542389,140.092834 287.968018,140.292023 
	C291.260803,140.483521 294.540710,140.892899 297.827118,141.197891 
	C300.080200,141.407013 303.946655,140.964340 304.319733,141.908463 
	C306.330688,146.997559 309.925812,144.865601 313.075958,144.421005 
	C316.634094,143.918777 319.975861,143.129150 323.433197,141.474640 
	C326.028656,140.232605 328.924072,139.661926 331.883881,137.123093 
	C337.961517,136.766037 344.039124,136.408997 350.834229,136.217255 
	C351.559631,136.129868 352.285034,136.042480 353.935303,136.083649 
	C376.911621,135.128098 399.887970,134.172531 423.264923,133.200317 
	C423.264923,131.427139 423.311188,130.133881 423.257935,128.844727 
	C422.495972,110.402336 421.690552,91.961693 420.959991,73.518082 
	C420.546173,63.070583 420.249756,52.618439 419.983795,41.812908 
	C419.989532,41.560371 419.914368,41.334824 419.398041,40.335552 
	C419.390259,38.874153 419.382507,37.412750 419.787262,35.400131 
	C420.716949,33.290932 421.646606,31.181728 422.825867,28.506283 
	C421.350372,28.006386 419.750793,27.464449 418.072662,26.980625 
	C418.072662,26.980625 418.023376,26.896297 417.800690,26.483349 
	C417.583862,26.242155 417.317383,26.085384 416.451263,25.435070 
	C413.529877,25.608940 410.608246,25.779533 407.687164,25.958073 
	C406.250702,26.045868 404.816528,26.189192 403.378937,26.237207 
	C396.956665,26.451712 390.532440,26.613739 384.111694,26.864771 
	C382.979370,26.909042 381.827209,27.583439 380.740265,27.462662 
	C374.101196,26.724972 367.497009,25.530182 360.842621,25.130733 
	C357.188904,24.911411 353.465851,26.271814 349.762939,26.343187 
	C344.879272,26.437319 339.984650,25.965189 335.094757,25.736500 
	C335.058289,26.152674 335.021820,26.568848 334.985382,26.985023 
	C337.025848,27.323154 339.108582,27.507500 341.092285,28.052334 
	C342.463684,28.428991 343.698395,29.303463 344.292206,30.161858 
	C343.565582,30.123812 342.838959,30.085768 341.174469,29.972893 
	C337.863983,29.910978 334.548279,29.943821 331.244385,29.762152 
	C327.472961,29.554773 323.710785,29.170559 319.946991,28.836174 
	C317.292969,28.600384 313.869446,30.690182 312.570648,26.178455 
	C312.380066,25.516476 310.364075,25.336542 309.171021,25.013624 
	C301.411194,22.913290 295.607086,28.510612 288.829865,30.281200 
	C287.427277,30.647631 286.258209,31.907932 284.059357,32.907413 
	C278.765594,33.137299 273.462280,33.237606 268.180267,33.626820 
	C259.833099,34.241894 251.511765,35.289249 243.157227,35.695023 
	C237.434708,35.972965 231.672699,35.304710 225.931320,35.361137 
	C218.657120,35.432636 211.385941,35.810120 203.177521,35.989231 
	C200.039017,35.850296 196.869675,35.939213 193.769119,35.519764 
	C188.950745,34.867920 184.207413,33.492947 179.379349,33.131706 
	C175.083298,32.810276 170.715851,38.365105 166.366974,33.026810 
	C166.299210,32.943634 166.041794,32.983784 165.880951,33.012173 
	C161.586472,33.770248 157.275299,34.454517 153.022568,35.401169 
	C152.506531,35.516033 152.306503,37.050488 151.065643,37.955536 
	C144.651260,37.636028 138.234970,37.348110 131.824631,36.961590 
	C130.905609,36.906178 129.880920,36.563843 129.133560,36.032795 
	C124.340370,32.626900 119.061211,32.679348 113.566803,33.365719 
	C113.128342,35.339333 112.750252,37.041191 112.502579,38.156006 
	C108.647583,39.112690 105.342155,39.932987 101.113060,40.918365 
	C96.061707,41.239792 91.010361,41.561218 85.073059,41.755333 
	C82.396545,41.890984 79.720032,42.026634 76.133934,42.042652 
	C72.394737,42.283031 68.655548,42.523411 64.155083,42.663036 
	C63.393188,42.595787 62.631290,42.528534 61.219833,42.117928 
	C55.799450,41.750034 50.372341,41.047668 44.961533,41.156368 
	C42.284828,41.210144 39.638149,42.758305 36.168674,43.797592 
	C35.069786,43.775570 33.970894,43.753548 32.423027,43.285110 
M25.582014,80.516014 
	C25.582014,80.516014 25.478407,80.576309 25.582014,80.516014 
M297.414551,144.482651 
	C297.414551,144.482651 297.523132,144.418442 297.414551,144.482651 
M320.414551,25.483814 
	C320.414551,25.483814 320.522278,25.420259 320.414551,25.483814 
M25.410336,42.482685 
	C25.410336,42.482685 25.525703,42.413639 25.410336,42.482685 
z"/>
<path fill="#2498E7" opacity="1.000000" stroke="none" 
	d="
M34.041954,150.035400 
	C33.653568,146.975677 33.265179,143.915970 32.883011,139.960968 
	C32.625523,133.431320 32.368927,127.796631 32.096767,122.162689 
	C31.288532,105.431580 30.474165,88.700752 29.662197,71.969818 
	C29.705967,71.537315 29.749737,71.104820 29.813881,69.953674 
	C29.867453,67.868019 29.900654,66.500992 29.968700,64.833000 
	C29.892788,63.760838 29.782030,62.989651 29.556616,61.782272 
	C29.413342,59.842743 29.384726,58.339394 29.577297,56.512680 
	C29.974131,52.626873 30.149778,49.064442 30.325426,45.502007 
	C32.586918,49.948357 36.169865,47.652657 38.779270,47.737717 
	C39.467918,47.760162 40.239765,45.230225 41.390976,43.756653 
	C48.495491,43.247749 55.182446,42.854519 61.869396,42.461288 
	C62.631290,42.528534 63.393188,42.595787 64.695938,42.996246 
	C65.825272,43.557865 66.413750,43.786274 66.844849,44.255585 
	C66.125404,45.001194 65.563347,45.505909 64.737534,46.291100 
	C62.220230,46.943996 59.966694,47.316414 57.713154,47.688831 
	C57.773788,47.792252 57.834427,47.895668 57.895061,47.999084 
	C68.259285,47.999084 78.623505,47.999084 89.401474,47.997982 
	C91.517494,47.746437 93.219772,47.495998 94.922050,47.245556 
	C94.830551,46.831589 94.739059,46.417625 94.647560,46.003658 
	C92.762283,46.003658 90.877014,46.003658 88.995789,46.001450 
	C88.999840,45.999237 89.000076,46.007267 88.773682,45.733803 
	C87.030014,44.971954 85.512741,44.483566 83.997742,43.997589 
	C84.000000,44.000000 83.993546,43.998581 84.323883,43.953529 
	C85.089142,43.233200 85.524078,42.557922 85.959007,41.882645 
	C91.010361,41.561218 96.061707,41.239792 102.031303,40.914162 
	C126.268814,39.830654 149.588074,38.751350 173.319580,37.731651 
	C174.819122,37.654213 175.906433,37.517170 177.406494,37.472466 
	C180.211456,37.372673 182.603683,37.180542 185.462402,37.035892 
	C191.990417,36.740795 198.051941,36.398220 204.113449,36.055641 
	C211.385941,35.810120 218.657120,35.432636 225.931320,35.361137 
	C231.672699,35.304710 237.434708,35.972965 243.157227,35.695023 
	C251.511765,35.289249 259.833099,34.241894 268.180267,33.626820 
	C273.462280,33.237606 278.765594,33.137299 284.981567,32.906506 
	C290.695374,32.678196 295.484863,32.335827 300.278992,32.247829 
	C309.651184,32.075809 319.033051,32.233021 328.396606,31.877028 
	C332.985077,31.702579 337.541443,30.684168 342.112335,30.047722 
	C342.838959,30.085768 343.565582,30.123812 345.087921,30.119917 
	C369.587738,29.040087 393.291840,28.002199 417.257202,27.013903 
	C417.686798,27.007763 417.855103,26.952030 418.023376,26.896297 
	C418.023376,26.896297 418.072662,26.980625 418.278687,27.321705 
	C418.781403,30.425640 419.078064,33.188496 419.374756,35.951351 
	C419.382507,37.412750 419.390259,38.874153 419.487732,40.909042 
	C419.561157,41.769402 419.668823,41.998020 419.900452,42.168388 
	C420.249756,52.618439 420.546173,63.070583 420.959991,73.518082 
	C421.690552,91.961693 422.495972,110.402336 423.257935,128.844727 
	C423.311188,130.133881 423.264923,131.427139 423.264923,133.200317 
	C399.887970,134.172531 376.911621,135.128098 353.562012,135.628128 
	C355.016449,134.780289 356.828644,134.275620 358.675354,134.020859 
	C361.747406,133.597107 364.841553,133.333694 367.926392,133.002731 
	C367.844025,132.403076 367.761627,131.803421 367.679260,131.203766 
	C357.845215,132.575134 348.011200,133.946518 338.177185,135.317902 
	C338.192596,135.562576 338.207977,135.807266 338.223389,136.051941 
	C342.187836,136.051941 346.152313,136.051941 350.116760,136.051941 
	C344.039124,136.408997 337.961517,136.766037 330.973297,137.123474 
	C320.928741,137.523987 311.791473,137.861206 302.661804,138.342438 
	C294.053955,138.796158 285.454102,139.401550 276.850739,139.940216 
	C275.818939,139.905823 274.787140,139.871429 272.917053,139.877930 
	C267.106750,139.981598 262.134735,140.044357 256.857117,140.059875 
	C255.761810,140.124817 254.972092,140.237030 253.765091,140.464966 
	C251.906296,140.587723 250.464813,140.594742 248.906799,140.274078 
	C246.636688,138.895630 244.452393,137.659424 242.671417,140.965149 
	C241.886688,141.124786 241.441193,141.223450 240.995712,141.322098 
	C240.995712,141.322098 241.009018,141.145218 240.920547,140.676865 
	C238.228104,139.816727 235.624130,139.424942 232.727478,138.729279 
	C225.393570,138.290619 218.352188,138.093414 211.311310,138.110672 
	C210.546997,138.112564 209.785721,139.354187 209.314102,140.308273 
	C213.719421,140.999802 217.833679,141.403809 221.947922,141.807831 
	C197.946045,142.912491 173.944153,144.017166 149.024338,145.124374 
	C134.412033,145.802216 120.717651,146.477509 107.023277,147.152817 
	C106.558594,147.117676 106.093918,147.082520 104.888039,147.093109 
	C102.091789,147.404190 100.036728,147.669525 97.734772,147.928558 
	C97.487869,147.922272 96.994995,147.955170 96.541718,147.935120 
	C93.055496,147.960266 90.022560,148.005478 86.561234,148.026932 
	C84.418922,148.049942 82.705017,148.096695 80.747780,148.135223 
	C80.504456,148.126999 80.031853,148.244202 79.600983,148.195740 
	C77.437546,148.175247 75.704979,148.203201 73.744019,148.262238 
	C73.228401,148.438629 73.015182,148.656433 72.415192,148.933365 
	C59.316936,149.291779 46.679447,149.663589 34.041954,150.035400 
M208.555481,108.518227 
	C209.039948,106.342918 209.524414,104.167618 210.834381,101.965462 
	C214.443253,99.159096 213.920410,91.112244 209.427429,89.537727 
	C208.949783,92.025475 208.472153,94.513214 207.235809,97.164948 
	C205.610916,99.959175 204.443939,102.708801 208.000961,105.666809 
	C208.000046,106.112328 207.999146,106.557846 207.454453,107.480988 
	C207.282028,108.993294 207.109589,110.505608 206.937149,112.017914 
	C207.201996,112.044083 207.466858,112.070244 207.731705,112.096413 
	C207.823273,111.062698 207.914841,110.028984 208.555481,108.518227 
M198.094147,64.256943 
	C195.392654,64.501984 192.691147,64.747032 189.492538,64.942825 
	C189.492538,64.942825 189.025711,65.120674 188.333908,65.471825 
	C188.475662,67.991989 188.617416,70.512146 188.761658,73.948112 
	C188.789719,77.615822 188.817764,81.283539 188.184982,85.461998 
	C188.703033,89.144997 189.221085,92.828003 189.746689,97.346695 
	C189.858368,99.900040 189.970047,102.453377 189.939850,105.796577 
	C190.018738,106.857384 190.097626,107.918198 190.077957,109.809540 
	C190.220703,111.182884 190.363449,112.556229 190.497604,114.674599 
	C194.309967,114.701241 198.122360,114.731895 201.933731,114.681961 
	C201.963531,114.681564 201.978958,113.584404 202.087921,112.068085 
	C201.646927,102.369308 201.205917,92.670540 200.915100,82.330475 
	C200.841431,81.902695 200.767761,81.474915 200.778015,80.288956 
	C200.696732,79.536072 200.615448,78.783195 200.707779,77.156601 
	C200.122467,72.875816 199.537155,68.595024 198.094147,64.256943 
M391.792145,72.826149 
	C392.354462,69.293053 392.916779,65.759956 393.569122,61.661461 
	C391.886627,63.238461 390.942688,64.123199 389.998199,64.086380 
	C389.952606,62.534554 389.907013,60.982731 389.584320,58.707382 
	C389.306122,57.847862 389.254028,56.433498 388.715118,56.213921 
	C382.793732,53.801361 377.856445,57.025047 377.245911,63.388180 
	C376.660736,69.486649 375.870789,75.565460 375.170837,81.652916 
	C372.979797,75.904236 371.506775,70.127159 371.041138,64.270004 
	C370.523346,57.756485 370.088745,56.920918 363.424530,57.064205 
	C361.761230,57.099964 359.988312,56.807987 358.473053,57.302185 
	C357.437775,57.639824 356.762146,59.080132 355.427673,60.508705 
	C355.097656,61.851559 354.767670,63.194408 354.231232,65.377266 
	C352.051727,62.859352 350.432709,60.988960 348.873566,59.039185 
	C348.873566,59.039185 348.887360,59.137661 348.881958,58.441021 
	C347.600250,58.214977 346.318512,57.988937 344.148865,57.937668 
	C341.753296,58.095100 339.357727,58.252537 336.634338,58.431515 
	C337.016907,60.685814 337.196808,62.329769 337.582214,63.924042 
	C340.473846,75.884666 343.315674,87.858482 346.352325,99.782516 
	C349.068848,110.449333 346.849518,108.765053 357.907349,108.274780 
	C361.422363,108.118927 362.067810,106.833450 362.092346,103.413254 
	C362.144867,96.083427 362.995483,88.759331 363.519287,81.432884 
	C363.843964,81.409409 364.168610,81.385933 364.493286,81.362457 
	C366.044708,90.051575 367.596100,98.740692 369.169434,107.552551 
	C371.938446,107.552551 374.402405,107.509140 376.864288,107.562454 
	C380.822632,107.648163 382.750336,106.034607 383.032898,101.805565 
	C383.342010,97.179482 384.450256,92.606812 385.851593,87.855736 
	C387.240051,86.327278 389.369659,85.001877 389.856110,83.226311 
	C390.750641,79.961006 390.678253,76.430801 391.792145,72.826149 
M71.415230,95.536942 
	C71.389664,95.887299 71.512276,96.174492 71.798668,97.285362 
	C72.057693,105.023445 72.316711,112.761536 72.591919,120.983002 
	C77.166969,120.639786 80.837402,120.364426 84.508667,120.089012 
	C83.978226,107.272636 83.390114,95.334084 83.116318,83.388336 
	C83.084404,81.996025 84.575844,79.561081 85.725891,79.315086 
	C92.531036,77.859421 92.822021,77.675888 91.802582,69.100227 
	C84.273209,69.440491 76.635201,69.785660 68.498322,70.026421 
	C68.335762,70.075813 68.173210,70.125206 67.252708,70.079704 
	C66.499222,70.163597 65.745728,70.247490 64.497086,70.279938 
	C64.497086,70.279938 64.046318,70.491188 63.398006,70.323448 
	C62.961372,70.383438 62.524734,70.443428 61.364017,70.706161 
	C61.345932,72.785126 61.327847,74.864098 61.204212,77.608887 
	C61.262463,78.051773 61.320709,78.494659 61.270630,79.749825 
	C64.112694,80.420013 66.954758,81.090202 69.443260,81.677017 
	C70.114792,84.209892 70.741409,86.573380 71.299133,89.824409 
	C71.416245,91.588974 71.533348,93.353539 71.415230,95.536942 
M217.784073,114.244911 
	C219.210495,114.283508 220.636932,114.322098 222.717606,114.780327 
	C231.869690,115.418907 231.964676,115.333611 231.978043,106.328766 
	C231.983429,102.692863 232.019958,99.056343 231.965424,95.421265 
	C231.936203,93.473999 231.743637,91.529190 231.624802,89.583267 
	C231.125824,89.621269 230.626862,89.659279 230.127899,89.697289 
	C230.352386,94.824699 230.576874,99.952110 230.801361,105.079521 
	C230.370178,105.064209 229.938980,105.048897 229.507782,105.033585 
	C229.024139,102.357033 228.540497,99.680489 227.878784,96.107147 
	C227.541718,88.530266 227.204636,80.953392 226.858994,73.184036 
	C229.045151,73.076881 230.519745,73.022049 231.991791,72.927513 
	C233.444427,72.834229 234.894485,72.700775 236.271912,72.590836 
	C237.452255,64.167412 236.537445,61.883289 231.480377,62.113499 
	C222.791824,62.509029 214.127655,63.440029 205.029068,64.180786 
	C205.029068,67.416389 205.029068,70.203804 204.385696,73.092255 
	C204.613174,73.716972 204.816116,74.873871 205.071854,74.885651 
	C208.301254,75.034531 211.538269,75.018356 214.915817,75.694252 
	C214.885117,76.135132 214.854416,76.576004 214.309631,77.640518 
	C214.655045,81.439613 215.000443,85.238701 215.661865,89.826927 
	C215.647293,91.242355 215.632721,92.657776 215.198471,94.760345 
	C215.142059,99.971207 214.962357,105.185753 215.117996,110.390282 
	C215.155777,111.653305 216.298386,112.883301 217.784073,114.244911 
M152.433838,70.445236 
	C152.313568,71.293587 152.193298,72.141930 151.739777,73.658569 
	C150.982376,76.045601 150.224991,78.432625 149.467606,80.819649 
	C146.760529,71.532799 143.437485,64.012993 131.758865,67.063034 
	C131.643387,67.093208 131.564255,67.262474 131.030457,67.842010 
	C138.394577,83.526627 147.287460,99.156654 144.291946,118.080696 
	C147.049301,117.703110 148.507309,117.464363 149.974182,117.309509 
	C155.657120,116.709564 159.861084,111.852470 157.617905,106.803459 
	C154.571060,99.945541 156.692001,94.095078 158.733658,87.897606 
	C160.235184,83.339729 161.631088,78.747070 163.524399,73.591255 
	C164.334000,71.190872 165.143585,68.790497 166.053680,66.092163 
	C162.498688,66.092163 159.677704,65.894814 156.906082,66.178993 
	C155.604340,66.312477 154.397659,67.373177 152.962280,68.651199 
	C152.935867,69.091766 152.909439,69.532333 152.433838,70.445236 
M126.895844,72.320450 
	C120.246689,65.595001 111.855598,68.397995 103.167946,68.026756 
	C98.234283,67.162537 96.656204,69.564651 96.961174,74.145737 
	C97.512794,82.431786 97.933830,90.726845 98.366821,99.020370 
	C98.720062,105.786301 99.011230,112.555466 99.353584,119.825722 
	C103.451805,119.488426 107.116356,119.186829 110.724968,118.889824 
	C111.038216,112.207367 111.327515,106.035782 111.634071,99.496071 
	C118.641441,102.661057 118.641449,102.661057 118.756157,108.913452 
	C118.954048,119.699379 119.076912,119.810760 129.898788,118.328445 
	C130.822281,118.201958 131.716858,117.864182 132.725632,117.597969 
	C129.360764,109.371155 132.638062,99.435394 124.834534,93.047813 
	C131.035416,86.797607 131.197708,78.694687 126.895844,72.320450 
M298.839844,96.433525 
	C299.279144,97.591675 299.690857,98.761215 300.163422,99.905640 
	C301.194672,102.403000 301.548035,105.964432 303.423737,107.199165 
	C314.021301,114.175194 331.348846,113.303368 334.078674,97.091080 
	C338.378967,96.527588 334.761963,93.207809 335.998108,91.577576 
	C335.221008,91.039253 334.443909,90.500931 333.346039,89.086525 
	C332.824646,81.835114 332.303253,74.583710 332.378052,67.090950 
	C332.741791,66.646751 333.105530,66.202560 333.469269,65.758362 
	C333.234039,65.593193 332.998840,65.428017 332.763611,65.262848 
	C332.399292,65.915192 332.035004,66.567543 331.096252,66.857941 
	C326.335785,58.649921 319.768921,56.155312 309.934967,58.819233 
	C302.716797,60.774559 299.096130,66.111732 299.035400,75.125252 
	C299.004089,79.770058 299.312866,84.420227 299.180298,89.059761 
	C299.128937,90.856644 298.282898,92.630814 297.374695,93.337563 
	C297.374695,85.290451 297.374695,77.243347 297.374695,69.196236 
	C296.687714,74.942261 296.093048,80.721687 296.106384,86.499710 
	C296.113831,89.728104 297.130676,92.954155 297.536102,96.383423 
	C297.536102,96.383423 297.348541,96.209641 297.223907,96.763252 
	C297.476898,96.604492 297.729889,96.445724 298.839844,96.433525 
M272.882904,64.488190 
	C271.136108,58.347023 266.314667,61.842228 262.866272,61.472366 
	C259.127655,61.071373 258.231537,62.647835 258.607880,66.887070 
	C259.671753,78.871796 260.290192,90.966682 259.923462,102.982758 
	C259.682129,110.889236 260.312744,112.588997 268.243317,112.125969 
	C269.363159,112.060593 270.480591,111.953201 272.267914,111.812668 
	C271.707031,103.437897 271.164429,95.336594 270.621826,87.235291 
	C270.975861,86.920540 271.329865,86.605789 271.683899,86.291039 
	C271.851624,86.933205 271.971008,87.592743 272.194611,88.214828 
	C274.213654,93.832993 276.278046,99.434952 278.275970,105.060562 
	C280.753052,112.035530 280.727814,111.996811 288.076385,111.466225 
	C291.403198,111.226028 294.638062,111.176041 292.999725,106.241463 
	C292.823334,105.710075 293.886810,104.871010 294.009186,104.115402 
	C294.288116,102.392899 294.693542,100.572136 294.403656,98.903130 
	C293.927673,96.162643 292.438202,93.543892 292.259064,90.815834 
	C291.598419,80.755783 291.300140,70.671928 290.845184,60.124115 
	C287.000732,60.466602 283.803467,60.751434 280.276398,61.065647 
	C280.604706,68.564682 280.909363,75.523888 281.214050,82.483101 
	C280.650574,82.567078 280.087128,82.651047 279.523651,82.735023 
	C277.398804,76.905563 275.273987,71.076103 272.882904,64.488190 
M176.378830,138.000122 
	C173.971527,138.149719 171.564240,138.299301 169.156937,138.448898 
	C169.210983,139.281982 169.265015,140.115067 169.319061,140.948166 
	C174.189072,140.647766 179.059082,140.347351 183.929092,140.046951 
	C183.946884,139.659424 183.964676,139.271896 183.982468,138.884369 
	C181.747208,138.590118 179.511932,138.295883 176.378830,138.000122 
M335.086121,82.640434 
	C335.230743,82.721825 335.367981,82.835457 335.523102,82.871132 
	C335.601837,82.889229 335.798248,82.765236 335.797180,82.708122 
	C335.714355,78.174683 335.617157,73.641510 335.521088,69.108315 
	C334.893860,69.145927 334.266602,69.183540 333.639343,69.221153 
	C334.049225,73.462906 334.459137,77.704666 335.086121,82.640434 
M67.997299,88.724365 
	C67.829102,87.332352 67.660896,85.940331 67.492699,84.548317 
	C67.201607,84.614922 66.910522,84.681534 66.619431,84.748138 
	C66.619431,88.609596 66.619431,92.471046 66.619431,96.332504 
	C67.079521,96.325546 67.539604,96.318588 67.999695,96.311638 
	C67.999695,94.079308 67.999695,91.846970 67.997299,88.724365 
M374.171204,130.006287 
	C373.254242,130.254776 372.337250,130.503281 371.420288,130.751770 
	C371.552795,131.177094 371.685333,131.602402 371.817841,132.027725 
	C373.192474,131.519653 374.567108,131.011566 375.941742,130.503479 
	C375.735535,130.348221 375.543976,130.164307 375.317566,130.048538 
	C375.183075,129.979752 374.993744,130.018280 374.171204,130.006287 
z"/>
<path fill="#2272A8" opacity="1.000000" stroke="none" 
	d="
M96.994995,147.955170 
	C96.994995,147.955170 97.487869,147.922272 97.879913,148.196533 
	C98.714111,148.874573 99.156265,149.278336 99.598427,149.682114 
	C102.021896,153.182755 104.445366,156.683411 106.789047,160.732834 
	C104.479942,159.338348 102.250633,157.395065 100.734619,156.073578 
	C96.949837,156.553146 93.649353,156.643082 90.528885,157.438873 
	C84.981911,158.853500 79.478516,160.515808 74.101631,162.472290 
	C72.551193,163.036438 69.822815,163.803955 70.987564,166.798996 
	C66.163780,164.698502 61.339989,162.598022 56.449051,160.053574 
	C55.713047,158.689255 55.044197,157.768890 54.117092,156.493164 
	C55.287739,156.297577 56.141766,156.154892 57.077293,156.390808 
	C62.875195,160.082321 67.663078,155.075150 73.444122,155.001434 
	C80.501724,154.076889 87.104126,153.042908 93.737595,152.278610 
	C96.617317,151.946823 97.315659,150.455063 96.994995,147.955170 
z"/>
<path fill="#EEF7F8" opacity="1.000000" stroke="none" 
	d="
M416.995941,26.964310 
	C393.291840,28.002199 369.587738,29.040087 345.438904,30.016731 
	C343.698395,29.303463 342.463684,28.428991 341.092285,28.052334 
	C339.108582,27.507500 337.025848,27.323154 334.985382,26.985023 
	C335.021820,26.568848 335.058289,26.152674 335.094757,25.736500 
	C339.984650,25.965189 344.879272,26.437319 349.762939,26.343187 
	C353.465851,26.271814 357.188904,24.911411 360.842621,25.130733 
	C367.497009,25.530182 374.101196,26.724972 380.740265,27.462662 
	C381.827209,27.583439 382.979370,26.909042 384.111694,26.864771 
	C390.532440,26.613739 396.956665,26.451712 403.378937,26.237207 
	C404.816528,26.189192 406.250702,26.045868 407.687164,25.958073 
	C410.608246,25.779533 413.529877,25.608940 416.723938,25.961792 
	C416.996582,26.488514 416.995941,26.964312 416.995941,26.964310 
z"/>
<path fill="#1F6696" opacity="1.000000" stroke="none" 
	d="
M56.995792,156.012207 
	C56.141766,156.154892 55.287739,156.297577 54.117092,156.493164 
	C55.044197,157.768890 55.713047,158.689255 56.204407,159.810135 
	C48.817268,156.877838 41.607624,153.745010 34.219967,150.323792 
	C46.679447,149.663589 59.316936,149.291779 72.639526,148.882401 
	C73.613754,148.717484 73.829689,148.512924 73.972420,148.231171 
	C75.704979,148.203201 77.437546,148.175247 79.703781,148.318848 
	C80.237450,148.490417 80.684525,148.509003 80.684525,148.509003 
	C80.684525,148.509003 80.991104,148.143448 80.991104,148.143448 
	C82.705017,148.096695 84.418922,148.049942 86.549423,148.423706 
	C86.243141,149.553589 85.590439,150.775192 84.785515,150.885422 
	C80.879402,151.420410 76.932472,151.657425 72.536201,151.999695 
	C67.700912,152.286865 63.310272,152.428314 58.975616,152.996689 
	C58.197258,153.098755 57.649837,154.962082 56.995792,156.012207 
z"/>
<path fill="#EEF8F9" opacity="1.000000" stroke="none" 
	d="
M341.643402,30.010307 
	C337.541443,30.684168 332.985077,31.702579 328.396606,31.877028 
	C319.033051,32.233021 309.651184,32.075809 300.278992,32.247829 
	C295.484863,32.335827 290.695374,32.678196 285.442688,32.830929 
	C286.258209,31.907932 287.427277,30.647631 288.829865,30.281200 
	C295.607086,28.510612 301.411194,22.913290 309.171021,25.013624 
	C310.364075,25.336542 312.380066,25.516476 312.570648,26.178455 
	C313.869446,30.690182 317.292969,28.600384 319.946991,28.836174 
	C323.710785,29.170559 327.472961,29.554773 331.244385,29.762152 
	C334.548279,29.943821 337.863983,29.910978 341.643402,30.010307 
z"/>
<path fill="#217BB6" opacity="1.000000" stroke="none" 
	d="
M71.260300,167.037064 
	C69.822815,163.803955 72.551193,163.036438 74.101631,162.472290 
	C79.478516,160.515808 84.981911,158.853500 90.528885,157.438873 
	C93.649353,156.643082 96.949837,156.553146 100.734619,156.073578 
	C102.250633,157.395065 104.479942,159.338348 106.895172,161.053619 
	C108.217186,162.258652 109.353287,163.691681 110.270920,165.451538 
	C108.701637,165.851837 107.350822,165.925308 105.913597,165.608704 
	C102.871758,164.983887 99.885155,164.359436 96.967148,164.592773 
	C90.172440,165.136124 83.410759,166.092575 76.370781,166.912506 
	C76.514450,167.525757 76.727913,168.436935 76.941383,169.348114 
	C75.138596,168.657120 73.335815,167.966125 71.260300,167.037064 
z"/>
<path fill="#EAF7FA" opacity="1.000000" stroke="none" 
	d="
M172.907349,37.672047 
	C149.588074,38.751350 126.268814,39.830654 102.493141,40.831619 
	C105.342155,39.932987 108.647583,39.112690 112.502579,38.156006 
	C112.750252,37.041191 113.128342,35.339333 113.566803,33.365719 
	C119.061211,32.679348 124.340370,32.626900 129.133560,36.032795 
	C129.880920,36.563843 130.905609,36.906178 131.824631,36.961590 
	C138.234970,37.348110 144.651260,37.636028 151.908157,37.802101 
	C159.469559,37.656460 166.188461,37.664253 172.907349,37.672047 
z"/>
<path fill="#F0F8F8" opacity="1.000000" stroke="none" 
	d="
M277.261566,139.978363 
	C285.454102,139.401550 294.053955,138.796158 302.661804,138.342438 
	C311.791473,137.861206 320.928741,137.523987 330.508545,137.203705 
	C328.924072,139.661926 326.028656,140.232605 323.433197,141.474640 
	C319.975861,143.129150 316.634094,143.918777 313.075958,144.421005 
	C309.925812,144.865601 306.330688,146.997559 304.319733,141.908463 
	C303.946655,140.964340 300.080200,141.407013 297.827118,141.197891 
	C294.540710,140.892899 291.260803,140.483521 287.968018,140.292023 
	C284.542389,140.092834 281.104767,140.099716 277.261566,139.978363 
z"/>
<path fill="#F0F8F8" opacity="1.000000" stroke="none" 
	d="
M107.296860,147.402954 
	C120.717651,146.477509 134.412033,145.802216 148.563568,145.205048 
	C146.871902,146.512115 144.849976,148.183197 142.538818,148.846558 
	C140.191345,149.520340 137.045563,148.224136 136.557434,152.177063 
	C136.530655,152.393936 136.063232,152.723297 135.804657,152.719864 
	C131.107025,152.657501 125.714775,153.969788 121.890060,152.094299 
	C117.187119,149.788132 112.152596,149.642578 107.296860,147.402954 
z"/>
<path fill="#2480BF" opacity="1.000000" stroke="none" 
	d="
M77.173019,169.588348 
	C76.727913,168.436935 76.514450,167.525757 76.370781,166.912506 
	C83.410759,166.092575 90.172440,165.136124 96.967148,164.592773 
	C99.885155,164.359436 102.871758,164.983887 105.912827,165.857727 
	C105.998459,166.496826 105.998291,166.994843 105.629684,167.156769 
	C101.815338,167.875885 98.369606,168.433060 95.266792,168.934799 
	C95.855942,170.293076 96.250267,171.202225 96.644600,172.111359 
	C95.425171,172.353714 94.089149,173.037277 93.009171,172.751907 
	C90.272736,172.028809 87.651199,170.870956 84.983650,169.887207 
	C84.898735,170.132553 84.813828,170.377914 84.728920,170.623260 
	C88.085777,172.813873 91.442642,175.004486 94.799500,177.195099 
	C89.001221,174.739578 83.202934,172.284073 77.173019,169.588348 
z"/>
<path fill="#E7F6FA" opacity="1.000000" stroke="none" 
	d="
M29.297905,72.101288 
	C30.474165,88.700752 31.288532,105.431580 32.096767,122.162689 
	C32.368927,127.796631 32.625523,133.431320 32.809799,139.516068 
	C32.154888,137.668625 31.708149,135.327621 30.957542,133.088486 
	C30.477060,131.655167 29.547951,130.372208 28.411346,128.565002 
	C28.002684,125.740623 28.002630,123.373100 28.364002,120.938057 
	C30.487911,118.946304 31.088406,117.193459 28.006088,115.610992 
	C28.007652,114.491997 28.007845,113.745995 28.058722,112.600296 
	C28.355644,110.137909 28.711281,108.081085 28.822084,106.011139 
	C28.982214,103.019745 28.964911,100.018852 29.023308,97.022011 
	C29.023504,94.204124 29.033604,91.386208 29.021776,88.568367 
	C28.998924,83.123138 28.963709,77.677963 29.297905,72.101288 
z"/>
<path fill="#2287CC" opacity="1.000000" stroke="none" 
	d="
M94.799500,177.165176 
	C91.442642,175.004486 88.085777,172.813873 84.728920,170.623260 
	C84.813828,170.377914 84.898735,170.132553 84.983650,169.887207 
	C87.651199,170.870956 90.272736,172.028809 93.009171,172.751907 
	C94.089149,173.037277 95.425171,172.353714 96.644600,172.111359 
	C96.250267,171.202225 95.855942,170.293076 95.266792,168.934799 
	C98.369606,168.433060 101.815338,167.875885 105.776566,167.452148 
	C108.523964,168.048721 110.755875,168.511856 112.987778,168.974991 
	C112.987778,168.974991 113.019592,168.986511 113.041412,169.297729 
	C113.605759,170.073929 114.148293,170.538925 114.690826,171.003922 
	C115.101105,171.783279 115.511391,172.562622 115.704208,173.679962 
	C115.486740,174.017960 115.025688,174.017334 114.584274,174.011276 
	C109.822067,173.638748 105.750404,173.969482 102.746788,177.992645 
	C102.497139,177.997299 101.997986,178.012192 101.998840,178.006409 
	C101.999695,178.000610 101.989700,178.005554 101.759521,177.733429 
	C100.354958,177.325638 99.180573,177.190002 97.742973,177.146667 
	C96.580719,177.221191 95.681679,177.203384 94.782631,177.185593 
	C94.782631,177.185593 94.799507,177.135254 94.799500,177.165176 
z"/>
<path fill="#2B96DE" opacity="1.000000" stroke="none" 
	d="
M115.025688,174.017334 
	C115.025688,174.017334 115.486740,174.017960 115.717316,174.020355 
	C120.810707,179.846085 125.673515,185.669403 130.536331,191.492722 
	C130.146942,191.993103 129.757568,192.493500 129.368179,192.993896 
	C123.455116,190.326492 117.542046,187.659073 111.302460,184.481064 
	C109.644218,182.651123 108.312492,181.331787 107.362305,180.013504 
	C109.870506,180.493362 111.997169,180.972183 114.678780,181.575943 
	C114.808968,178.739304 114.917328,176.378326 115.025688,174.017334 
z"/>
<path fill="#F2FAF8" opacity="1.000000" stroke="none" 
	d="
M173.319580,37.731651 
	C166.188461,37.664253 159.469559,37.656460 152.355347,37.787846 
	C152.306503,37.050488 152.506531,35.516033 153.022568,35.401169 
	C157.275299,34.454517 161.586472,33.770248 165.880951,33.012173 
	C166.041794,32.983784 166.299210,32.943634 166.366974,33.026810 
	C170.715851,38.365105 175.083298,32.810276 179.379349,33.131706 
	C184.207413,33.492947 188.950745,34.867920 193.769119,35.519764 
	C196.869675,35.939213 200.039017,35.850296 203.645477,36.022438 
	C198.051941,36.398220 191.990417,36.740795 185.197418,36.756943 
	C181.975220,36.747051 179.484482,37.063591 176.993759,37.380127 
	C175.906433,37.517170 174.819122,37.654213 173.319580,37.731651 
z"/>
<path fill="#F0F8F8" opacity="1.000000" stroke="none" 
	d="
M249.023315,140.601776 
	C250.464813,140.594742 251.906296,140.587723 254.052216,140.604706 
	C255.558670,140.454849 256.360687,140.280991 257.162720,140.107132 
	C262.134735,140.044357 267.106750,139.981598 272.542084,139.981079 
	C275.439880,141.039536 277.874390,142.035721 280.308868,143.031906 
	C280.317139,143.502197 280.325378,143.972504 280.333649,144.442795 
	C267.512512,139.980392 254.870789,147.348877 242.187012,143.546326 
	C243.324402,143.039276 244.588852,142.475586 246.282852,141.484680 
	C247.482697,140.905548 248.253006,140.753662 249.023315,140.601776 
z"/>
<path fill="#E7F6FA" opacity="1.000000" stroke="none" 
	d="
M29.933857,65.133972 
	C29.900654,66.500992 29.867453,67.868019 29.739475,69.634178 
	C23.306923,64.034554 25.425709,56.647091 26.385052,49.510124 
	C26.633959,47.658382 27.552544,45.896660 28.563381,44.021500 
	C28.963234,43.949406 29.033138,44.034187 28.977615,44.482800 
	C28.901722,47.948872 28.881353,50.966335 28.631454,53.755890 
	C28.134235,52.672977 27.866547,51.817963 27.598858,50.962952 
	C27.199671,51.114506 26.800486,51.266060 26.401299,51.417614 
	C27.241289,53.286060 28.081278,55.154510 29.027218,56.969814 
	C29.133171,56.916672 29.356108,56.836048 29.356110,56.836048 
	C29.384726,58.339394 29.413342,59.842743 29.417355,62.062092 
	C29.573120,63.563389 29.753489,64.348679 29.933857,65.133972 
z"/>
<path fill="#2896DB" opacity="1.000000" stroke="none" 
	d="
M350.475494,136.134598 
	C346.152313,136.051941 342.187836,136.051941 338.223389,136.051941 
	C338.207977,135.807266 338.192596,135.562576 338.177185,135.317902 
	C348.011200,133.946518 357.845215,132.575134 367.679260,131.203766 
	C367.761627,131.803421 367.844025,132.403076 367.926392,133.002731 
	C364.841553,133.333694 361.747406,133.597107 358.675354,134.020859 
	C356.828644,134.275620 355.016449,134.780289 353.099579,135.563843 
	C352.285034,136.042480 351.559631,136.129868 350.475494,136.134598 
z"/>
<path fill="#E7F6FA" opacity="1.000000" stroke="none" 
	d="
M61.544617,42.289608 
	C55.182446,42.854519 48.495491,43.247749 41.018398,43.722839 
	C39.485260,43.867901 38.742264,43.931099 37.738205,43.919357 
	C37.310722,43.773052 37.144302,43.701694 36.977882,43.630333 
	C39.638149,42.758305 42.284828,41.210144 44.961533,41.156368 
	C50.372341,41.047668 55.799450,41.750034 61.544617,42.289608 
z"/>
<path fill="#F8FCFC" opacity="1.000000" stroke="none" 
	d="
M28.605625,97.029816 
	C28.964911,100.018852 28.982214,103.019745 28.822084,106.011139 
	C28.711281,108.081085 28.355644,110.137909 27.723854,112.601028 
	C26.892021,113.001167 26.445744,113.000885 25.999466,113.000610 
	C26.000134,108.883812 25.834429,104.756165 26.101812,100.656761 
	C26.183111,99.410324 27.459116,98.241814 28.605625,97.029816 
z"/>
<path fill="#299CF2" opacity="1.000000" stroke="none" 
	d="
M67.002235,44.014683 
	C66.413750,43.786274 65.825272,43.557865 65.076569,43.046623 
	C68.655548,42.523411 72.394737,42.283031 76.866356,42.349632 
	C79.730370,43.103939 81.861954,43.551258 83.993546,43.998581 
	C83.993546,43.998581 84.000000,44.000000 83.567673,43.999146 
	C79.090179,44.328335 75.045021,44.658382 70.890411,44.771790 
	C70.581223,44.282604 70.318008,44.103134 69.617691,44.012001 
	C68.496796,44.009727 67.749512,44.012207 67.002235,44.014683 
z"/>
<path fill="#3590CF" opacity="1.000000" stroke="none" 
	d="
M106.980766,180.012451 
	C108.312492,181.331787 109.644218,182.651123 110.984192,184.303955 
	C105.697861,182.350296 100.403290,180.063126 94.945679,177.480774 
	C95.681679,177.203384 96.580719,177.221191 97.978424,177.408905 
	C99.647957,177.721054 100.818832,177.863297 101.989700,178.005554 
	C101.989700,178.005554 101.999695,178.000610 102.154678,178.313004 
	C103.537994,179.084869 104.766335,179.544342 106.241196,180.006104 
	C106.487717,180.008423 106.980766,180.012451 106.980766,180.012451 
z"/>
<path fill="#FFFCF1" opacity="1.000000" stroke="none" 
	d="
M25.999836,113.467331 
	C26.445744,113.000885 26.892021,113.001167 27.673168,113.000725 
	C28.007845,113.745995 28.007652,114.491997 28.003838,116.029922 
	C28.001003,118.216438 28.001791,119.611008 28.002579,121.005585 
	C28.002630,123.373100 28.002684,125.740623 28.004219,128.551453 
	C27.336929,127.738388 26.181580,126.515816 26.091490,125.219231 
	C25.831228,121.473473 25.999931,117.697914 25.999836,113.467331 
z"/>
<path fill="#35A7F5" opacity="1.000000" stroke="none" 
	d="
M233.020157,139.033173 
	C235.624130,139.424942 238.228104,139.816727 240.924500,140.588257 
	C236.634613,141.257187 232.252304,141.546356 227.424118,141.566650 
	C226.978241,141.297775 227.009247,140.944946 227.417633,140.957092 
	C229.557404,140.323898 231.288788,139.678543 233.020157,139.033173 
z"/>
<path fill="#DCEFF9" opacity="1.000000" stroke="none" 
	d="
M419.580994,35.675743 
	C419.078064,33.188496 418.781403,30.425640 418.317993,27.292648 
	C419.750793,27.464449 421.350372,28.006386 422.825867,28.506283 
	C421.646606,31.181728 420.716949,33.290932 419.580994,35.675743 
z"/>
<path fill="#35A7F5" opacity="1.000000" stroke="none" 
	d="
M222.328400,141.886475 
	C217.833679,141.403809 213.719421,140.999802 209.747559,140.303574 
	C214.920364,140.015427 219.950760,140.019501 224.986740,140.307556 
	C224.997910,140.970032 225.003510,141.348495 225.009109,141.726959 
	C224.242355,141.806351 223.475616,141.885727 222.328400,141.886475 
z"/>
<path fill="#278ACE" opacity="1.000000" stroke="none" 
	d="
M112.938210,168.684753 
	C110.755875,168.511856 108.523964,168.048721 106.145172,167.290207 
	C105.998291,166.994843 105.998459,166.496826 105.999229,166.247803 
	C107.350822,165.925308 108.701637,165.851837 110.385010,165.783051 
	C111.441254,166.656677 112.164948,167.525589 112.938210,168.684753 
z"/>
<path fill="#35A7F5" opacity="1.000000" stroke="none" 
	d="
M248.906799,140.274078 
	C248.253006,140.753662 247.482697,140.905548 246.423950,141.120178 
	C245.499832,141.217102 244.864151,141.251312 243.805939,141.241394 
	C243.383423,141.197281 243.010666,140.904190 243.010666,140.904190 
	C244.452393,137.659424 246.636688,138.895630 248.906799,140.274078 
z"/>
<path fill="#F0F8F8" opacity="1.000000" stroke="none" 
	d="
M99.741898,149.436264 
	C99.156265,149.278336 98.714111,148.874573 98.126816,148.202820 
	C100.036728,147.669525 102.091789,147.404190 104.552231,147.196503 
	C103.266869,147.899551 101.576118,148.544983 99.741898,149.436264 
z"/>
<path fill="#2896DB" opacity="1.000000" stroke="none" 
	d="
M84.323883,43.953529 
	C81.861954,43.551258 79.730370,43.103939 77.321152,42.409451 
	C79.720032,42.026634 82.396545,41.890984 85.516037,41.818989 
	C85.524078,42.557922 85.089142,43.233200 84.323883,43.953529 
z"/>
<path fill="#2498E7" opacity="1.000000" stroke="none" 
	d="
M36.573280,43.713963 
	C37.144302,43.701694 37.310722,43.773052 37.682442,44.281342 
	C36.034519,46.439598 34.311314,47.128036 33.029148,44.005592 
	C33.003632,43.901268 32.872005,43.731525 32.872005,43.731525 
	C33.970894,43.753548 35.069786,43.775570 36.573280,43.713963 
z"/>
<path fill="#2498E7" opacity="1.000000" stroke="none" 
	d="
M225.338409,141.784058 
	C225.003510,141.348495 224.997910,140.970032 225.156647,140.077057 
	C225.883728,140.023346 226.446487,140.484146 227.009247,140.944946 
	C227.009247,140.944946 226.978241,141.297775 226.979202,141.474594 
	C226.542679,141.714661 226.105194,141.777924 225.338409,141.784058 
z"/>
<path fill="#E7F6FA" opacity="1.000000" stroke="none" 
	d="
M28.930759,43.905090 
	C30.073198,43.668884 31.248114,43.476997 32.647514,43.508316 
	C32.872005,43.731525 33.003632,43.901268 32.630714,43.938793 
	C31.182913,43.995609 30.108027,44.014900 29.033138,44.034187 
	C29.033138,44.034187 28.963234,43.949406 28.930759,43.905090 
z"/>
<path fill="#278ACE" opacity="1.000000" stroke="none" 
	d="
M114.630875,170.739044 
	C114.148293,170.538925 113.605759,170.073929 113.043198,169.314545 
	C113.539085,169.504837 114.055008,169.989502 114.630875,170.739044 
z"/>
<path fill="#F0F8F8" opacity="1.000000" stroke="none" 
	d="
M242.671417,140.965149 
	C243.010666,140.904190 243.383423,141.197281 243.521393,141.387024 
	C242.965836,141.624527 242.272324,141.672302 241.287262,141.521088 
	C241.441193,141.223450 241.886688,141.124786 242.671417,140.965149 
z"/>
<path fill="#E7F6FA" opacity="1.000000" stroke="none" 
	d="
M25.530210,80.546158 
	C25.478407,80.576309 25.582014,80.516014 25.530210,80.546158 
z"/>
<path fill="#F0F8F8" opacity="1.000000" stroke="none" 
	d="
M297.468842,144.450546 
	C297.523132,144.418442 297.414551,144.482651 297.468842,144.450546 
z"/>
<path fill="#EEF8F9" opacity="1.000000" stroke="none" 
	d="
M320.468414,25.452038 
	C320.522278,25.420259 320.414551,25.483814 320.468414,25.452038 
z"/>
<path fill="#DCEFF9" opacity="1.000000" stroke="none" 
	d="
M417.257202,27.013905 
	C416.995941,26.964312 416.996582,26.488514 416.998901,26.250774 
	C417.317383,26.085384 417.583862,26.242155 417.912048,26.689823 
	C417.855103,26.952030 417.686798,27.007763 417.257202,27.013905 
z"/>
<path fill="#DCEFF9" opacity="1.000000" stroke="none" 
	d="
M419.942108,41.990646 
	C419.668823,41.998020 419.561157,41.769402 419.667877,41.309402 
	C419.914368,41.334824 419.989532,41.560371 419.942108,41.990646 
z"/>
<path fill="#E7F6FA" opacity="1.000000" stroke="none" 
	d="
M25.468019,42.448162 
	C25.525703,42.413639 25.410336,42.482685 25.468019,42.448162 
z"/>
<path fill="#F4FAFC" opacity="1.000000" stroke="none" 
	d="
M385.210205,88.010864 
	C384.450256,92.606812 383.342010,97.179482 383.032898,101.805565 
	C382.750336,106.034607 380.822632,107.648163 376.864288,107.562454 
	C374.402405,107.509140 371.938446,107.552551 369.169434,107.552551 
	C367.596100,98.740692 366.044708,90.051575 364.493286,81.362457 
	C364.168610,81.385933 363.843964,81.409409 363.519287,81.432884 
	C362.995483,88.759331 362.144867,96.083427 362.092346,103.413254 
	C362.067810,106.833450 361.422363,108.118927 357.907349,108.274780 
	C346.849518,108.765053 349.068848,110.449333 346.352325,99.782516 
	C343.315674,87.858482 340.473846,75.884666 337.582214,63.924042 
	C337.196808,62.329769 337.016907,60.685814 336.634338,58.431515 
	C339.357727,58.252537 341.753296,58.095100 344.938416,57.920410 
	C346.781067,58.314655 347.834229,58.726158 348.887360,59.137661 
	C348.887360,59.137661 348.873566,59.039185 348.801636,59.504631 
	C349.994690,68.601059 351.259644,77.232033 352.524628,85.863014 
	C353.171509,85.814217 353.818390,85.765411 354.465271,85.716614 
	C354.952087,77.153557 355.438904,68.590500 355.925720,60.027451 
	C356.762146,59.080132 357.437775,57.639824 358.473053,57.302185 
	C359.988312,56.807987 361.761230,57.099964 363.424530,57.064205 
	C370.088745,56.920918 370.523346,57.756485 371.041138,64.270004 
	C371.506775,70.127159 372.979797,75.904236 375.170837,81.652916 
	C375.870789,75.565460 376.660736,69.486649 377.245911,63.388180 
	C377.856445,57.025047 382.793732,53.801361 388.715118,56.213921 
	C389.254028,56.433498 389.306122,57.847862 389.453613,59.404804 
	C387.951996,69.405106 386.581085,78.707985 385.210205,88.010864 
z"/>
<path fill="#F3F9FB" opacity="1.000000" stroke="none" 
	d="
M273.016022,64.867416 
	C275.273987,71.076103 277.398804,76.905563 279.523651,82.735023 
	C280.087128,82.651047 280.650574,82.567078 281.214050,82.483101 
	C280.909363,75.523888 280.604706,68.564682 280.276398,61.065647 
	C283.803467,60.751434 287.000732,60.466602 290.845184,60.124115 
	C291.300140,70.671928 291.598419,80.755783 292.259064,90.815834 
	C292.438202,93.543892 293.927673,96.162643 294.403656,98.903130 
	C294.693542,100.572136 294.288116,102.392899 294.009186,104.115402 
	C293.886810,104.871010 292.823334,105.710075 292.999725,106.241463 
	C294.638062,111.176041 291.403198,111.226028 288.076385,111.466225 
	C280.727814,111.996811 280.753052,112.035530 278.275970,105.060562 
	C276.278046,99.434952 274.213654,93.832993 272.194611,88.214828 
	C271.971008,87.592743 271.851624,86.933205 271.683899,86.291039 
	C271.329865,86.605789 270.975861,86.920540 270.621826,87.235291 
	C271.164429,95.336594 271.707031,103.437897 272.267914,111.812668 
	C270.480591,111.953201 269.363159,112.060593 268.243317,112.125969 
	C260.312744,112.588997 259.682129,110.889236 259.923462,102.982758 
	C260.290192,90.966682 259.671753,78.871796 258.607880,66.887070 
	C258.231537,62.647835 259.127655,61.071373 262.866272,61.472366 
	C266.314667,61.842228 271.136108,58.347023 273.016022,64.867416 
z"/>
<path fill="#F4FBFB" opacity="1.000000" stroke="none" 
	d="
M297.798889,94.415329 
	C298.282898,92.630814 299.128937,90.856644 299.180298,89.059761 
	C299.312866,84.420227 299.004089,79.770058 299.035400,75.125252 
	C299.096130,66.111732 302.716797,60.774559 309.934967,58.819233 
	C319.768921,56.155312 326.335785,58.649921 331.455505,67.023254 
	C331.814758,67.188560 331.781891,67.332298 331.781860,67.332298 
	C332.303253,74.583710 332.824646,81.835114 333.364380,89.947815 
	C333.406250,92.875320 333.429779,94.941536 333.453308,97.007759 
	C331.348846,113.303368 314.021301,114.175194 303.423737,107.199165 
	C301.548035,105.964432 301.194672,102.403000 300.163422,99.905640 
	C299.690857,98.761215 299.279144,97.591675 298.258301,96.321198 
	C297.676727,96.208870 297.348541,96.209641 297.348541,96.209641 
	C297.348541,96.209641 297.536102,96.383423 297.721771,96.062996 
	C297.871246,95.300156 297.835052,94.857742 297.798889,94.415329 
M317.192047,67.973602 
	C313.827637,67.381248 311.228973,68.500839 311.281403,72.119804 
	C311.403900,80.581764 311.743103,89.058571 312.549225,97.476242 
	C312.696167,99.010567 315.472137,100.293129 317.034485,101.691925 
	C318.394958,100.106255 320.879822,98.551399 320.924255,96.929649 
	C321.133484,89.295853 320.826782,81.634048 320.346588,74.004730 
	C320.222931,72.039925 318.801910,70.156784 317.192047,67.973602 
z"/>
<path fill="#F3FAFB" opacity="1.000000" stroke="none" 
	d="
M126.929749,73.024017 
	C131.197708,78.694687 131.035416,86.797607 124.834534,93.047813 
	C132.638062,99.435394 129.360764,109.371155 132.725632,117.597969 
	C131.716858,117.864182 130.822281,118.201958 129.898788,118.328445 
	C119.076912,119.810760 118.954048,119.699379 118.756157,108.913452 
	C118.641449,102.661057 118.641441,102.661057 111.634071,99.496071 
	C111.327515,106.035782 111.038216,112.207367 110.724968,118.889824 
	C107.116356,119.186829 103.451805,119.488426 99.353584,119.825722 
	C99.011230,112.555466 98.720062,105.786301 98.366821,99.020370 
	C97.933830,90.726845 97.512794,82.431786 96.961174,74.145737 
	C96.656204,69.564651 98.234283,67.162537 103.525543,68.410767 
	C103.032310,69.584541 102.181496,70.374313 100.800873,71.655876 
	C102.732277,71.815521 103.864853,71.909134 105.056335,72.344116 
	C107.390968,72.877914 109.666695,73.070351 111.981796,73.266121 
	C111.444160,73.881828 110.894867,74.510902 110.296837,75.195778 
	C112.033455,75.927734 113.460411,76.529175 114.471954,77.120087 
	C112.515892,77.109558 110.975243,77.109558 109.175865,77.109558 
	C109.534546,81.602440 109.829033,85.291100 110.247543,90.533379 
	C113.199043,88.739799 116.004677,87.979988 117.057259,86.189568 
	C118.980080,82.918900 117.817230,79.581848 115.152878,77.077057 
	C116.417923,76.952751 117.322395,76.859634 118.380760,76.750679 
	C117.237152,75.163345 116.291656,73.850998 114.956116,71.997253 
	C112.196327,71.997253 108.599541,71.997253 105.092392,71.601089 
	C109.901382,68.972603 118.949005,69.529381 121.459038,72.371666 
	C120.536110,72.752556 119.683105,73.104591 118.870277,73.440048 
	C120.346870,74.852219 121.808701,76.250267 123.865128,78.216965 
	C124.966385,76.350899 125.948067,74.687462 126.929749,73.024017 
z"/>
<path fill="#F7FCFC" opacity="1.000000" stroke="none" 
	d="
M163.074066,74.169914 
	C161.631088,78.747070 160.235184,83.339729 158.733658,87.897606 
	C156.692001,94.095078 154.571060,99.945541 157.617905,106.803459 
	C159.861084,111.852470 155.657120,116.709564 149.974182,117.309509 
	C148.507309,117.464363 147.049301,117.703110 144.291946,118.080696 
	C147.287460,99.156654 138.394577,83.526627 131.030457,67.842010 
	C131.564255,67.262474 131.643387,67.093208 131.758865,67.063034 
	C143.437485,64.012993 146.760529,71.532799 149.467606,80.819649 
	C150.224991,78.432625 150.982376,76.045601 152.244110,73.169525 
	C154.342194,72.218979 155.935928,71.757462 157.529648,71.295944 
	C157.501251,70.964897 157.472839,70.633858 157.444427,70.302811 
	C155.923965,70.192841 154.403488,70.082870 152.883026,69.972900 
	C152.909439,69.532333 152.935867,69.091766 153.481262,68.326706 
	C161.757675,67.975052 162.422836,68.427177 163.074066,74.169914 
z"/>
<path fill="#F5FBFD" opacity="1.000000" stroke="none" 
	d="
M222.063354,114.360695 
	C220.636932,114.322098 219.210495,114.283508 217.321838,113.750015 
	C216.445786,106.861145 216.031967,100.467171 215.618149,94.073204 
	C215.632721,92.657776 215.647293,91.242355 215.579468,89.032196 
	C215.272614,84.497269 215.048172,80.757080 214.823715,77.016884 
	C214.854416,76.576004 214.885117,76.135132 214.867798,75.021774 
	C211.556213,73.896606 208.292633,73.443916 205.029068,72.991226 
	C205.029068,70.203804 205.029068,67.416389 205.029068,64.180786 
	C214.127655,63.440029 222.791824,62.509029 231.480377,62.113499 
	C236.537445,61.883289 237.452255,64.167412 236.271912,72.590836 
	C234.894485,72.700775 233.444427,72.834229 231.991791,72.927513 
	C230.519745,73.022049 229.045151,73.076881 226.858994,73.184036 
	C227.204636,80.953392 227.541718,88.530266 227.909393,97.020477 
	C227.940002,103.180580 227.940002,108.427368 227.940002,113.737045 
	C225.665726,113.978401 223.864548,114.169548 222.063354,114.360695 
z"/>
<path fill="#F8FCFC" opacity="1.000000" stroke="none" 
	d="
M62.088100,70.503426 
	C62.524734,70.443428 62.961372,70.383438 63.833321,70.512222 
	C64.605949,70.787376 64.847153,70.664169 64.992241,70.331375 
	C65.745728,70.247490 66.499222,70.163597 67.728539,70.269577 
	C68.468643,70.349899 68.732918,70.240364 68.997192,70.130829 
	C76.635201,69.785660 84.273209,69.440491 91.802582,69.100227 
	C92.822021,77.675888 92.531036,77.859421 85.725891,79.315086 
	C84.575844,79.561081 83.084404,81.996025 83.116318,83.388336 
	C83.390114,95.334084 83.978226,107.272636 84.508667,120.089012 
	C80.837402,120.364426 77.166969,120.639786 72.591919,120.983002 
	C72.316711,112.761536 72.057693,105.023445 71.850761,96.622086 
	C71.928162,95.645638 71.844025,95.365402 71.650459,95.118103 
	C71.533348,93.353539 71.416245,91.588974 71.540268,89.064896 
	C71.926720,85.576591 72.072029,82.847801 72.280258,78.937546 
	C68.421753,78.937546 64.900352,78.937546 61.378960,78.937546 
	C61.320709,78.494659 61.262463,78.051773 61.477760,76.989197 
	C61.863567,74.414154 61.975834,72.458786 62.088100,70.503426 
z"/>
<path fill="#FAFCFC" opacity="1.000000" stroke="none" 
	d="
M188.845825,84.951248 
	C188.817764,81.283539 188.789719,77.615822 189.071060,73.480988 
	C189.587387,73.008842 189.794296,73.003838 190.008972,73.291443 
	C190.104965,74.082573 190.193207,74.581085 190.281448,75.079590 
	C190.512299,75.005173 190.743134,74.930756 190.973984,74.856346 
	C190.648941,74.237801 190.323914,73.619255 189.983353,72.602142 
	C189.653793,69.842606 189.339752,67.481636 189.025711,65.120674 
	C189.025711,65.120674 189.492538,64.942825 190.164429,65.006592 
	C192.527298,65.111397 194.218307,65.152443 195.940445,65.573959 
	C196.226837,70.457893 197.891068,74.429024 200.534149,78.030312 
	C200.615448,78.783195 200.696732,79.536072 200.561279,80.827774 
	C200.484650,81.901642 200.624786,82.436707 200.764923,82.971764 
	C201.205917,92.670540 201.646927,102.369308 201.698029,112.689690 
	C197.707474,113.517387 194.106842,113.723480 190.506195,113.929581 
	C190.363449,112.556229 190.220703,111.182884 190.353058,109.164780 
	C190.446014,107.348923 190.263870,106.177826 190.081726,105.006721 
	C189.970047,102.453377 189.858368,99.900040 189.841095,96.436493 
	C189.572266,92.001274 189.209045,88.476265 188.845825,84.951248 
z"/>
<path fill="#3498DD" opacity="1.000000" stroke="none" 
	d="
M355.676697,60.268074 
	C355.438904,68.590500 354.952087,77.153557 354.465271,85.716614 
	C353.818390,85.765411 353.171509,85.814217 352.524628,85.863014 
	C351.259644,77.232033 349.994690,68.601059 348.771729,59.544323 
	C350.432709,60.988960 352.051727,62.859352 354.231232,65.377266 
	C354.767670,63.194408 355.097656,61.851559 355.676697,60.268074 
z"/>
<path fill="#F1F7F7" opacity="1.000000" stroke="none" 
	d="
M104.997437,72.002747 
	C103.864853,71.909134 102.732277,71.815521 100.800873,71.655876 
	C102.181496,70.374313 103.032310,69.584541 103.953690,68.466980 
	C111.855598,68.397995 120.246689,65.595001 126.912796,72.672234 
	C125.948067,74.687462 124.966385,76.350899 123.865128,78.216965 
	C121.808701,76.250267 120.346870,74.852219 118.870277,73.440048 
	C119.683105,73.104591 120.536110,72.752556 121.459038,72.371666 
	C118.949005,69.529381 109.901382,68.972603 105.091019,71.602463 
	C105.000000,72.000000 104.997437,72.002747 104.997437,72.002747 
z"/>
<path fill="#3099E3" opacity="1.000000" stroke="none" 
	d="
M385.530884,87.933304 
	C386.581085,78.707985 387.951996,69.405106 389.592133,59.766563 
	C389.907013,60.982731 389.952606,62.534554 389.996704,64.976204 
	C390.333099,68.247688 390.671021,70.629356 391.008911,73.011017 
	C390.678253,76.430801 390.750641,79.961006 389.856110,83.226311 
	C389.369659,85.001877 387.240051,86.327278 385.530884,87.933304 
z"/>
<path fill="#1B6DA2" opacity="1.000000" stroke="none" 
	d="
M73.000000,152.000000 
	C76.932472,151.657425 80.879402,151.420410 84.785515,150.885422 
	C85.590439,150.775192 86.243141,149.553589 86.977814,148.447449 
	C90.022560,148.005478 93.055496,147.960266 96.541718,147.935120 
	C97.315659,150.455063 96.617317,151.946823 93.737595,152.278610 
	C87.104126,153.042908 80.501724,154.076889 73.443466,154.626221 
	C73.000153,153.500656 73.000076,152.750336 73.000000,152.000000 
z"/>
<path fill="#3D9EE1" opacity="1.000000" stroke="none" 
	d="
M222.390472,114.570511 
	C223.864548,114.169548 225.665726,113.978401 227.940002,113.737045 
	C227.940002,108.427368 227.940002,103.180580 227.998413,97.468872 
	C228.540497,99.680489 229.024139,102.357033 229.507782,105.033585 
	C229.938980,105.048897 230.370178,105.064209 230.801361,105.079521 
	C230.576874,99.952110 230.352386,94.824699 230.127899,89.697289 
	C230.626862,89.659279 231.125824,89.621269 231.624802,89.583267 
	C231.743637,91.529190 231.936203,93.473999 231.965424,95.421265 
	C232.019958,99.056343 231.983429,102.692863 231.978043,106.328766 
	C231.964676,115.333611 231.869690,115.418907 222.390472,114.570511 
z"/>
<path fill="#1E9AF0" opacity="1.000000" stroke="none" 
	d="
M88.987724,47.999084 
	C78.623505,47.999084 68.259285,47.999084 57.895061,47.999084 
	C57.834427,47.895668 57.773788,47.792252 57.713154,47.688831 
	C59.966694,47.316414 62.220230,46.943996 65.206024,46.288815 
	C73.625549,46.006454 81.312813,46.006863 89.000076,46.007267 
	C89.000076,46.007267 88.999840,45.999237 88.999268,46.333981 
	C88.995041,47.112179 88.991386,47.555630 88.987724,47.999084 
z"/>
<path fill="#2B96DE" opacity="1.000000" stroke="none" 
	d="
M227.417633,140.957092 
	C226.446487,140.484146 225.883728,140.023346 225.151062,139.793060 
	C219.950760,140.019501 214.920364,140.015427 209.456482,140.016052 
	C209.785721,139.354187 210.546997,138.112564 211.311310,138.110672 
	C218.352188,138.093414 225.393570,138.290619 232.727478,138.729279 
	C231.288788,139.678543 229.557404,140.323898 227.417633,140.957092 
z"/>
<path fill="#E7F6FA" opacity="1.000000" stroke="none" 
	d="
M200.620972,77.593460 
	C197.891068,74.429024 196.226837,70.457893 196.249268,65.546082 
	C196.732910,65.147858 196.938873,65.157974 197.203705,65.306412 
	C197.262558,65.444740 197.657013,65.492210 197.657013,65.492210 
	C197.657013,65.492210 197.886566,65.127098 198.098236,65.039246 
	C198.588776,64.804390 198.802750,64.592010 198.951828,64.314240 
	C199.537155,68.595024 200.122467,72.875816 200.620972,77.593460 
z"/>
<path fill="#3D9EE1" opacity="1.000000" stroke="none" 
	d="
M28.977615,44.482803 
	C30.108027,44.014900 31.182913,43.995609 32.656235,44.043118 
	C34.311314,47.128036 36.034519,46.439598 37.943504,44.356285 
	C38.742264,43.931099 39.485260,43.867901 40.600830,43.838512 
	C40.239765,45.230225 39.467918,47.760162 38.779270,47.737717 
	C36.169865,47.652657 32.586918,49.948357 30.325426,45.502007 
	C30.149778,49.064442 29.974131,52.626873 29.577295,56.512680 
	C29.356108,56.836048 29.133171,56.916672 29.065838,56.590187 
	C28.952663,55.503735 28.906826,54.743767 28.860987,53.983795 
	C28.881353,50.966335 28.901722,47.948872 28.977615,44.482803 
z"/>
<path fill="#E7F6FA" opacity="1.000000" stroke="none" 
	d="
M163.299240,73.880585 
	C162.422836,68.427177 161.757675,67.975052 153.574066,68.007950 
	C154.397659,67.373177 155.604340,66.312477 156.906082,66.178993 
	C159.677704,65.894814 162.498688,66.092163 166.053680,66.092163 
	C165.143585,68.790497 164.334000,71.190872 163.299240,73.880585 
z"/>
<path fill="#1E9AF0" opacity="1.000000" stroke="none" 
	d="
M176.827759,138.000885 
	C179.511932,138.295883 181.747208,138.590118 183.982468,138.884369 
	C183.964676,139.271896 183.946884,139.659424 183.929092,140.046951 
	C179.059082,140.347351 174.189072,140.647766 169.319061,140.948166 
	C169.265015,140.115067 169.210983,139.281982 169.156937,138.448898 
	C171.564240,138.299301 173.971527,138.149719 176.827759,138.000885 
z"/>
<path fill="#199AEF" opacity="1.000000" stroke="none" 
	d="
M297.586792,93.876450 
	C297.835052,94.857742 297.871246,95.300156 297.800049,95.961914 
	C297.130676,92.954155 296.113831,89.728104 296.106384,86.499710 
	C296.093048,80.721687 296.687714,74.942261 297.374695,69.196236 
	C297.374695,77.243347 297.374695,85.290451 297.586792,93.876450 
z"/>
<path fill="#1E9AF0" opacity="1.000000" stroke="none" 
	d="
M209.992142,89.002762 
	C213.920410,91.112244 214.443253,99.159096 210.418884,101.516579 
	C209.999634,97.046051 209.995895,93.024406 209.992142,89.002762 
z"/>
<path fill="#D9F2FD" opacity="1.000000" stroke="none" 
	d="
M61.324795,79.343689 
	C64.900352,78.937546 68.421753,78.937546 72.280258,78.937546 
	C72.072029,82.847801 71.926720,85.576591 71.574722,88.621124 
	C70.741409,86.573380 70.114792,84.209892 69.443260,81.677017 
	C66.954758,81.090202 64.112694,80.420013 61.324795,79.343689 
z"/>
<path fill="#2896DB" opacity="1.000000" stroke="none" 
	d="
M88.773682,45.733803 
	C81.312813,46.006863 73.625549,46.006454 65.469788,46.008335 
	C65.563347,45.505909 66.125404,45.001194 66.844849,44.255585 
	C67.749512,44.012207 68.496796,44.009727 69.728828,44.226967 
	C70.415108,44.715168 70.677200,44.895748 70.999863,44.988426 
	C75.045021,44.658382 79.090179,44.328335 83.565407,43.996731 
	C85.512741,44.483566 87.030014,44.971954 88.773682,45.733803 
z"/>
<path fill="#2B96DE" opacity="1.000000" stroke="none" 
	d="
M391.400513,72.918579 
	C390.671021,70.629356 390.333099,68.247688 389.997009,65.436981 
	C390.942688,64.123199 391.886627,63.238461 393.569122,61.661461 
	C392.916779,65.759956 392.354462,69.293053 391.400513,72.918579 
z"/>
<path fill="#2B96DE" opacity="1.000000" stroke="none" 
	d="
M209.709778,89.270248 
	C209.995895,93.024406 209.999634,97.046051 210.006119,101.529999 
	C209.524414,104.167618 209.039948,106.342918 208.278687,108.424805 
	C208.000656,107.888710 207.999451,107.446037 207.998230,107.003365 
	C207.999146,106.557846 208.000046,106.112328 208.000412,104.888702 
	C207.998077,101.740715 207.996292,99.370834 207.994507,97.000954 
	C208.472153,94.513214 208.949783,92.025475 209.709778,89.270248 
z"/>
<path fill="#1E9AF0" opacity="1.000000" stroke="none" 
	d="
M334.977570,82.293427 
	C334.459137,77.704666 334.049225,73.462906 333.639343,69.221153 
	C334.266602,69.183540 334.893860,69.145927 335.521088,69.108315 
	C335.617157,73.641510 335.714355,78.174683 335.797180,82.708122 
	C335.798248,82.765236 335.601837,82.889229 335.523102,82.871132 
	C335.367981,82.835457 335.230743,82.721825 334.977570,82.293427 
z"/>
<path fill="#2B96DE" opacity="1.000000" stroke="none" 
	d="
M67.998497,89.169502 
	C67.999695,91.846970 67.999695,94.079308 67.999695,96.311638 
	C67.539604,96.318588 67.079521,96.325546 66.619431,96.332504 
	C66.619431,92.471046 66.619431,88.609596 66.619431,84.748138 
	C66.910522,84.681534 67.201607,84.614922 67.492699,84.548317 
	C67.660896,85.940331 67.829102,87.332352 67.998497,89.169502 
z"/>
<path fill="#3D9EE1" opacity="1.000000" stroke="none" 
	d="
M215.408310,94.416779 
	C216.031967,100.467171 216.445786,106.861145 216.896286,113.691803 
	C216.298386,112.883301 215.155777,111.653305 215.117996,110.390282 
	C214.962357,105.185753 215.142059,99.971207 215.408310,94.416779 
z"/>
<path fill="#1E9AF0" opacity="1.000000" stroke="none" 
	d="
M333.765991,97.049423 
	C333.429779,94.941536 333.406250,92.875320 333.524750,90.385849 
	C334.443909,90.500931 335.221008,91.039253 335.998108,91.577576 
	C334.761963,93.207809 338.378967,96.527588 333.765991,97.049423 
z"/>
<path fill="#DCEFF9" opacity="1.000000" stroke="none" 
	d="
M188.515411,85.206619 
	C189.209045,88.476265 189.572266,92.001274 189.837311,96.018646 
	C189.221085,92.828003 188.703033,89.144997 188.515411,85.206619 
z"/>
<path fill="#3D9EE1" opacity="1.000000" stroke="none" 
	d="
M204.707382,73.041733 
	C208.292633,73.443916 211.556213,73.896606 214.796555,74.696808 
	C211.538269,75.018356 208.301254,75.034531 205.071854,74.885651 
	C204.816116,74.873871 204.613174,73.716972 204.707382,73.041733 
z"/>
<path fill="#DCEFF9" opacity="1.000000" stroke="none" 
	d="
M190.501892,114.302094 
	C194.106842,113.723480 197.707474,113.517387 201.654602,113.155319 
	C201.978958,113.584404 201.963531,114.681564 201.933731,114.681961 
	C198.122360,114.731895 194.309967,114.701241 190.501892,114.302094 
z"/>
<path fill="#EAF7FA" opacity="1.000000" stroke="none" 
	d="
M177.406494,37.472466 
	C179.484482,37.063591 181.975220,36.747051 184.730927,36.709465 
	C182.603683,37.180542 180.211456,37.372673 177.406494,37.472466 
z"/>
<path fill="#199AEF" opacity="1.000000" stroke="none" 
	d="
M207.615158,97.082947 
	C207.996292,99.370834 207.998077,101.740715 207.999329,104.554565 
	C204.443939,102.708801 205.610916,99.959175 207.615158,97.082947 
z"/>
<path fill="#3D9EE1" opacity="1.000000" stroke="none" 
	d="
M214.566681,77.328705 
	C215.048172,80.757080 215.272614,84.497269 215.421448,88.637634 
	C215.000443,85.238701 214.655045,81.439613 214.566681,77.328705 
z"/>
<path fill="#E7F6FA" opacity="1.000000" stroke="none" 
	d="
M152.658432,70.209068 
	C154.403488,70.082870 155.923965,70.192841 157.444427,70.302811 
	C157.472839,70.633858 157.501251,70.964897 157.529648,71.295944 
	C155.935928,71.757462 154.342194,72.218979 152.410736,72.835388 
	C152.193298,72.141930 152.313568,71.293587 152.658432,70.209068 
z"/>
<path fill="#2896DB" opacity="1.000000" stroke="none" 
	d="
M89.401474,47.997982 
	C88.991386,47.555630 88.995041,47.112179 88.995224,46.336189 
	C90.877014,46.003658 92.762283,46.003658 94.647560,46.003658 
	C94.739059,46.417625 94.830551,46.831589 94.922050,47.245556 
	C93.219772,47.495998 91.517494,47.746437 89.401474,47.997982 
z"/>
<path fill="#DCEFF9" opacity="1.000000" stroke="none" 
	d="
M190.001221,72.998825 
	C189.794296,73.003838 189.587387,73.008842 189.069824,73.023087 
	C188.617416,70.512146 188.475662,67.991989 188.679810,65.296249 
	C189.339752,67.481636 189.653793,69.842606 189.983917,72.601784 
	C190.000000,73.000000 190.001221,72.998825 190.001221,72.998825 
z"/>
<path fill="#2896DB" opacity="1.000000" stroke="none" 
	d="
M374.500122,130.007416 
	C374.993744,130.018280 375.183075,129.979752 375.317566,130.048538 
	C375.543976,130.164307 375.735535,130.348221 375.941742,130.503479 
	C374.567108,131.011566 373.192474,131.519653 371.817841,132.027725 
	C371.685333,131.602402 371.552795,131.177094 371.420288,130.751770 
	C372.337250,130.503281 373.254242,130.254776 374.500122,130.007416 
z"/>
<path fill="#DCEFF9" opacity="1.000000" stroke="none" 
	d="
M198.522980,64.285591 
	C198.802750,64.592010 198.588776,64.804390 197.912415,65.031059 
	C197.514923,65.110725 197.144852,65.168083 197.144852,65.168083 
	C196.938873,65.157974 196.732910,65.147858 196.218109,65.165619 
	C194.218307,65.152443 192.527298,65.111397 190.412979,65.031219 
	C192.691147,64.747032 195.392654,64.501984 198.522980,64.285591 
z"/>
<path fill="#D9F2FD" opacity="1.000000" stroke="none" 
	d="
M61.726059,70.604797 
	C61.975834,72.458786 61.863567,74.414154 61.530533,76.656288 
	C61.327847,74.864098 61.345932,72.785126 61.726059,70.604797 
z"/>
<path fill="#199AEF" opacity="1.000000" stroke="none" 
	d="
M207.726349,107.242172 
	C207.999451,107.446037 208.000656,107.888710 208.004135,108.663330 
	C207.914841,110.028984 207.823273,111.062698 207.731705,112.096413 
	C207.466858,112.070244 207.201996,112.044083 206.937149,112.017914 
	C207.109589,110.505608 207.282028,108.993294 207.726349,107.242172 
z"/>
<path fill="#3498DD" opacity="1.000000" stroke="none" 
	d="
M348.884644,58.789341 
	C347.834229,58.726158 346.781067,58.314655 345.382385,57.833023 
	C346.318512,57.988937 347.600250,58.214977 348.884644,58.789341 
z"/>
<path fill="#1E9AF0" opacity="1.000000" stroke="none" 
	d="
M331.742737,67.204224 
	C332.035004,66.567543 332.399292,65.915192 332.763611,65.262848 
	C332.998840,65.428017 333.234039,65.593193 333.469269,65.758362 
	C333.105530,66.202560 332.741791,66.646751 332.079956,67.211624 
	C331.781891,67.332298 331.814758,67.188560 331.742737,67.204224 
z"/>
<path fill="#DCEFF9" opacity="1.000000" stroke="none" 
	d="
M190.010788,105.401649 
	C190.263870,106.177826 190.446014,107.348923 190.402328,108.749512 
	C190.097626,107.918198 190.018738,106.857384 190.010788,105.401649 
z"/>
<path fill="#35A7F5" opacity="1.000000" stroke="none" 
	d="
M256.857117,140.059875 
	C256.360687,140.280991 255.558670,140.454849 254.469513,140.488968 
	C254.972092,140.237030 255.761810,140.124817 256.857117,140.059875 
z"/>
<path fill="#3D9EE1" opacity="1.000000" stroke="none" 
	d="
M29.968700,64.833000 
	C29.753489,64.348679 29.573120,63.563389 29.532013,62.498276 
	C29.782030,62.989651 29.892788,63.760838 29.968700,64.833000 
z"/>
<path fill="#E7F6FA" opacity="1.000000" stroke="none" 
	d="
M200.840012,82.651123 
	C200.624786,82.436707 200.484650,81.901642 200.519302,81.206863 
	C200.767761,81.474915 200.841431,81.902695 200.840012,82.651123 
z"/>
<path fill="#D9F2FD" opacity="1.000000" stroke="none" 
	d="
M71.532845,95.327522 
	C71.844025,95.365402 71.928162,95.645638 71.842964,96.178680 
	C71.512276,96.174492 71.389664,95.887299 71.532845,95.327522 
z"/>
<path fill="#199AEF" opacity="1.000000" stroke="none" 
	d="
M297.286224,96.486450 
	C297.348541,96.209641 297.676727,96.208870 297.829803,96.247910 
	C297.729889,96.445724 297.476898,96.604492 297.286224,96.486450 
z"/>
<path fill="#D9F2FD" opacity="1.000000" stroke="none" 
	d="
M68.747757,70.078629 
	C68.732918,70.240364 68.468643,70.349899 68.107513,70.317017 
	C68.173210,70.125206 68.335762,70.075813 68.747757,70.078629 
z"/>
<path fill="#D9F2FD" opacity="1.000000" stroke="none" 
	d="
M64.744659,70.305656 
	C64.847153,70.664169 64.605949,70.787376 64.157478,70.596092 
	C64.046318,70.491188 64.497086,70.279938 64.744659,70.305656 
z"/>
<path fill="#1B6DA2" opacity="1.000000" stroke="none" 
	d="
M80.747780,148.135223 
	C80.991104,148.143448 80.684525,148.509003 80.684525,148.509003 
	C80.684525,148.509003 80.237450,148.490417 80.134651,148.367310 
	C80.031853,148.244202 80.504456,148.126999 80.747780,148.135223 
z"/>
<path fill="#1B6DA2" opacity="1.000000" stroke="none" 
	d="
M73.744019,148.262238 
	C73.829689,148.512924 73.613754,148.717484 73.100281,148.895782 
	C73.015182,148.656433 73.228401,148.438629 73.744019,148.262238 
z"/>
<path fill="#1E6A9B" opacity="1.000000" stroke="none" 
	d="
M72.536201,151.999695 
	C73.000076,152.750336 73.000153,153.500656 73.000870,154.626190 
	C67.663078,155.075150 62.875195,160.082321 57.077293,156.390823 
	C57.649837,154.962082 58.197258,153.098755 58.975616,152.996689 
	C63.310272,152.428314 67.700912,152.286865 72.536201,151.999695 
z"/>
<path fill="#FEFFFF" opacity="1.000000" stroke="none" 
	d="
M28.364000,120.938057 
	C28.001791,119.611008 28.001003,118.216438 28.002464,116.402924 
	C31.088406,117.193459 30.487911,118.946304 28.364000,120.938057 
z"/>
<path fill="#278ACE" opacity="1.000000" stroke="none" 
	d="
M107.362305,180.013504 
	C106.980766,180.012451 106.487717,180.008423 106.075478,179.750305 
	C104.774307,178.990784 103.885376,178.489380 102.996437,177.987991 
	C105.750404,173.969482 109.822067,173.638748 114.584274,174.011276 
	C114.917328,176.378326 114.808968,178.739304 114.678780,181.575943 
	C111.997169,180.972183 109.870506,180.493362 107.362305,180.013504 
z"/>
<path fill="#2B96DE" opacity="1.000000" stroke="none" 
	d="
M102.746788,177.992645 
	C103.885376,178.489380 104.774307,178.990784 105.828957,179.747986 
	C104.766335,179.544342 103.537994,179.084869 102.153824,178.318787 
	C101.997986,178.012192 102.497139,177.997299 102.746788,177.992645 
z"/>
<path fill="#2B96DE" opacity="1.000000" stroke="none" 
	d="
M101.759521,177.733429 
	C100.818832,177.863297 99.647957,177.721054 98.241638,177.316589 
	C99.180573,177.190002 100.354958,177.325638 101.759521,177.733429 
z"/>
<path fill="#FEFFFF" opacity="1.000000" stroke="none" 
	d="
M28.631454,53.755890 
	C28.906826,54.743767 28.952663,55.503735 28.959885,56.643333 
	C28.081278,55.154510 27.241289,53.286060 26.401299,51.417614 
	C26.800486,51.266060 27.199671,51.114506 27.598858,50.962952 
	C27.866547,51.817963 28.134235,52.672977 28.631454,53.755890 
z"/>
<path fill="#2498E7" opacity="1.000000" stroke="none" 
	d="
M70.890411,44.771790 
	C70.677200,44.895748 70.415108,44.715168 70.102448,44.231720 
	C70.318008,44.103134 70.581223,44.282604 70.890411,44.771790 
z"/>
<path fill="#2A99E6" opacity="1.000000" stroke="none" 
	d="
M317.584473,68.104858 
	C318.801910,70.156784 320.222931,72.039925 320.346588,74.004730 
	C320.826782,81.634048 321.133484,89.295853 320.924255,96.929649 
	C320.879822,98.551399 318.394958,100.106255 317.034485,101.691925 
	C315.472137,100.293129 312.696167,99.010567 312.549225,97.476242 
	C311.743103,89.058571 311.403900,80.581764 311.281403,72.119804 
	C311.228973,68.500839 313.827637,67.381248 317.584473,68.104858 
z"/>
<path fill="#3099E3" opacity="1.000000" stroke="none" 
	d="
M114.792305,77.108246 
	C117.817230,79.581848 118.980080,82.918900 117.057259,86.189568 
	C116.004677,87.979988 113.199043,88.739799 110.247543,90.533379 
	C109.829033,85.291100 109.534546,81.602440 109.175865,77.109558 
	C110.975243,77.109558 112.515892,77.109558 114.460770,77.061256 
	C114.864998,77.012955 114.792305,77.108246 114.792305,77.108246 
z"/>
<path fill="#F1F7F7" opacity="1.000000" stroke="none" 
	d="
M114.876190,77.071785 
	C113.460411,76.529175 112.033455,75.927734 110.296837,75.195778 
	C110.894867,74.510902 111.444160,73.881828 111.981796,73.266121 
	C109.666695,73.070351 107.390968,72.877914 105.056335,72.344116 
	C104.997437,72.002747 105.000000,72.000000 105.001373,71.998627 
	C108.599541,71.997253 112.196327,71.997253 114.956116,71.997253 
	C116.291656,73.850998 117.237152,75.163345 118.380760,76.750679 
	C117.322395,76.859634 116.417923,76.952751 115.152878,77.077057 
	C114.792305,77.108246 114.864998,77.012955 114.876190,77.071785 
z"/>
<path fill="#DCEFF9" opacity="1.000000" stroke="none" 
	d="
M189.999435,73.000359 
	C190.323914,73.619255 190.648941,74.237801 190.973984,74.856346 
	C190.743134,74.930756 190.512299,75.005173 190.281448,75.079590 
	C190.193207,74.581085 190.104965,74.082573 190.008972,73.291443 
	C190.001221,72.998825 190.000000,73.000000 189.999435,73.000359 
z"/>
<path fill="#FAFCFC" opacity="1.000000" stroke="none" 
	d="
M197.203705,65.306412 
	C197.144852,65.168083 197.514923,65.110725 197.700745,65.118912 
	C197.886566,65.127098 197.657013,65.492210 197.657013,65.492210 
	C197.657013,65.492210 197.262558,65.444740 197.203705,65.306412 
z"/>
</svg>